<?xml version="1.0" encoding="utf-8"?>
<!-- Generator: Adobe Illustrator 17.1.0, SVG Export Plug-In . SVG Version: 6.00 Build 0)  -->
<!DOCTYPE svg PUBLIC "-//W3C//DTD SVG 1.1//EN" "http://www.w3.org/Graphics/SVG/1.1/DTD/svg11.dtd">
<svg version="1.1" xmlns="http://www.w3.org/2000/svg" xmlns:xlink="http://www.w3.org/1999/xlink" x="0px" y="0px"  viewBox="0 0 367.8 572.8" enable-background="new 0 0 367.8 572.8" xml:space="preserve">
<g id="Слой_1">
	<g>
		<polygon fill="#F4EFEF" points="367.4,459.4 350.4,459.4 350.4,572.8 49.8,572.8 49.8,499.1 0,499.1 25.8,0 367.4,0 		"/>
		<polyline fill="#362633" points="367.4,459.4 288,459.4 288,442.3 367.4,442.3 		"/>
		<polyline fill="#362633" points="1.8,464.8 4.7,408.1 27.4,409.2 24.4,465.8 1.8,464.8 		"/>
		<polyline fill="#362633" points="17.3,164.2 20.3,107.5 43,108.6 40,165.2 17.3,164.2 		"/>
		<polyline fill="#362633" points="367.4,130.4 288,130.4 288,113.4 367.4,113.4 		"/>
		<polyline fill="#362633" points="367.4,442.3 367.4,130.4 356,130.4 356,442.3 		"/>
		<path fill="none" stroke="#362633" stroke-width="0.96" stroke-linecap="round" stroke-miterlimit="10" d="M310.7,0"/>
		
			<line opacity="0.8" fill="none" stroke="#493648" stroke-width="0.5" stroke-linecap="round" stroke-linejoin="round" stroke-miterlimit="22.9256" x1="55.6" y1="499.1" x2="55.6" y2="567.1"/>
		
			<line opacity="0.8" fill="none" stroke="#493648" stroke-width="0.5" stroke-linecap="round" stroke-linejoin="round" stroke-miterlimit="22.9256" x1="52.7" y1="499.1" x2="52.7" y2="569.9"/>
		
			<line opacity="0.8" fill="none" stroke="#493648" stroke-width="0.5" stroke-linecap="round" stroke-linejoin="round" stroke-miterlimit="22.9256" x1="350.4" y1="572.8" x2="350.4" y2="499.1"/>
		
			<line opacity="0.8" fill="none" stroke="#493648" stroke-width="0.5" stroke-linecap="round" stroke-linejoin="round" stroke-miterlimit="22.9256" x1="347.5" y1="569.9" x2="347.5" y2="499.1"/>
		
			<line opacity="0.8" fill="none" stroke="#493648" stroke-width="0.5" stroke-linecap="round" stroke-linejoin="round" stroke-miterlimit="22.9256" x1="344.8" y1="567.1" x2="344.8" y2="499.1"/>
		
			<line opacity="0.8" fill="none" stroke="#493648" stroke-width="0.5" stroke-linecap="round" stroke-linejoin="round" stroke-miterlimit="22.9256" x1="49.8" y1="572.8" x2="350.4" y2="572.8"/>
		
			<line opacity="0.8" fill="none" stroke="#493648" stroke-width="0.5" stroke-linecap="round" stroke-linejoin="round" stroke-miterlimit="22.9256" x1="55.6" y1="567.1" x2="344.8" y2="567.1"/>
		
			<line opacity="0.8" fill="none" stroke="#493648" stroke-width="0.5" stroke-linecap="round" stroke-linejoin="round" stroke-miterlimit="22.9256" x1="52.7" y1="569.9" x2="347.5" y2="569.9"/>
		
			<polyline opacity="0.8" fill="none" stroke="#493648" stroke-width="0.5" stroke-linecap="round" stroke-linejoin="round" stroke-miterlimit="22.9256" points="
			90.7,496.2 94.1,496.2 94.1,487.7 90.7,487.7 90.7,496.2 		"/>
		
			<polyline opacity="0.8" fill="none" stroke="#493648" stroke-width="0.5" stroke-linecap="round" stroke-linejoin="round" stroke-miterlimit="22.9256" points="
			180.2,496.2 180.2,487.7 175.7,487.7 175.7,496.2 180.2,496.2 175.8,496.2 175.8,487.7 180.2,487.7 180.2,496.2 		"/>
		
			<path opacity="0.8" fill="none" stroke="#493648" stroke-width="0.5" stroke-linecap="round" stroke-linejoin="round" stroke-miterlimit="22.9256" d="
			M94,532.8c22.6,0,40.9-18.3,40.9-40.9"/>
		
			<line opacity="0.8" fill="none" stroke="#493648" stroke-width="0.5" stroke-linecap="round" stroke-linejoin="round" stroke-miterlimit="22.9256" x1="94.1" y1="492" x2="94.1" y2="532.8"/>
		
			<path opacity="0.8" fill="none" stroke="#493648" stroke-width="0.5" stroke-linecap="round" stroke-linejoin="round" stroke-miterlimit="22.9256" d="
			M134.8,491.9c0,22.6,18.3,40.9,40.9,40.9"/>
		
			<line opacity="0.8" fill="none" stroke="#493648" stroke-width="0.5" stroke-linecap="round" stroke-linejoin="round" stroke-miterlimit="22.9256" x1="175.7" y1="492" x2="175.7" y2="532.8"/>
		
			<line opacity="0.8" fill="none" stroke="#493648" stroke-width="0.5" stroke-linecap="round" stroke-linejoin="round" stroke-miterlimit="22.9256" x1="49.8" y1="572.8" x2="49.8" y2="499.1"/>
		
			<polyline opacity="0.8" fill="none" stroke="#493648" stroke-width="0.5" stroke-linecap="round" stroke-linejoin="round" stroke-miterlimit="22.9256" points="
			288,496.2 288,487.7 283.4,487.7 283.4,496.2 288,496.2 283.4,496.2 283.4,487.7 288,487.7 288,496.2 		"/>
		
			<polyline opacity="0.8" fill="none" stroke="#493648" stroke-width="0.5" stroke-linecap="round" stroke-linejoin="round" stroke-miterlimit="22.9256" points="
			197.3,496.2 197.3,487.7 201.8,487.7 201.8,496.2 197.3,496.2 201.8,496.2 201.8,487.7 197.3,487.7 197.3,496.2 		"/>
		
			<path opacity="0.8" fill="none" stroke="#493648" stroke-width="0.5" stroke-linecap="round" stroke-linejoin="round" stroke-miterlimit="22.9256" d="
			M242.5,491.9c0,22.6,18.3,40.9,40.9,40.9"/>
		
			<line opacity="0.8" fill="none" stroke="#493648" stroke-width="0.5" stroke-linecap="round" stroke-linejoin="round" stroke-miterlimit="22.9256" x1="283.4" y1="492" x2="283.4" y2="532.8"/>
		
			<path opacity="0.8" fill="none" stroke="#493648" stroke-width="0.5" stroke-linecap="round" stroke-linejoin="round" stroke-miterlimit="22.9256" d="
			M201.8,532.8c22.6,0,40.9-18.3,40.9-40.9"/>
		
			<line opacity="0.8" fill="none" stroke="#493648" stroke-width="0.5" stroke-linecap="round" stroke-linejoin="round" stroke-miterlimit="22.9256" x1="201.8" y1="492" x2="201.8" y2="532.8"/>
		
			<polyline opacity="0.8" fill="none" stroke="#493648" stroke-width="0.5" stroke-linecap="round" stroke-linejoin="round" stroke-miterlimit="22.9256" points="
			61.2,496.2 65.8,496.2 65.8,487.7 61.2,487.7 61.2,496.2 		"/>
		
			<line opacity="0.8" fill="none" stroke="#493648" stroke-width="0.5" stroke-linecap="round" stroke-linejoin="round" stroke-miterlimit="22.9256" x1="65.8" y1="487.7" x2="90.7" y2="487.7"/>
		
			<line opacity="0.8" fill="none" stroke="#493648" stroke-width="0.5" stroke-linecap="round" stroke-linejoin="round" stroke-miterlimit="22.9256" x1="90.7" y1="496.2" x2="65.8" y2="496.2"/>
		
			<line opacity="0.8" fill="none" stroke="#493648" stroke-width="0.5" stroke-linecap="round" stroke-linejoin="round" stroke-miterlimit="22.9256" x1="65.8" y1="492" x2="90.7" y2="492"/>
		<polyline fill="#362633" points="28.7,164.6 16,408.7 4.7,408.1 17.3,164.2 		"/>
		<polyline fill="#362633" points="37.2,0 31.6,108 20.3,107.5 25.8,0 		"/>
		<polyline fill="#362633" points="13.1,465.2 11.9,487.7 61.2,487.7 61.2,499.1 0,499.1 1.7,464.8 		"/>
		<polyline fill="#362633" points="344.8,459.4 344.8,487.7 288,487.7 288,499.1 350.4,499.1 350.4,459.4 		"/>
		<polyline fill="#362633" points="197.3,487.7 197.3,499.1 197.3,487.7 180.2,487.7 180.2,499.1 180.2,487.7 180.2,499.1 
			197.3,499.1 		"/>
		<path fill="#362633" d="M356,5.6V17h-45.4V5.6H356 M367.8,0L225.6,0v11.4H305v11.3h51v90.7h11.4l0.4-102V0z"/>
		<polyline fill="#362633" points="27.4,191.6 27.4,409.2 14.6,409.2 21,191.6 		"/>
		<polyline fill="#362633" points="149.8,11.4 149.8,58 142.7,58 142.7,11.4 		"/>
		<polyline fill="#362633" points="259.7,10.6 259.7,67.7 254,67.7 254,10.6 		"/>
		<g opacity="0.8">
			<polyline fill="#FFFFFF" stroke="#493648" stroke-width="0.5" stroke-miterlimit="22.9256" points="277.3,124.4 280.2,124.4 
				280.2,118.8 277.3,118.8 277.3,124.4 			"/>
			<polyline fill="#FFFFFF" stroke="#493648" stroke-width="0.5" stroke-miterlimit="22.9256" points="266,124.4 268.8,124.4 
				268.8,118.8 266,118.8 266,124.4 			"/>
		</g>
		
			<line fill="none" stroke="#362633" stroke-width="0.12" stroke-linecap="round" stroke-miterlimit="10" x1="200.6" y1="168.4" x2="200.6" y2="168.4"/>
		<polyline fill="#362633" points="191.6,487.7 191.6,161.6 202.9,161.6 202.9,167.3 197.3,167.3 197.3,487.7 		"/>
		<polyline fill="#362633" points="288,130.4 259.7,130.4 259.7,167.3 248.3,167.3 248.3,161.6 254,161.6 254,124.8 254,113.4 
			259.7,113.4 259.7,124.8 288,124.8 		"/>
		<polyline fill="#362633" points="27.7,178.4 42.6,178.4 42.6,144.6 144.1,144.6 144.1,178.4 149.8,178.4 149.8,103.2 142.7,103.2 
			142.7,136.1 48.8,136.1 48.8,103.3 37.2,103.3 37.2,22.7 30.1,22.7 		"/>
		<polyline fill="#362633" points="36.4,17 81.7,17 81.7,5.6 37,5.6 37.2,0 174.6,0 174.6,11.4 93.1,11.4 93.1,22.7 36,22.7 		"/>
		<g>
			
				<path opacity="0.8" fill="none" stroke="#493648" stroke-width="0.5" stroke-linecap="round" stroke-linejoin="round" stroke-miterlimit="22.9256" d="
				M178.6,47.2c23.8,0,43.2-19.3,43.2-43"/>
			
				<line opacity="0.8" fill="none" stroke="#493648" stroke-width="0.5" stroke-linecap="round" stroke-linejoin="round" stroke-miterlimit="22.9256" x1="178.5" y1="5.9" x2="178.5" y2="47.2"/>
			
				<polyline opacity="0.8" fill="none" stroke="#493648" stroke-width="0.5" stroke-linecap="round" stroke-linejoin="round" stroke-miterlimit="22.9256" points="
				174.6,7.5 178.5,7.5 178.5,1 174.6,1 174.6,7.5 			"/>
			
				<polyline opacity="0.8" fill="none" stroke="#493648" stroke-width="0.5" stroke-linecap="round" stroke-linejoin="round" stroke-miterlimit="22.9256" points="
				221.7,7.5 225.6,7.5 225.6,1 221.7,1 221.7,7.5 			"/>
		</g>
		<g>
			
				<path opacity="0.8" fill="none" stroke="#493648" stroke-width="0.5" stroke-linecap="round" stroke-linejoin="round" stroke-miterlimit="22.9256" d="
				M183.8,99.8c0-21.2-17.2-38.4-38.3-38.4"/>
			
				<line opacity="0.8" fill="none" stroke="#493648" stroke-width="0.5" stroke-linecap="round" stroke-linejoin="round" stroke-miterlimit="22.9256" x1="147" y1="99.9" x2="183.8" y2="99.9"/>
			
				<polyline opacity="0.8" fill="none" stroke="#493648" stroke-width="0.5" stroke-linecap="round" stroke-linejoin="round" stroke-miterlimit="22.9256" points="
				148.4,103.4 148.4,99.9 142.7,99.9 142.7,103.4 148.4,103.4 			"/>
			
				<polyline opacity="0.8" fill="none" stroke="#493648" stroke-width="0.5" stroke-linecap="round" stroke-linejoin="round" stroke-miterlimit="22.9256" points="
				148.4,61.5 148.4,58 142.7,58 142.7,61.5 148.4,61.5 			"/>
		</g>
		<g>
			
				<path opacity="0.8" fill="none" stroke="#493648" stroke-width="0.5" stroke-linecap="round" stroke-linejoin="round" stroke-miterlimit="22.9256" d="
				M206.5,203.2c21.2,0,38.4-17.2,38.4-38.3"/>
			
				<line opacity="0.8" fill="none" stroke="#493648" stroke-width="0.5" stroke-linecap="round" stroke-linejoin="round" stroke-miterlimit="22.9256" x1="206.5" y1="166.4" x2="206.5" y2="203.2"/>
			
				<polyline opacity="0.8" fill="none" stroke="#493648" stroke-width="0.5" stroke-linecap="round" stroke-linejoin="round" stroke-miterlimit="22.9256" points="
				203,167.8 206.5,167.8 206.5,162.1 203,162.1 203,167.8 			"/>
			
				<polyline opacity="0.8" fill="none" stroke="#493648" stroke-width="0.5" stroke-linecap="round" stroke-linejoin="round" stroke-miterlimit="22.9256" points="
				244.9,167.8 248.3,167.8 248.3,162.1 244.9,162.1 244.9,167.8 			"/>
		</g>
		<g>
			
				<path opacity="0.8" fill="none" stroke="#493648" stroke-width="0.5" stroke-linecap="round" stroke-linejoin="round" stroke-miterlimit="22.9256" d="
				M218.5,71.6c0,21.2,17.2,38.4,38.3,38.4"/>
			
				<line opacity="0.8" fill="none" stroke="#493648" stroke-width="0.5" stroke-linecap="round" stroke-linejoin="round" stroke-miterlimit="22.9256" x1="255.4" y1="71.5" x2="218.5" y2="71.5"/>
			
				<polyline opacity="0.8" fill="none" stroke="#493648" stroke-width="0.5" stroke-linecap="round" stroke-linejoin="round" stroke-miterlimit="22.9256" points="
				253.9,68 253.9,71.5 259.7,71.5 259.7,68 253.9,68 			"/>
			
				<polyline opacity="0.8" fill="none" stroke="#493648" stroke-width="0.5" stroke-linecap="round" stroke-linejoin="round" stroke-miterlimit="22.9256" points="
				253.9,109.9 253.9,113.4 259.7,113.4 259.7,109.9 253.9,109.9 			"/>
		</g>
		<g>
			
				<rect x="42.9" y="145" opacity="0.8" fill-rule="evenodd" clip-rule="evenodd" fill="#FFFFFF" stroke="#493648" stroke-width="0.5" stroke-miterlimit="22.9256" width="95.2" height="33.3"/>
			
				<rect x="50.8" y="145" opacity="0.8" fill-rule="evenodd" clip-rule="evenodd" fill="#FFFFFF" stroke="#493648" stroke-width="0.5" stroke-miterlimit="22.9256" width="17.1" height="33.4"/>
			
				<circle opacity="0.8" fill-rule="evenodd" clip-rule="evenodd" fill="#FFFFFF" stroke="#493648" stroke-width="0.5" stroke-miterlimit="22.9256" cx="59.3" cy="153.3" r="4.6"/>
			
				<circle opacity="0.8" fill-rule="evenodd" clip-rule="evenodd" fill="#FFFFFF" stroke="#493648" stroke-width="0.5" stroke-miterlimit="22.9256" cx="59.3" cy="166.1" r="4.6"/>
			<g>
				
					<rect x="105" y="145" opacity="0.8" fill-rule="evenodd" clip-rule="evenodd" fill="#FFFFFF" stroke="#493648" stroke-width="0.5" stroke-miterlimit="22.9256" width="33.1" height="33.4"/>
				
					<path opacity="0.8" fill-rule="evenodd" clip-rule="evenodd" fill="#FFFFFF" stroke="#493648" stroke-width="0.5" stroke-miterlimit="22.9256" d="
					M119.7,147.8h-9c-1.6,0-3,1.3-3,2.9v22.2c0,1.6,1.4,2.9,3,2.9h21.4c1.6,0,3-1.3,3-2.9v-22.2c0-1.6-1.3-2.9-3-2.9h-8.7H119.7z"/>
				
					<ellipse opacity="0.8" fill-rule="evenodd" clip-rule="evenodd" fill="#FFFFFF" stroke="#493648" stroke-width="0.5" stroke-miterlimit="22.9256" cx="121.4" cy="160.9" rx="1.6" ry="1.5"/>
				
					<path opacity="0.8" fill-rule="evenodd" clip-rule="evenodd" fill="#FFFFFF" stroke="#493648" stroke-width="0.5" stroke-miterlimit="22.9256" d="
					M119.7,147.8v7.3c0,0.3,0.4,0.5,0.8,0.5h2.2c0.4,0,0.8-0.2,0.8-0.5v-7.3H119.7z"/>
			</g>
			
				<line opacity="0.8" fill="#FFFFFF" stroke="#493648" stroke-width="0.5" stroke-miterlimit="22.9256" x1="50.9" y1="175.1" x2="67.8" y2="175.1"/>
			
				<rect x="138.1" y="144.9" opacity="0.8" fill-rule="evenodd" clip-rule="evenodd" fill="#FFFFFF" stroke="#493648" stroke-width="0.5" stroke-miterlimit="22.9256" width="5.7" height="33.5"/>
		</g>
		<g>
			
				<rect x="60.6" y="449.5" opacity="0.8" fill-rule="evenodd" clip-rule="evenodd" fill="#FFFFFF" stroke="#493648" stroke-width="0.5" stroke-miterlimit="22.9256" width="1.9" height="30.5"/>
			
				<rect x="29.1" y="449.5" opacity="0.8" fill-rule="evenodd" clip-rule="evenodd" fill="#FFFFFF" stroke="#493648" stroke-width="0.5" stroke-miterlimit="22.9256" width="31.5" height="30.5"/>
			
				<line opacity="0.8" fill-rule="evenodd" clip-rule="evenodd" fill="#FFFFFF" stroke="#493648" stroke-width="0.5" stroke-miterlimit="22.9256" x1="42.6" y1="456.7" x2="48.8" y2="456.6"/>
			
				<line opacity="0.8" fill-rule="evenodd" clip-rule="evenodd" fill="#FFFFFF" stroke="#493648" stroke-width="0.5" stroke-miterlimit="22.9256" x1="43.6" y1="458.9" x2="47.8" y2="454.4"/>
			
				<line opacity="0.8" fill-rule="evenodd" clip-rule="evenodd" fill="#FFFFFF" stroke="#493648" stroke-width="0.5" stroke-miterlimit="22.9256" x1="45.4" y1="459.7" x2="45.5" y2="453.6"/>
			
				<line opacity="0.8" fill-rule="evenodd" clip-rule="evenodd" fill="#FFFFFF" stroke="#493648" stroke-width="0.5" stroke-miterlimit="22.9256" x1="48" y1="458.7" x2="43.4" y2="454.6"/>
			
				<line opacity="0.8" fill-rule="evenodd" clip-rule="evenodd" fill="#FFFFFF" stroke="#493648" stroke-width="0.5" stroke-miterlimit="22.9256" x1="42.6" y1="464.9" x2="48.8" y2="464.8"/>
			
				<line opacity="0.8" fill-rule="evenodd" clip-rule="evenodd" fill="#FFFFFF" stroke="#493648" stroke-width="0.5" stroke-miterlimit="22.9256" x1="43.6" y1="467.1" x2="47.8" y2="462.6"/>
			
				<line opacity="0.8" fill-rule="evenodd" clip-rule="evenodd" fill="#FFFFFF" stroke="#493648" stroke-width="0.5" stroke-miterlimit="22.9256" x1="45.7" y1="467.9" x2="45.7" y2="461.7"/>
			
				<line opacity="0.8" fill-rule="evenodd" clip-rule="evenodd" fill="#FFFFFF" stroke="#493648" stroke-width="0.5" stroke-miterlimit="22.9256" x1="47.7" y1="466.9" x2="43.2" y2="462.8"/>
			
				<line opacity="0.8" fill-rule="evenodd" clip-rule="evenodd" fill="#FFFFFF" stroke="#493648" stroke-width="0.5" stroke-miterlimit="22.9256" x1="42.6" y1="472.9" x2="48.8" y2="472.9"/>
			
				<line opacity="0.8" fill-rule="evenodd" clip-rule="evenodd" fill="#FFFFFF" stroke="#493648" stroke-width="0.5" stroke-miterlimit="22.9256" x1="43.6" y1="475.2" x2="47.8" y2="470.6"/>
			
				<line opacity="0.8" fill-rule="evenodd" clip-rule="evenodd" fill="#FFFFFF" stroke="#493648" stroke-width="0.5" stroke-miterlimit="22.9256" x1="45.7" y1="476" x2="45.7" y2="469.8"/>
			
				<line opacity="0.8" fill-rule="evenodd" clip-rule="evenodd" fill="#FFFFFF" stroke="#493648" stroke-width="0.5" stroke-miterlimit="22.9256" x1="47.7" y1="475" x2="43.2" y2="470.8"/>
		</g>
		<g>
			<g>
				
					<polygon opacity="0.8" fill-rule="evenodd" clip-rule="evenodd" fill="#FFFFFF" stroke="#493648" stroke-width="0.5" stroke-miterlimit="22.9256" points="
					144.4,247.2 129.9,246.3 129.9,269.7 144.2,268.7 				"/>
				
					<rect x="144.3" y="245.5" opacity="0.8" fill-rule="evenodd" clip-rule="evenodd" fill="#FFFFFF" stroke="#493648" stroke-width="0.5" stroke-miterlimit="22.9256" width="5.2" height="24.4"/>
			</g>
			<g>
				
					<polygon opacity="0.8" fill-rule="evenodd" clip-rule="evenodd" fill="#FFFFFF" stroke="#493648" stroke-width="0.5" stroke-miterlimit="22.9256" points="
					68.2,289.9 69.1,275.5 45.7,275.5 46.8,289.8 				"/>
				
					<rect x="45.4" y="289.9" opacity="0.8" fill-rule="evenodd" clip-rule="evenodd" fill="#FFFFFF" stroke="#493648" stroke-width="0.5" stroke-miterlimit="22.9256" width="24.4" height="5.2"/>
			</g>
			<g>
				
					<polygon opacity="0.8" fill-rule="evenodd" clip-rule="evenodd" fill="#FFFFFF" stroke="#493648" stroke-width="0.5" stroke-miterlimit="22.9256" points="
					111.3,289.9 112.3,275.4 88.8,275.4 89.9,289.8 				"/>
				
					<rect x="88.6" y="289.9" opacity="0.8" fill-rule="evenodd" clip-rule="evenodd" fill="#FFFFFF" stroke="#493648" stroke-width="0.5" stroke-miterlimit="22.9256" width="24.4" height="5.2"/>
			</g>
			<g>
				
					<polygon opacity="0.8" fill-rule="evenodd" clip-rule="evenodd" fill="#FFFFFF" stroke="#493648" stroke-width="0.5" stroke-miterlimit="22.9256" points="
					68.2,226.1 69.1,240.6 45.7,240.6 46.8,226.3 				"/>
				
					<rect x="45.4" y="220.9" opacity="0.8" fill-rule="evenodd" clip-rule="evenodd" fill="#FFFFFF" stroke="#493648" stroke-width="0.5" stroke-miterlimit="22.9256" width="24.4" height="5.2"/>
			</g>
			<g>
				
					<polygon opacity="0.8" fill-rule="evenodd" clip-rule="evenodd" fill="#FFFFFF" stroke="#493648" stroke-width="0.5" stroke-miterlimit="22.9256" points="
					111.3,226.2 112.3,240.6 88.8,240.6 89.9,226.3 				"/>
				
					<rect x="88.6" y="221" opacity="0.8" fill-rule="evenodd" clip-rule="evenodd" fill="#FFFFFF" stroke="#493648" stroke-width="0.5" stroke-miterlimit="22.9256" width="24.4" height="5.2"/>
			</g>
			
				<rect x="27.8" y="240.6" opacity="0.8" fill-rule="evenodd" clip-rule="evenodd" fill="#FFFFFF" stroke="#493648" stroke-width="0.5" stroke-miterlimit="22.9256" width="102.1" height="34.8"/>
		</g>
		<g opacity="0.8">
			<g>
				
					<path fill-rule="evenodd" clip-rule="evenodd" fill="#FFFFFF" stroke="#493648" stroke-width="0.5" stroke-miterlimit="22.9256" d="
					M52,342.4h16.5c1.5,0,2.8,1.3,2.8,2.8v24.1c0,1.5-1.3,2.8-2.8,2.8H51.2h-9.9h-2.8v-2.8V357l0.2,0.1c1,0.4,3.5,1.7,4.6,2.6
					c0.3,0.3,0.7,0.3,1,0.3c0.2-0.1,0.4-0.2,0.6-0.3c0.1-0.1,0.2-0.3,0.2-0.4c0.4-2.1,2.1-6.9,2.9-8.9
					C48.6,348.6,50.7,344.4,52,342.4z"/>
				
					<path fill-rule="evenodd" clip-rule="evenodd" fill="#FFFFFF" stroke="#493648" stroke-width="0.5" stroke-miterlimit="22.9256" d="
					M51.2,372.1h17.3c1.5,0,2.8,1.3,2.8,2.8V399c0,1.5-1.3,2.8-2.8,2.8c-10,0-20,0-30,0V399v-24.1v-2.8L51.2,372.1L51.2,372.1z"/>
				
					<path fill-rule="evenodd" clip-rule="evenodd" fill="#FFFFFF" stroke="#493648" stroke-width="0.5" stroke-miterlimit="22.9256" d="
					M41.2,401.8h15.6h11.6c1.5,0,2.8,1.3,2.8,2.8v14.1v10v2.9c-5.5,0-10.9,0-16.4,0c0.1-0.4,0.2-0.8,0.3-1.1c0.3-1,1.1-3.6,1.8-4.9
					c0.2-0.4,0.2-0.8,0.1-1.1c-0.2-0.3-0.5-0.5-0.8-0.5c-2-0.1-6.6-0.9-8.6-1.4c-0.3-0.7-0.6-1.3-0.8-1.8c-0.8-1.9-2.4-6.8-2.9-8.9
					c0-0.2-0.1-0.3-0.2-0.4c-0.1-0.2-0.3-0.3-0.6-0.3c-0.4-0.1-0.7,0-1,0.3c-0.9,0.7-2.5,1.6-3.6,2.2v-8.8v-2.8H41.2z"/>
				
					<path fill-rule="evenodd" clip-rule="evenodd" fill="#FFFFFF" stroke="#493648" stroke-width="0.5" stroke-miterlimit="22.9256" d="
					M66.2,442.5H38.5h-7.7c-2,0-3.2-1.4-3.2-3.3v-7.6h0v-89.2h0c0-2.4,0-4.9,0-7.3c0.3-2.1,1.5-3.5,4.2-3.6c12.6,0,24.2,0,36.8,0
					c2-0.1,2.7,0.7,2.7,1.9v7.1c0,2-1.8,1.9-3.3,1.9H52c0.1-0.1,0.1-0.2,0.2-0.3c0.2-0.3,0.2-0.7,0.1-1c-0.2-0.4-0.5-0.6-0.9-0.7
					c-1.5-0.2-4.1-1.1-5.1-1.6c-1-0.4-3.5-1.7-4.6-2.6c-0.3-0.3-0.7-0.3-1-0.3c-0.2,0.1-0.4,0.2-0.5,0.3l0,0
					c-0.1,0.1-0.2,0.2-0.2,0.4c-0.4,2.1-2.1,6.9-2.9,8.9c-0.8,1.8-3,6.4-4.3,8.3c-0.2,0.3-0.2,0.7,0,1c0.1,0.2,0.2,0.3,0.3,0.4
					c0.2,0.1,0.4,0.2,0.6,0.3c1.3,0.2,3.6,0.9,4.9,1.5v56.5c-0.4,0.2-0.8,0.4-1,0.5c-1.3,0.5-3.7,1.4-5.1,1.6
					c-0.2,0-0.4,0.1-0.6,0.3c-0.1,0.1-0.3,0.2-0.3,0.4c-0.2,0.3-0.2,0.7,0,1c1.2,1.8,3.5,6.5,4.3,8.3c0.1,0.3,0.2,0.6,0.4,0.9
					c-0.4,1.4-1.1,3.4-1.7,4.4c-0.1,0.2-0.2,0.4-0.2,0.6c0,0.2,0,0.3,0.1,0.5c0.2,0.3,0.5,0.5,0.8,0.5c0.8,0,1.9,0.2,3.1,0.3
					c0.2,0.6,0.3,1.1,0.4,1.5c0,0.1,0.1,0.3,0.2,0.4l0,0c0.1,0.2,0.3,0.3,0.5,0.3c0.4,0.1,0.7,0,1-0.3c0.5-0.4,1.2-0.9,2-1.3
					c0.7,0.1,1.4,0.3,1.8,0.4c2,0.5,6.8,2,8.7,2.9c0.1,0.1,0.3,0.1,0.4,0.1l0,0c0.2,0,0.4-0.1,0.6-0.2c0.3-0.2,0.4-0.6,0.4-1
					c0-1.1,0.2-2.8,0.5-4.1h13.6c2-0.1,2.7,0.7,2.7,1.9v7.1c0,2-1.8,1.9-3.3,1.9L66.2,442.5L66.2,442.5z"/>
			</g>
			
				<path fill-rule="evenodd" clip-rule="evenodd" fill="#FFFFFF" stroke="#493648" stroke-width="0.5" stroke-miterlimit="22.9256" d="
				M53.3,436.9L53.3,436.9c-0.2,0-0.3,0-0.5-0.1c-1.9-0.9-6.7-2.4-8.7-2.9c-0.4-0.1-1.1-0.2-1.8-0.4c1-0.6,2-1.1,2.6-1.3
				c1-0.4,3.5-1.4,5.1-1.6c0.4-0.1,0.8-0.3,0.9-0.7c0.2-0.3,0.2-0.7-0.1-1c-0.9-1.4-2.4-4.3-3.4-6.5c2.1,0.5,6.6,1.3,8.6,1.4
				c0.4,0,0.7,0.2,0.8,0.5c0.2,0.3,0.1,0.8-0.1,1.1c-0.8,1.3-1.6,3.9-1.8,4.9c-0.3,1-0.8,3.7-0.8,5.2c0,0.4-0.1,0.7-0.4,1
				C53.8,436.8,53.5,436.8,53.3,436.9L53.3,436.9z M38.2,432.8c-1.2-0.2-2.3-0.3-3.1-0.3c-0.4,0-0.7-0.2-0.8-0.5
				c-0.1-0.2-0.1-0.3-0.1-0.5c0-0.2,0.1-0.4,0.2-0.6c0.6-1,1.3-3,1.7-4.4C36.8,428.1,37.7,430.8,38.2,432.8z"/>
			
				<path fill-rule="evenodd" clip-rule="evenodd" fill="#FFFFFF" stroke="#493648" stroke-width="0.5" stroke-miterlimit="22.9256" d="
				M40,336.3L40,336.3c-0.1,0.1-0.2,0.3-0.2,0.4c-0.4,2.1-2.1,6.9-2.9,8.9c-0.8,1.8-3,6.4-4.3,8.3c-0.2,0.3-0.2,0.7,0,1
				c0.1,0.2,0.2,0.3,0.3,0.4c0.2,0.1,0.4,0.2,0.6,0.3c1.4,0.2,3.8,1,5.1,1.6c1,0.4,3.5,1.7,4.6,2.6c0.3,0.3,0.7,0.3,1,0.3
				c0.2-0.1,0.4-0.2,0.6-0.3c0.1-0.1,0.2-0.3,0.2-0.4c0.4-2.1,2.1-6.9,2.9-8.9c0.8-1.8,3-6.4,4.2-8.2c0.2-0.3,0.2-0.7,0.1-1
				c-0.2-0.4-0.5-0.6-0.9-0.7c-1.5-0.2-4.1-1.1-5.1-1.6c-1-0.4-3.5-1.7-4.6-2.6c-0.3-0.3-0.7-0.3-1-0.3
				C40.3,336,40.2,336.1,40,336.3z"/>
			
				<path fill-rule="evenodd" clip-rule="evenodd" fill="#FFFFFF" stroke="#493648" stroke-width="0.5" stroke-miterlimit="22.9256" d="
				M38.8,434.7L38.8,434.7c-0.1-0.1-0.2-0.3-0.2-0.4c-0.4-2.1-2.1-6.9-2.9-8.9c-0.8-1.8-3-6.4-4.3-8.3c-0.2-0.3-0.2-0.7,0-1
				c0.1-0.2,0.2-0.3,0.3-0.4c0.2-0.1,0.4-0.2,0.6-0.3c1.4-0.2,3.8-1,5.1-1.6c1-0.4,3.5-1.7,4.6-2.6c0.3-0.3,0.7-0.3,1-0.3
				c0.2,0.1,0.4,0.2,0.6,0.3c0.1,0.1,0.2,0.3,0.2,0.4c0.4,2.1,2.1,6.9,2.9,8.9c0.8,1.8,3,6.4,4.2,8.2c0.2,0.3,0.2,0.7,0.1,1
				c-0.2,0.4-0.5,0.6-0.9,0.7c-1.5,0.2-4.1,1.1-5.1,1.6c-1,0.4-3.5,1.7-4.6,2.6c-0.3,0.3-0.7,0.3-1,0.3
				C39.1,435,39,434.9,38.8,434.7z"/>
		</g>
		<g opacity="0.8">
			
				<path fill-rule="evenodd" clip-rule="evenodd" fill="#FFFFFF" stroke="#493648" stroke-width="0.5" stroke-miterlimit="22.9256" d="
				M188.3,398.6c1-0.8,1.9-1.7,2-3.3l0-7.3c-0.1-1.6,0-3.2-2.8-4.8v15.8C187.7,398.9,188,398.8,188.3,398.6z"/>
			
				<rect x="182.2" y="364.3" fill-rule="evenodd" clip-rule="evenodd" fill="#FFFFFF" stroke="#493648" stroke-width="0.5" stroke-miterlimit="22.9256" width="3.3" height="53.9"/>
			
				<polygon fill-rule="evenodd" clip-rule="evenodd" fill="#FFFFFF" stroke="#493648" stroke-width="0.5" stroke-miterlimit="22.9256" points="
				185.5,412.3 187.5,404.6 187.5,377.2 185.5,370.1 			"/>
		</g>
		<g opacity="0.8">
			
				<path fill-rule="evenodd" clip-rule="evenodd" fill="#FFFFFF" stroke="#493648" stroke-width="0.5" stroke-miterlimit="22.9256" d="
				M200.6,355.5c-1,0.8-1.9,1.7-2,3.3l0,7.3c0.1,1.6,0,3.2,2.8,4.8v-15.8C201.2,355.2,200.9,355.4,200.6,355.5z"/>
			
				<rect x="203.3" y="336" fill-rule="evenodd" clip-rule="evenodd" fill="#FFFFFF" stroke="#493648" stroke-width="0.5" stroke-miterlimit="22.9256" width="3.3" height="53.9"/>
			
				<polygon fill-rule="evenodd" clip-rule="evenodd" fill="#FFFFFF" stroke="#493648" stroke-width="0.5" stroke-miterlimit="22.9256" points="
				203.3,341.9 201.4,349.5 201.4,376.9 203.3,384 			"/>
		</g>
		<g>
			
				<rect x="48.9" y="107.7" opacity="0.8" fill-rule="evenodd" clip-rule="evenodd" fill="#FFFFFF" stroke="#493648" stroke-width="0.5" stroke-miterlimit="22.9256" width="93.4" height="28.2"/>
			
				<line opacity="0.8" fill-rule="evenodd" clip-rule="evenodd" fill="#FFFFFF" stroke="#493648" stroke-width="0.5" stroke-miterlimit="22.9256" x1="85" y1="132.1" x2="142.3" y2="132.1"/>
			<g>
				
					<path opacity="0.8" fill-rule="evenodd" clip-rule="evenodd" fill="#FFFFFF" stroke="#493648" stroke-width="0.5" stroke-miterlimit="22.9256" d="
					M116,127.6c7.9-0.4,13.6-4.1,13.6-8.6c0-4.8-7-8.6-15.6-8.6c-8.6,0-15.6,3.9-15.6,8.6c0,4.5,5.7,8.2,13.6,8.6"/>
				
					<path opacity="0.8" fill-rule="evenodd" clip-rule="evenodd" fill="#FFFFFF" stroke="#493648" stroke-width="0.5" stroke-miterlimit="22.9256" d="
					M116,132.1v-7.8c0-0.3-0.4-0.5-0.8-0.5h-2.3c-0.5,0-0.8,0.2-0.8,0.5v7.8H116z"/>
			</g>
			<g>
				
					<rect x="56.8" y="107.7" opacity="0.8" fill-rule="evenodd" clip-rule="evenodd" fill="#FFFFFF" stroke="#493648" stroke-width="0.5" stroke-miterlimit="22.9256" width="28.2" height="28.2"/>
				
					<path opacity="0.8" fill-rule="evenodd" clip-rule="evenodd" fill="#FFFFFF" stroke="#493648" stroke-width="0.5" stroke-miterlimit="22.9256" d="
					M59,135.9c0-0.9,0-1.9,0-2.8c0.1-0.7,0.4-1.2,1.1-1.3c2.7,0,5.5,0,8.2,0c0.5,0.1,1.4-0.1,1.5,1.2v3H59z"/>
				
					<path opacity="0.8" fill-rule="evenodd" clip-rule="evenodd" fill="#FFFFFF" stroke="#493648" stroke-width="0.5" stroke-miterlimit="22.9256" d="
					M77.7,124.9h1.4c0.7,0,1.3-0.6,1.3-1.3V120c0-0.7-0.6-1.3-1.3-1.3h-1.4c0.4,1,0.7,2,0.7,3.1C78.4,122.9,78.2,124,77.7,124.9z"/>
				<g>
					
						<ellipse opacity="0.8" fill-rule="evenodd" clip-rule="evenodd" fill="#FFFFFF" stroke="#493648" stroke-width="0.5" stroke-miterlimit="22.9256" cx="70.9" cy="121.8" rx="7.6" ry="7.5"/>
					
						<ellipse opacity="0.8" fill-rule="evenodd" clip-rule="evenodd" fill="#FFFFFF" stroke="#493648" stroke-width="0.5" stroke-miterlimit="22.9256" cx="70.9" cy="121.8" rx="5.6" ry="5.6"/>
				</g>
				
					<ellipse opacity="0.8" fill-rule="evenodd" clip-rule="evenodd" fill="#FFFFFF" stroke="#493648" stroke-width="0.5" stroke-miterlimit="22.9256" cx="80.4" cy="132.3" rx="1.7" ry="1.7"/>
			</g>
		</g>
		<g>
			
				<rect x="107" y="22.3" opacity="0.8" fill-rule="evenodd" clip-rule="evenodd" fill="#FFFFFF" stroke="#493648" stroke-width="0.5" stroke-miterlimit="22.9256" width="20.9" height="2.5"/>
			
				<path opacity="0.8" fill-rule="evenodd" clip-rule="evenodd" fill="#FFFFFF" stroke="#493648" stroke-width="0.5" stroke-miterlimit="22.9256" d="
				M117.5,50.7c-6.5,0-11.8-7.7-11.8-17.2c0-3.2,0.6-6.2,1.6-8.7h20.4c1,2.6,1.6,5.5,1.6,8.7C129.3,43,124,50.7,117.5,50.7z"/>
		</g>
		<g>
			
				<path opacity="0.8" fill-rule="evenodd" clip-rule="evenodd" fill="#FFFFFF" stroke="#493648" stroke-width="0.5" stroke-miterlimit="22.9256" d="
				M37.2,22.3H83v22.7c0,12.5-10.2,22.7-22.7,22.7H37.2V22.3z"/>
			
				<path opacity="0.8" fill-rule="evenodd" clip-rule="evenodd" fill="#FFFFFF" stroke="#493648" stroke-width="0.5" stroke-miterlimit="22.9256" d="
				M40.4,25.5h39.4v19.4c0,10.7-8.8,19.4-19.5,19.4H40.4V25.5z"/>
			
				<circle opacity="0.8" fill-rule="evenodd" clip-rule="evenodd" fill="#FFFFFF" stroke="#493648" stroke-width="0.5" stroke-miterlimit="22.9256" cx="47.6" cy="32.7" r="2.3"/>
		</g>
		
			<rect x="93.4" y="11" fill-rule="evenodd" clip-rule="evenodd" fill="#FFFFFF" stroke="#493648" stroke-width="0.5" stroke-miterlimit="22.9256" width="48.9" height="11.3"/>
		<polyline opacity="0.8" fill="#FFFFFF" stroke="#493648" stroke-width="0.5" stroke-miterlimit="22.9256" points="351.8,442.4 
			351.8,283.7 356.4,283.7 356.4,442.4 351.8,442.4 		"/>
		<g>
			
				<rect x="332" y="414.9" opacity="0.8" fill-rule="evenodd" clip-rule="evenodd" fill="#FFFFFF" stroke="#493648" stroke-width="0.5" stroke-miterlimit="22.9256" width="19.9" height="24.7"/>
			
				<rect x="332" y="286.5" opacity="0.8" fill-rule="evenodd" clip-rule="evenodd" fill="#FFFFFF" stroke="#493648" stroke-width="0.5" stroke-miterlimit="22.9256" width="19.9" height="24.7"/>
			<g>
				
					<rect x="240.6" y="314.1" opacity="0.8" fill-rule="evenodd" clip-rule="evenodd" fill="#FFFFFF" stroke="#493648" stroke-width="0.5" stroke-miterlimit="22.9256" width="111.3" height="97.9"/>
				
					<polyline opacity="0.8" fill-rule="evenodd" clip-rule="evenodd" fill="#FFFFFF" stroke="#493648" stroke-width="0.5" stroke-miterlimit="22.9256" points="
					314.4,318.3 347.5,318.3 347.5,407.9 314.5,407.9 				"/>
				
					<path opacity="0.8" fill-rule="evenodd" clip-rule="evenodd" fill="#FFFFFF" stroke="#493648" stroke-width="0.5" stroke-miterlimit="22.9256" d="
					M326.5,359.8c0.4,0.1,0.8,0.1,1.3,0.2c1.2,0.2,2.6,0.5,4.5,0.5c1.8,0,3.3-0.3,4.5-0.5c1.2-0.3,2.1-0.4,2.9-0.2
					c0.1,0.1,0.3,0.1,0.4,0.2c0.9,0.4,2,0.8,2.8,0c0.4-0.4,0.7-1,0.7-1.6c0-0.7-0.2-1.3-0.4-2c-0.1-0.3-0.2-0.5-0.3-0.8
					c-0.2-0.8-0.3-1.8-0.3-3.2c0-1.2,0.1-2.5,0.2-3.9c0.3-4.2,0.3-8.8,0-13c-0.1-1.4-0.2-2.7-0.2-3.9c0-1.3,0.1-2.3,0.3-3.2
					c0.1-0.3,0.2-0.5,0.3-0.8c0.2-0.6,0.4-1.3,0.4-2c0-0.7-0.2-1.2-0.7-1.6c-0.8-0.8-1.9-0.4-2.8,0c-0.2,0.1-0.3,0.1-0.4,0.2
					c-0.7,0.3-1.6,0.1-2.9-0.2c-1.2-0.2-2.6-0.5-4.5-0.5c-1.8,0-3.3,0.3-4.5,0.5c-1.2,0.3-2.1,0.4-2.9,0.2c-0.1-0.1-0.3-0.1-0.4-0.2
					c-0.9-0.4-2-0.8-2.8,0c-0.4,0.4-0.7,1-0.7,1.6v0c0,0.7,0.2,1.3,0.4,2c0.1,0.3,0.2,0.5,0.3,0.8c0.2,0.8,0.3,1.8,0.3,3.2
					c0,1.2-0.1,2.5-0.2,3.9l0,0"/>
				
					<path opacity="0.8" fill-rule="evenodd" clip-rule="evenodd" fill="#FFFFFF" stroke="#493648" stroke-width="0.5" stroke-miterlimit="22.9256" d="
					M321.9,390.6c0.1,1.4,0.2,2.7,0.2,3.8c0,1.3-0.1,2.3-0.3,3.2c-0.1,0.3-0.2,0.5-0.3,0.8c-0.2,0.6-0.4,1.3-0.4,2v0
					c0,0.7,0.2,1.2,0.7,1.6c0.8,0.8,1.9,0.4,2.8,0c0.2-0.1,0.3-0.1,0.4-0.2c0.7-0.3,1.6-0.1,2.9,0.2c1.2,0.2,2.6,0.5,4.5,0.5
					c1.8,0,3.3-0.3,4.5-0.5c1.2-0.3,2.1-0.4,2.9-0.2c0.1,0.1,0.3,0.1,0.4,0.2c0.9,0.4,2,0.8,2.8,0c0.4-0.4,0.7-1,0.7-1.6
					c0-0.7-0.2-1.3-0.4-2c-0.1-0.3-0.2-0.5-0.3-0.8c-0.2-0.8-0.3-1.8-0.3-3.2c0-1.2,0.1-2.5,0.2-3.9c0.3-4.2,0.3-8.8,0-13
					c-0.1-1.4-0.2-2.7-0.2-3.9c0-1.3,0.1-2.3,0.3-3.2c0.1-0.3,0.2-0.5,0.3-0.8c0.2-0.6,0.4-1.3,0.4-2c0-0.7-0.2-1.2-0.7-1.6
					c-0.8-0.8-1.9-0.4-2.8,0c-0.2,0.1-0.3,0.1-0.4,0.2c-0.7,0.3-1.6,0.1-2.9-0.2c-1.2-0.2-2.6-0.5-4.5-0.5c-1.8,0-3.3,0.3-4.5,0.5
					c-0.5,0.1-0.9,0.2-1.3,0.2"/>
				
					<polygon opacity="0.8" fill-rule="evenodd" clip-rule="evenodd" fill="#FFFFFF" stroke="#493648" stroke-width="0.5" stroke-miterlimit="22.9256" points="
					312.7,412 326.5,379.8 326.5,360.8 326.5,346.4 312.7,314.3 240.6,314.1 240.6,412 				"/>
				
					<polyline opacity="0.8" fill-rule="evenodd" clip-rule="evenodd" fill="#FFFFFF" stroke="#493648" stroke-width="0.5" stroke-miterlimit="22.9256" points="
					312.7,314.3 305.9,328.5 326.5,346.4 				"/>
				
					<polyline opacity="0.8" fill-rule="evenodd" clip-rule="evenodd" fill="#FFFFFF" stroke="#493648" stroke-width="0.5" stroke-miterlimit="22.9256" points="
					312.7,411.9 305.9,397.7 326.5,379.8 				"/>
			</g>
		</g>
		<g opacity="0.8">
			<g>
				
					<path fill-rule="evenodd" clip-rule="evenodd" fill="#FFFFFF" stroke="#493648" stroke-width="0.5" stroke-miterlimit="22.9256" d="
					M316.9,254.7c-1,0.7-1.8,1.2-2.2,1.5l-8.9,5.9l-12.2-17.7l8.6-5.8l8.5-5.9c1.1-0.7,3.7,1.2,6.2,4.1"/>
				
					<path fill-rule="evenodd" clip-rule="evenodd" fill="#FFFFFF" stroke="#493648" stroke-width="0.5" stroke-miterlimit="22.9256" d="
					M309,260.1l8-5.5v5.1l-6.1,4.2c-2.8,1.9-6.9,0.6-9.3-2.8c-2.8-4.1-5.6-8.1-8.4-12.2c-2.1-3.1-2.1-6.9-0.1-9l10.3-7.4
					c1.9-1.4,4.6,1.8,2.4,3.4l-9.2,6.3c-2.2,1.5-0.8,3.4,0.4,5.2c0.2,0.3,0.4,0.5,0.5,0.8c2.1,3,4.1,6,6.2,8.9
					c0.2,0.3,0.4,0.5,0.5,0.8C305.7,260,306.8,261.7,309,260.1z"/>
				
					<path fill-rule="evenodd" clip-rule="evenodd" fill="#FFFFFF" stroke="#493648" stroke-width="0.5" stroke-miterlimit="22.9256" d="
					M308.3,260.5c1.2-0.4,3.3,1.2,2.8,3.3"/>
				
					<path fill-rule="evenodd" clip-rule="evenodd" fill="#FFFFFF" stroke="#493648" stroke-width="0.5" stroke-miterlimit="22.9256" d="
					M293.7,239.6c1-0.3,3,1.1,2.7,3.1"/>
			</g>
			
				<rect x="316.9" y="200.1" fill-rule="evenodd" clip-rule="evenodd" fill="#FFFFFF" stroke="#493648" stroke-width="0.5" stroke-miterlimit="22.9256" width="38.9" height="83"/>
			<g>
				
					<path fill-rule="evenodd" clip-rule="evenodd" fill="#FFFFFF" stroke="#493648" stroke-width="0.5" stroke-miterlimit="22.9256" d="
					M323.6,224l7.8,19.5c0.2,0.6,0.9,0.9,1.5,0.7l12.2-4.9l-8.7-21.7l-12.2,4.9C323.7,222.7,323.4,223.4,323.6,224z"/>
				
					<path fill-rule="evenodd" clip-rule="evenodd" fill="#FFFFFF" stroke="#493648" stroke-width="0.5" stroke-miterlimit="22.9256" d="
					M336.4,217.6l8.7,21.7l2.5,0.1c0.7-0.3,1-1,0.7-1.7l-8.5-21.3c-0.3-0.7-1-1-1.7-0.7L336.4,217.6z"/>
				
					<polygon fill-rule="evenodd" clip-rule="evenodd" fill="#FFFFFF" stroke="#493648" stroke-width="0.5" stroke-miterlimit="22.9256" points="
					329.7,229.8 332,235.4 330.7,235.9 330.1,236.1 327.9,230.5 				"/>
				
					<polygon fill-rule="evenodd" clip-rule="evenodd" fill="#FFFFFF" stroke="#493648" stroke-width="0.5" stroke-miterlimit="22.9256" points="
					335.3,220.5 342.4,238.3 338.4,239.9 335.8,240.9 328.7,223.1 				"/>
			</g>
			<g>
				
					<polygon fill-rule="evenodd" clip-rule="evenodd" fill="#FFFFFF" stroke="#493648" stroke-width="0.5" stroke-miterlimit="22.9256" points="
					341,267.1 335.7,274.4 325.7,267.2 330.9,259.9 333.6,261.8 334.4,266 338.3,265.2 				"/>
				
					<polygon fill-rule="evenodd" clip-rule="evenodd" fill="#FFFFFF" stroke="#493648" stroke-width="0.5" stroke-miterlimit="22.9256" points="
					345.9,260.5 346.5,263.6 334.4,266 332.7,257.2 335.1,256.7 337.1,263.2 				"/>
				
					<rect x="337.2" y="250.9" transform="matrix(-0.2904 -0.9569 0.9569 -0.2904 194.8811 658.7575)" fill-rule="evenodd" clip-rule="evenodd" fill="#FFFFFF" stroke="#493648" stroke-width="0.5" stroke-miterlimit="22.9256" width="9" height="12.4"/>
				<g>
					
						<line fill-rule="evenodd" clip-rule="evenodd" fill="#FFFFFF" stroke="#493648" stroke-width="0.5" stroke-miterlimit="22.9256" x1="342.4" y1="259.3" x2="341" y2="255"/>
					
						<line fill-rule="evenodd" clip-rule="evenodd" fill="#FFFFFF" stroke="#493648" stroke-width="0.5" stroke-miterlimit="22.9256" x1="344.5" y1="258.6" x2="343.2" y2="254.3"/>
					
						<line fill-rule="evenodd" clip-rule="evenodd" fill="#FFFFFF" stroke="#493648" stroke-width="0.5" stroke-miterlimit="22.9256" x1="340.2" y1="259.9" x2="338.9" y2="255.6"/>
				</g>
			</g>
		</g>
		<g opacity="0.8">
			
				<rect x="259.7" y="154.6" fill-rule="evenodd" clip-rule="evenodd" fill="#FFFFFF" stroke="#493648" stroke-width="0.5" stroke-miterlimit="22.9256" width="32.1" height="2.8"/>
			
				<rect x="259.7" y="130.4" fill-rule="evenodd" clip-rule="evenodd" fill="#FFFFFF" stroke="#493648" stroke-width="0.5" stroke-miterlimit="22.9256" width="96.2" height="24.1"/>
			
				<rect x="291.7" y="154.6" fill-rule="evenodd" clip-rule="evenodd" fill="#FFFFFF" stroke="#493648" stroke-width="0.5" stroke-miterlimit="22.9256" width="32.1" height="2.8"/>
			
				<rect x="323.8" y="154.6" fill-rule="evenodd" clip-rule="evenodd" fill="#FFFFFF" stroke="#493648" stroke-width="0.5" stroke-miterlimit="22.9256" width="32.1" height="2.8"/>
			
				<path fill-rule="evenodd" clip-rule="evenodd" fill="#FFFFFF" stroke="#493648" stroke-width="0.5" stroke-miterlimit="22.9256" d="
				M315.7,148.9c-5.5,0-11,0-16.5,0c-1.5-0.1-1.8-1.6-0.8-2.3l7.2-4.8c2.7-1.8-1.1-1.3-0.8-3.8c0.2-1.2,1.2-2.1,2.9-2
				c0.6-0.1,2.1,0.7,2,2.2c-0.1,0.5-0.7,0.9-1.2,0.2c-0.2-1.3-1-1.4-1.7-1.2c-0.6,0.2-0.9,0.8-0.8,1.5c0.5,0.9,1.2,0.8,1.8,1.3
				c0.1,0.2,0.1,0.5,0,1l8.4,5.5C317.5,147.6,317,148.7,315.7,148.9z"/>
			
				<path fill-rule="evenodd" clip-rule="evenodd" fill="#FFFFFF" stroke="#493648" stroke-width="0.5" stroke-miterlimit="22.9256" d="
				M314.8,147.7c-5,0-9.7,0-14.6,0c-0.5,0-0.9-0.2-0.5-0.6l7.1-4.4c0.4-0.3,0.7-0.3,1.1,0l7.4,4.3
				C315.5,147.3,315.3,147.7,314.8,147.7z"/>
			
				<path fill-rule="evenodd" clip-rule="evenodd" fill="#FFFFFF" stroke="#493648" stroke-width="0.5" stroke-miterlimit="22.9256" d="
				M284,148.9c-5.5,0-11,0-16.5,0c-1.5-0.1-1.8-1.6-0.8-2.3l7.2-4.8c2.7-1.8-1.1-1.3-0.8-3.8c0.2-1.2,1.2-2.1,2.9-2
				c0.6-0.1,2.1,0.7,2,2.2c-0.1,0.5-0.7,0.9-1.2,0.2c-0.2-1.3-1-1.4-1.7-1.2c-0.6,0.2-0.9,0.8-0.8,1.5c0.5,0.9,1.2,0.8,1.8,1.3
				c0.1,0.2,0.1,0.5,0,1l8.4,5.5C285.8,147.6,285.3,148.7,284,148.9z"/>
			
				<path fill-rule="evenodd" clip-rule="evenodd" fill="#FFFFFF" stroke="#493648" stroke-width="0.5" stroke-miterlimit="22.9256" d="
				M283.1,147.7c-5,0-9.7,0-14.6,0c-0.5,0-0.9-0.2-0.5-0.6l7.1-4.4c0.4-0.3,0.7-0.3,1.1,0l7.4,4.3
				C283.8,147.3,283.6,147.7,283.1,147.7z"/>
			
				<path fill-rule="evenodd" clip-rule="evenodd" fill="#FFFFFF" stroke="#493648" stroke-width="0.5" stroke-miterlimit="22.9256" d="
				M348.6,148.9c-5.5,0-11,0-16.5,0c-1.5-0.1-1.8-1.6-0.8-2.3l7.2-4.8c2.7-1.8-1.1-1.3-0.8-3.8c0.2-1.2,1.2-2.1,2.9-2
				c0.6-0.1,2.1,0.7,2,2.2c-0.1,0.5-0.7,0.9-1.2,0.2c-0.2-1.3-1-1.4-1.7-1.2c-0.6,0.2-0.9,0.8-0.8,1.5c0.5,0.9,1.2,0.8,1.8,1.3
				c0.1,0.2,0.1,0.5,0,1l8.4,5.5C350.4,147.6,349.9,148.7,348.6,148.9z"/>
			
				<path opacity="0.8" fill-rule="evenodd" clip-rule="evenodd" fill="#FFFFFF" stroke="#493648" stroke-width="0.5" stroke-miterlimit="22.9256" d="
				M347.7,147.7c-5,0-9.7,0-14.6,0c-0.5,0-0.9-0.2-0.5-0.6l7.1-4.4c0.4-0.3,0.7-0.3,1.1,0l7.4,4.3
				C348.4,147.3,348.2,147.7,347.7,147.7z"/>
		</g>
		<g opacity="0.8">
			
				<rect x="329.1" y="23.1" fill-rule="evenodd" clip-rule="evenodd" fill="#FFFFFF" stroke="#493648" stroke-width="0.5" stroke-miterlimit="22.9256" width="2.8" height="29.1"/>
			
				<rect x="331.9" y="23.1" fill-rule="evenodd" clip-rule="evenodd" fill="#FFFFFF" stroke="#493648" stroke-width="0.5" stroke-miterlimit="22.9256" width="24.1" height="90.2"/>
			
				<rect x="329.1" y="52.1" fill-rule="evenodd" clip-rule="evenodd" fill="#FFFFFF" stroke="#493648" stroke-width="0.5" stroke-miterlimit="22.9256" width="2.8" height="31.1"/>
			
				<rect x="329.1" y="83.2" fill-rule="evenodd" clip-rule="evenodd" fill="#FFFFFF" stroke="#493648" stroke-width="0.5" stroke-miterlimit="22.9256" width="2.8" height="30.1"/>
			
				<path fill-rule="evenodd" clip-rule="evenodd" fill="#FFFFFF" stroke="#493648" stroke-width="0.5" stroke-miterlimit="22.9256" d="
				M337.5,77.1c0-5.5,0-11,0-16.5c0.1-1.5,1.6-1.8,2.3-0.8l4.8,7.2c1.8,2.7,1.3-1.1,3.8-0.8c1.2,0.2,2.1,1.2,2,2.9
				c0.1,0.6-0.7,2.1-2.2,2c-0.5-0.1-0.9-0.7-0.2-1.2c1.3-0.2,1.4-1,1.2-1.7c-0.2-0.6-0.8-0.9-1.5-0.8c-0.9,0.5-0.8,1.2-1.3,1.8
				c-0.2,0.1-0.5,0.1-1,0l-5.5,8.4C338.8,78.9,337.8,78.4,337.5,77.1z"/>
			
				<path fill-rule="evenodd" clip-rule="evenodd" fill="#FFFFFF" stroke="#493648" stroke-width="0.5" stroke-miterlimit="22.9256" d="
				M338.7,76.2c0-5,0-9.7,0-14.6c0-0.5,0.2-0.9,0.6-0.5l4.4,7.1c0.3,0.4,0.3,0.7,0,1.1l-4.3,7.4C339.2,76.9,338.8,76.7,338.7,76.2z"
				/>
			
				<path fill-rule="evenodd" clip-rule="evenodd" fill="#FFFFFF" stroke="#493648" stroke-width="0.5" stroke-miterlimit="22.9256" d="
				M337.5,47.4c0-5.5,0-11,0-16.5c0.1-1.5,1.6-1.8,2.3-0.8l4.8,7.2c1.8,2.7,1.3-1.1,3.8-0.8c1.2,0.2,2.1,1.2,2,2.9
				c0.1,0.6-0.7,2.1-2.2,2c-0.5-0.1-0.9-0.7-0.2-1.2c1.3-0.2,1.4-1,1.2-1.7c-0.2-0.6-0.8-0.9-1.5-0.8c-0.9,0.5-0.8,1.2-1.3,1.8
				c-0.2,0.1-0.5,0.1-1,0L340,48C338.8,49.2,337.8,48.7,337.5,47.4z"/>
			
				<path fill-rule="evenodd" clip-rule="evenodd" fill="#FFFFFF" stroke="#493648" stroke-width="0.5" stroke-miterlimit="22.9256" d="
				M338.7,46.5c0-5,0-9.7,0-14.6c0-0.5,0.2-0.9,0.6-0.5l4.4,7.1c0.3,0.4,0.3,0.7,0,1.1l-4.3,7.4C339.2,47.2,338.8,47,338.7,46.5z"/>
			
				<path fill-rule="evenodd" clip-rule="evenodd" fill="#FFFFFF" stroke="#493648" stroke-width="0.5" stroke-miterlimit="22.9256" d="
				M337.5,106c0-5.5,0-11,0-16.5c0.1-1.5,1.6-1.8,2.3-0.8l4.8,7.2c1.8,2.7,1.3-1.1,3.8-0.8c1.2,0.2,2.1,1.2,2,2.9
				c0.1,0.6-0.7,2.1-2.2,2c-0.5-0.1-0.9-0.7-0.2-1.2c1.3-0.2,1.4-1,1.2-1.7c-0.2-0.6-0.8-0.9-1.5-0.8c-0.9,0.5-0.8,1.2-1.3,1.8
				c-0.2,0.1-0.5,0.1-1,0l-5.5,8.4C338.8,107.8,337.8,107.3,337.5,106z"/>
			
				<path opacity="0.8" fill-rule="evenodd" clip-rule="evenodd" fill="#FFFFFF" stroke="#493648" stroke-width="0.5" stroke-miterlimit="22.9256" d="
				M338.7,105.1c0-5,0-9.7,0-14.6c0-0.5,0.2-0.9,0.6-0.5l4.4,7.1c0.3,0.4,0.3,0.7,0,1.1l-4.3,7.4
				C339.2,105.8,338.8,105.6,338.7,105.1z"/>
		</g>
	</g>
</g>
<g id="Слой_2">
</g>
<g id="Слой_3">
</g>
<g id="Слой_4">
</g>
<g id="Слой_5">
</g>
</svg>
