<svg width="28" height="24" viewBox="0 0 28 24" fill="none" xmlns="http://www.w3.org/2000/svg">
<path d="M14.219 13.2305H2.10104C2.10104 13.2305 1.10004 13.1565 1.10004 12.2295" stroke="#362633" stroke-width="1.1" stroke-miterlimit="10"/>
<path d="M14.219 23.1631H2.62004" stroke="#362633" stroke-width="1.1" stroke-miterlimit="10"/>
<path d="M2.99104 13.2305C2.99104 13.2305 0.286041 18.9375 2.99104 23.1625" stroke="#362633" stroke-width="1.1" stroke-miterlimit="10"/>
<path d="M6.83703 13.2305C6.83703 13.2305 4.13203 18.9375 6.83703 23.1625" stroke="#362633" stroke-width="1.1" stroke-miterlimit="10"/>
<path d="M10.568 13.2305C10.568 13.2305 9.47604 18.6035 10.568 23.1625" stroke="#362633" stroke-width="1.1" stroke-miterlimit="10"/>
<path d="M14.219 13.2305V22.7545" stroke="#362633" stroke-width="1.1" stroke-miterlimit="10"/>
<path d="M14.219 13.2305H26.337C26.337 13.2305 27.338 13.1565 27.338 12.2295" stroke="#362633" stroke-width="1.1" stroke-miterlimit="10"/>
<path d="M14.219 23.1631H25.819" stroke="#362633" stroke-width="1.1" stroke-miterlimit="10"/>
<path d="M25.448 13.2305C25.448 13.2305 28.153 18.9375 25.448 23.1625" stroke="#362633" stroke-width="1.1" stroke-miterlimit="10"/>
<path d="M21.601 13.2305C21.601 13.2305 24.306 18.9375 21.601 23.1625" stroke="#362633" stroke-width="1.1" stroke-miterlimit="10"/>
<path d="M17.871 13.2305C17.871 13.2305 18.963 18.6035 17.871 23.1625" stroke="#362633" stroke-width="1.1" stroke-miterlimit="10"/>
<path d="M20.779 11.4197V1.66167V1.51367H7.66003V1.66167V11.4197" stroke="#362633" stroke-width="1.1" stroke-miterlimit="10"/>
<path d="M14.219 5.93066V11.4197" stroke="#362633" stroke-width="1.1" stroke-miterlimit="10"/>
<path d="M8.42004 5.93066H20.019" stroke="#362633" stroke-width="1.1" stroke-miterlimit="10"/>
</svg>
