<svg width="30" height="18" viewBox="0 0 30 18" fill="none" xmlns="http://www.w3.org/2000/svg">
<path d="M8.812 6.93941C8.012 7.73941 6.716 7.73941 5.916 6.93941L3.914 4.9374C3.114 4.1374 3.114 2.84141 3.914 2.04141C4.714 1.24141 6.01 1.24141 6.81 2.04141L8.812 4.04341C9.612 4.84241 9.612 6.13941 8.812 6.93941Z" stroke="#362633" stroke-width="1.1" stroke-miterlimit="10"/>
<path d="M1 2.99609V17.5211" stroke="#362633" stroke-width="1.1" stroke-miterlimit="10"/>
<path d="M28.852 7.18945V17.5214" stroke="#362633" stroke-width="1.1" stroke-miterlimit="10"/>
<path d="M25.483 9.52148V15.4255C25.483 16.0875 24.947 16.6235 24.285 16.6235H8.412C7.75 16.6235 7.214 16.0875 7.214 15.4255V9.52148H25.483Z" stroke="#362633" stroke-width="1.1" stroke-miterlimit="10"/>
<path d="M7.214 9.52148H1.524" stroke="#362633" stroke-width="1.1" stroke-miterlimit="10"/>
<path d="M25.483 9.52148H28.852" stroke="#362633" stroke-width="1.1" stroke-miterlimit="10"/>
<path d="M25.483 14.8262H28.852" stroke="#362633" stroke-width="1.1" stroke-miterlimit="10"/>
<path d="M7.214 14.8262H1.524" stroke="#362633" stroke-width="1.1" stroke-miterlimit="10"/>
</svg>
