<?xml version="1.0" encoding="utf-8"?>
<!-- Generator: Adobe Illustrator 17.1.0, SVG Export Plug-In . SVG Version: 6.00 Build 0)  -->
<!DOCTYPE svg PUBLIC "-//W3C//DTD SVG 1.1//EN" "http://www.w3.org/Graphics/SVG/1.1/DTD/svg11.dtd">
<svg version="1.1" xmlns="http://www.w3.org/2000/svg" xmlns:xlink="http://www.w3.org/1999/xlink" x="0px" y="0px"  viewBox="0 0 209.8 569.9" enable-background="new 0 0 209.8 569.9" xml:space="preserve">
<g id="Слой_1">
	<g>
		<polygon fill="#F4EFEF" points="209.8,569.9 76.6,569.9 76.6,569.2 72.5,569.2 29.4,569.2 25.5,569.2 25.4,569.9 0,569.9 0,0 
			209.8,0 209.8,552.8 209.8,564.1 		"/>
		
			<line opacity="0.8" fill="none" stroke="#493648" stroke-width="0.5" stroke-miterlimit="22.9256" x1="56.6" y1="53.8" x2="56.6" y2="102"/>
		<path opacity="0.8" fill="none" stroke="#493648" stroke-width="0.5" stroke-miterlimit="22.9256" d="M209.8,5.6"/>
		
			<line opacity="0.8" fill="none" stroke="#493648" stroke-width="0.5" stroke-miterlimit="22.9256" x1="0" y1="5.6" x2="0" y2="0"/>
		
			<line opacity="0.8" fill="none" stroke="#493648" stroke-width="0.5" stroke-miterlimit="22.9256" x1="209.8" y1="5.6" x2="209.8" y2="0"/>
		
			<line opacity="0.8" fill="none" stroke="#493648" stroke-width="0.5" stroke-miterlimit="22.9256" x1="0" y1="0" x2="209.8" y2="0"/>
		
			<line opacity="0.8" fill="none" stroke="#493648" stroke-width="0.5" stroke-miterlimit="22.9256" x1="0" y1="2.8" x2="209.8" y2="2.8"/>
		
			<line fill="none" stroke="#362633" stroke-width="0.12" stroke-linecap="round" stroke-miterlimit="10" x1="0" y1="5.6" x2="0" y2="5.6"/>
		
			<line opacity="0.8" fill="none" stroke="#493648" stroke-width="0.5" stroke-miterlimit="22.9256" x1="11.3" y1="5.6" x2="198.5" y2="5.6"/>
		
			<line opacity="0.8" fill="none" stroke="#493648" stroke-width="0.5" stroke-miterlimit="22.9256" x1="209.8" y1="5.6" x2="209.8" y2="5.6"/>
		<polyline opacity="0.8" fill="none" stroke="#493648" stroke-width="0.5" stroke-miterlimit="22.9256" points="62.4,102 
			62.4,53.8 56.6,53.8 56.6,102 		"/>
		
			<line opacity="0.8" fill="none" stroke="#493648" stroke-width="0.5" stroke-miterlimit="22.9256" x1="11.3" y1="53.8" x2="56.6" y2="53.8"/>
		
			<line opacity="0.8" fill="none" stroke="#493648" stroke-width="0.5" stroke-miterlimit="22.9256" x1="11.3" y1="59.5" x2="56.6" y2="59.5"/>
		<polyline opacity="0.8" fill="none" stroke="#493648" stroke-width="0.5" stroke-miterlimit="22.9256" points="62.4,104.9 
			65.9,104.9 65.9,113.4 62.4,113.4 62.4,104.9 		"/>
		<polyline opacity="0.8" fill="none" stroke="#493648" stroke-width="0.5" stroke-miterlimit="22.9256" points="65.9,104.9 
			62.4,104.9 62.4,113.4 65.9,113.4 65.9,104.9 		"/>
		<polyline opacity="0.8" fill="none" stroke="#493648" stroke-width="0.5" stroke-miterlimit="22.9256" points="181.4,104.9 
			178,104.9 178,113.4 181.4,113.4 181.4,104.9 		"/>
		<polyline opacity="0.8" fill="none" stroke="#493648" stroke-width="0.5" stroke-miterlimit="22.9256" points="93,104.9 93,113.4 
			96.4,113.4 96.4,104.9 93,104.9 96.4,104.9 96.4,113.4 93,113.4 93,104.9 		"/>
		<path opacity="0.8" fill="none" stroke="#493648" stroke-width="0.5" stroke-miterlimit="22.9256" d="M177.9,68.3
			c-22.6,0-40.9,18.2-40.9,40.7"/>
		
			<line opacity="0.8" fill="none" stroke="#493648" stroke-width="0.5" stroke-miterlimit="22.9256" x1="178" y1="109.1" x2="178" y2="68.3"/>
		<path opacity="0.8" fill="none" stroke="#493648" stroke-width="0.5" stroke-miterlimit="22.9256" d="M137.2,109
			c0-22.5-18.3-40.7-40.9-40.7"/>
		
			<line opacity="0.8" fill="none" stroke="#493648" stroke-width="0.5" stroke-miterlimit="22.9256" x1="96.4" y1="109.1" x2="96.4" y2="68.3"/>
		
			<line opacity="0.8" fill="none" stroke="#493648" stroke-width="0.5" stroke-miterlimit="22.9256" x1="93" y1="113.4" x2="65.9" y2="113.4"/>
		
			<line opacity="0.8" fill="none" stroke="#493648" stroke-width="0.5" stroke-miterlimit="22.9256" x1="93" y1="104.9" x2="65.9" y2="104.9"/>
		
			<line opacity="0.8" fill="none" stroke="#493648" stroke-width="0.5" stroke-miterlimit="22.9256" x1="65.9" y1="109.1" x2="93" y2="109.1"/>
		<polygon fill="#362633" points="209.8,453.6 209.8,552.8 198.5,552.8 198.5,113.4 181.4,113.4 181.4,102 198.5,102 198.5,5.6 
			209.8,5.6 209.8,102 209.8,124.7 209.8,430.9 		"/>
		<polygon fill="#362633" points="209.8,569.9 76.6,569.9 76.6,558.5 144.6,558.5 144.6,547.2 198.5,547.2 198.5,552.8 153.1,552.8 
			153.1,564.1 209.8,564.1 		"/>
		<polygon fill="#362633" points="0,5.6 11.3,5.6 11.3,102 62.4,102 62.4,113.4 11.3,113.4 11.3,558.5 25.4,558.5 25.4,569.9 
			0,569.9 0,558.5 0,558.5 0,113.4 		"/>
		<polyline fill="#362633" points="198.5,425.3 90.7,425.3 90.7,471.1 96.4,471.1 96.4,433.8 198.5,433.8 		"/>
		
			<line fill="none" stroke="#008AB8" stroke-width="0.24" stroke-linecap="round" stroke-miterlimit="10" x1="96.4" y1="460.9" x2="96.4" y2="458.4"/>
		
			<line fill="none" stroke="#008AB8" stroke-width="0.24" stroke-linecap="round" stroke-miterlimit="10" x1="96.4" y1="435.5" x2="96.4" y2="438"/>
		<g>
			
				<polyline opacity="0.8" fill="#FFFFFF" stroke="#493648" stroke-width="0.5" stroke-linecap="round" stroke-linejoin="round" stroke-miterlimit="22.9256" points="
				17.2,506.8 17.2,509.5 11.4,509.5 11.4,506.8 17.2,506.8 			"/>
			
				<polyline opacity="0.8" fill="#FFFFFF" stroke="#493648" stroke-width="0.5" stroke-linecap="round" stroke-linejoin="round" stroke-miterlimit="22.9256" points="
				17.2,495.4 17.2,498.2 11.4,498.2 11.4,495.4 17.2,495.4 			"/>
			
				<polyline opacity="0.8" fill="#FFFFFF" stroke="#493648" stroke-width="0.5" stroke-linecap="round" stroke-linejoin="round" stroke-miterlimit="22.9256" points="
				17.2,484.1 17.2,486.8 11.4,486.8 11.4,484.1 17.2,484.1 			"/>
			
				<polyline opacity="0.8" fill="#FFFFFF" stroke="#493648" stroke-width="0.5" stroke-linecap="round" stroke-linejoin="round" stroke-miterlimit="22.9256" points="
				17.2,529.4 17.2,532.2 11.4,532.2 11.4,529.4 17.2,529.4 			"/>
			
				<polyline opacity="0.8" fill="#FFFFFF" stroke="#493648" stroke-width="0.5" stroke-linecap="round" stroke-linejoin="round" stroke-miterlimit="22.9256" points="
				17.2,518 17.2,520.9 11.4,520.9 11.4,518 17.2,518 			"/>
		</g>
		<polyline fill="#362633" points="96.4,558.5 96.4,516.5 90.7,516.5 90.7,558.5 		"/>
		<polyline opacity="0.8" fill="#FFFFFF" stroke="#493648" stroke-width="0.5" stroke-miterlimit="22.9256" points="194.1,284 
			194.1,125.2 198.7,125.2 198.7,284 194.1,284 		"/>
		<g>
			<g>
				
					<polygon opacity="0.8" fill-rule="evenodd" clip-rule="evenodd" fill="#FFFFFF" stroke="#493648" stroke-width="0.5" stroke-miterlimit="22.9256" points="
					81.9,299.8 96.4,298.9 96.3,322.3 82,321.2 				"/>
				
					<rect x="76.7" y="298.1" opacity="0.8" fill-rule="evenodd" clip-rule="evenodd" fill="#FFFFFF" stroke="#493648" stroke-width="0.5" stroke-miterlimit="22.9256" width="5.2" height="24.4"/>
			</g>
			<g>
				
					<polygon opacity="0.8" fill-rule="evenodd" clip-rule="evenodd" fill="#FFFFFF" stroke="#493648" stroke-width="0.5" stroke-miterlimit="22.9256" points="
					158.1,342.5 157.1,328 180.6,328 179.5,342.4 				"/>
				
					<rect x="156.4" y="342.5" opacity="0.8" fill-rule="evenodd" clip-rule="evenodd" fill="#FFFFFF" stroke="#493648" stroke-width="0.5" stroke-miterlimit="22.9256" width="24.4" height="5.2"/>
			</g>
			<g>
				
					<polygon opacity="0.8" fill-rule="evenodd" clip-rule="evenodd" fill="#FFFFFF" stroke="#493648" stroke-width="0.5" stroke-miterlimit="22.9256" points="
					114.9,342.5 114,328 137.4,328 136.3,342.3 				"/>
				
					<rect x="113.2" y="342.4" opacity="0.8" fill-rule="evenodd" clip-rule="evenodd" fill="#FFFFFF" stroke="#493648" stroke-width="0.5" stroke-miterlimit="22.9256" width="24.4" height="5.2"/>
			</g>
			
				<rect x="96.3" y="293.2" opacity="0.8" fill-rule="evenodd" clip-rule="evenodd" fill="#FFFFFF" stroke="#493648" stroke-width="0.5" stroke-miterlimit="22.9256" width="102.1" height="34.8"/>
		</g>
		<g>
			
				<rect x="174.3" y="256.5" opacity="0.8" fill-rule="evenodd" clip-rule="evenodd" fill="#FFFFFF" stroke="#493648" stroke-width="0.5" stroke-miterlimit="22.9256" width="19.9" height="24.7"/>
			
				<rect x="174.3" y="128.1" opacity="0.8" fill-rule="evenodd" clip-rule="evenodd" fill="#FFFFFF" stroke="#493648" stroke-width="0.5" stroke-miterlimit="22.9256" width="19.9" height="24.7"/>
			<g>
				
					<rect x="82.9" y="155.7" opacity="0.8" fill-rule="evenodd" clip-rule="evenodd" fill="#FFFFFF" stroke="#493648" stroke-width="0.5" stroke-miterlimit="22.9256" width="111.3" height="97.9"/>
				
					<polyline opacity="0.8" fill-rule="evenodd" clip-rule="evenodd" fill="#FFFFFF" stroke="#493648" stroke-width="0.5" stroke-miterlimit="22.9256" points="
					156.7,159.8 189.8,159.8 189.8,249.4 156.8,249.4 				"/>
				
					<path opacity="0.8" fill-rule="evenodd" clip-rule="evenodd" fill="#FFFFFF" stroke="#493648" stroke-width="0.5" stroke-miterlimit="22.9256" d="
					M168.8,201.3c0.4,0.1,0.8,0.1,1.3,0.2c1.2,0.2,2.6,0.5,4.5,0.5c1.8,0,3.3-0.3,4.5-0.5c1.2-0.3,2.1-0.4,2.9-0.2
					c0.1,0.1,0.3,0.1,0.4,0.2c0.9,0.4,2,0.8,2.8,0c0.4-0.4,0.7-1,0.7-1.6c0-0.7-0.2-1.3-0.4-2c-0.1-0.3-0.2-0.5-0.3-0.8
					c-0.2-0.8-0.3-1.8-0.3-3.2c0-1.2,0.1-2.5,0.2-3.9c0.3-4.2,0.3-8.8,0-13c-0.1-1.4-0.2-2.7-0.2-3.9c0-1.3,0.1-2.3,0.3-3.2
					c0.1-0.3,0.2-0.5,0.3-0.8c0.2-0.6,0.4-1.3,0.4-2c0-0.7-0.2-1.2-0.7-1.6c-0.8-0.8-1.9-0.4-2.8,0c-0.2,0.1-0.3,0.1-0.4,0.2
					c-0.7,0.3-1.6,0.1-2.9-0.2c-1.2-0.2-2.6-0.5-4.5-0.5c-1.8,0-3.3,0.3-4.5,0.5c-1.2,0.3-2.1,0.4-2.9,0.2c-0.1-0.1-0.3-0.1-0.4-0.2
					c-0.9-0.4-2-0.8-2.8,0c-0.4,0.4-0.7,1-0.7,1.6v0c0,0.7,0.2,1.3,0.4,2c0.1,0.3,0.2,0.5,0.3,0.8c0.2,0.8,0.3,1.8,0.3,3.2
					c0,1.2-0.1,2.5-0.2,3.9l0,0"/>
				
					<path opacity="0.8" fill-rule="evenodd" clip-rule="evenodd" fill="#FFFFFF" stroke="#493648" stroke-width="0.5" stroke-miterlimit="22.9256" d="
					M164.2,232.2c0.1,1.4,0.2,2.7,0.2,3.8c0,1.3-0.1,2.3-0.3,3.2c-0.1,0.3-0.2,0.5-0.3,0.8c-0.2,0.6-0.4,1.3-0.4,2v0
					c0,0.7,0.2,1.2,0.7,1.6c0.8,0.8,1.9,0.4,2.8,0c0.2-0.1,0.3-0.1,0.4-0.2c0.7-0.3,1.6-0.1,2.9,0.2c1.2,0.2,2.6,0.5,4.5,0.5
					c1.8,0,3.3-0.3,4.5-0.5c1.2-0.3,2.1-0.4,2.9-0.2c0.1,0.1,0.3,0.1,0.4,0.2c0.9,0.4,2,0.8,2.8,0c0.4-0.4,0.7-1,0.7-1.6
					c0-0.7-0.2-1.3-0.4-2c-0.1-0.3-0.2-0.5-0.3-0.8c-0.2-0.8-0.3-1.8-0.3-3.2c0-1.2,0.1-2.5,0.2-3.9c0.3-4.2,0.3-8.8,0-13
					c-0.1-1.4-0.2-2.7-0.2-3.9c0-1.3,0.1-2.3,0.3-3.2c0.1-0.3,0.2-0.5,0.3-0.8c0.2-0.6,0.4-1.3,0.4-2c0-0.7-0.2-1.2-0.7-1.6
					c-0.8-0.8-1.9-0.4-2.8,0c-0.2,0.1-0.3,0.1-0.4,0.2c-0.7,0.3-1.6,0.1-2.9-0.2c-1.2-0.2-2.6-0.5-4.5-0.5c-1.8,0-3.3,0.3-4.5,0.5
					c-0.5,0.1-0.9,0.2-1.3,0.2"/>
				
					<polygon opacity="0.8" fill-rule="evenodd" clip-rule="evenodd" fill="#FFFFFF" stroke="#493648" stroke-width="0.5" stroke-miterlimit="22.9256" points="
					155,253.6 168.8,221.3 168.8,202.4 168.8,187.9 155,155.8 82.9,155.7 82.9,253.6 				"/>
				
					<polyline opacity="0.8" fill-rule="evenodd" clip-rule="evenodd" fill="#FFFFFF" stroke="#493648" stroke-width="0.5" stroke-miterlimit="22.9256" points="
					155,155.8 148.2,170 168.8,187.9 				"/>
				
					<polyline opacity="0.8" fill-rule="evenodd" clip-rule="evenodd" fill="#FFFFFF" stroke="#493648" stroke-width="0.5" stroke-miterlimit="22.9256" points="
					155,253.4 148.2,239.2 168.8,221.3 				"/>
			</g>
		</g>
		<g>
			
				<rect x="12.6" y="165.9" opacity="0.8" fill-rule="evenodd" clip-rule="evenodd" fill="#FFFFFF" stroke="#493648" stroke-width="0.5" stroke-miterlimit="22.9256" width="18.5" height="78.2"/>
			<g>
				
					<path opacity="0.8" fill-rule="evenodd" clip-rule="evenodd" fill="#FFFFFF" stroke="#493648" stroke-width="0.5" stroke-miterlimit="22.9256" d="
					M21,197.6c-1,0.8-1.9,1.7-2,3.3l0,7.3c0.1,1.6,0,3.2,2.8,4.8v-15.8C21.6,197.3,21.3,197.4,21,197.6z"/>
				
					<rect x="23.8" y="178.1" opacity="0.8" fill-rule="evenodd" clip-rule="evenodd" fill="#FFFFFF" stroke="#493648" stroke-width="0.5" stroke-miterlimit="22.9256" width="3.3" height="53.9"/>
				
					<polygon opacity="0.8" fill-rule="evenodd" clip-rule="evenodd" fill="#FFFFFF" stroke="#493648" stroke-width="0.5" stroke-miterlimit="22.9256" points="
					23.8,183.9 21.8,191.6 21.8,219 23.8,226.1 				"/>
			</g>
		</g>
		<g>
			<polyline opacity="0.8" fill="#FFFFFF" stroke="#493648" stroke-width="0.5" stroke-miterlimit="22.9256" points="15.8,284 
				15.8,125.3 11.3,125.3 11.3,284 15.8,284 			"/>
		</g>
		<g>
			
				<rect x="61.2" y="391.8" opacity="0.8" fill-rule="evenodd" clip-rule="evenodd" fill="#FFFFFF" stroke="#493648" stroke-width="0.5" stroke-miterlimit="22.9256" width="2.4" height="16.7"/>
			
				<rect x="63.7" y="391.8" opacity="0.8" fill-rule="evenodd" clip-rule="evenodd" fill="#FFFFFF" stroke="#493648" stroke-width="0.5" stroke-miterlimit="22.9256" width="27.1" height="33.4"/>
			<g>
				
					<path opacity="0.8" fill-rule="evenodd" clip-rule="evenodd" fill="#FFFFFF" stroke="#493648" stroke-width="0.5" stroke-linecap="round" stroke-linejoin="round" stroke-miterlimit="22.9256" d="
					M70.9,416.8c0-5.5,0-11,0-16.5c0.1-1.5,1.6-1.8,2.3-0.8l4.8,7.2c1.8,2.7,1.3-1.1,3.8-0.8c1.2,0.2,2.1,1.2,2,2.9
					c0.1,0.6-0.7,2.1-2.2,2c-0.5-0.1-0.9-0.7-0.2-1.2c1.3-0.2,1.4-1,1.2-1.7c-0.2-0.6-0.8-0.9-1.5-0.8c-0.9,0.5-0.8,1.2-1.3,1.8
					c-0.2,0.1-0.5,0.1-1,0l-5.5,8.4C72.2,418.6,71.1,418.1,70.9,416.8z"/>
				
					<path opacity="0.8" fill-rule="evenodd" clip-rule="evenodd" fill="#FFFFFF" stroke="#493648" stroke-width="0.5" stroke-linecap="round" stroke-linejoin="round" stroke-miterlimit="22.9256" d="
					M72,415.9c0-5,0-9.7,0-14.6c0-0.5,0.2-0.9,0.6-0.5l4.4,7.1c0.3,0.4,0.3,0.7,0,1.1l-4.3,7.4C72.5,416.6,72.1,416.4,72,415.9z"/>
			</g>
			
				<rect x="61.2" y="408.5" opacity="0.8" fill-rule="evenodd" clip-rule="evenodd" fill="#FFFFFF" stroke="#493648" stroke-width="0.5" stroke-miterlimit="22.9256" width="2.4" height="16.7"/>
			
				<rect x="61.2" y="425.2" opacity="0.8" fill-rule="evenodd" clip-rule="evenodd" fill="#FFFFFF" stroke="#493648" stroke-width="0.5" stroke-linecap="round" stroke-linejoin="round" stroke-miterlimit="22.9256" width="29.5" height="38"/>
		</g>
		<g>
			
				<rect x="96.5" y="391.8" transform="matrix(-1 5.927880e-005 -5.927880e-005 -1 294.9606 816.9716)" opacity="0.8" fill-rule="evenodd" clip-rule="evenodd" fill="#FFFFFF" stroke="#493648" stroke-width="0.5" stroke-miterlimit="22.9256" width="102" height="33.3"/>
			
				<rect x="173.5" y="391.8" opacity="0.8" fill-rule="evenodd" clip-rule="evenodd" fill="#FFFFFF" stroke="#493648" stroke-width="0.5" stroke-miterlimit="22.9256" width="17.1" height="33.4"/>
			
				<circle opacity="0.8" fill-rule="evenodd" clip-rule="evenodd" fill="#FFFFFF" stroke="#493648" stroke-width="0.5" stroke-miterlimit="22.9256" cx="182.1" cy="416.9" r="4.6"/>
			
				<circle opacity="0.8" fill-rule="evenodd" clip-rule="evenodd" fill="#FFFFFF" stroke="#493648" stroke-width="0.5" stroke-miterlimit="22.9256" cx="182.1" cy="404.1" r="4.6"/>
			<g>
				
					<rect x="135.9" y="391.8" opacity="0.8" fill-rule="evenodd" clip-rule="evenodd" fill="#FFFFFF" stroke="#493648" stroke-width="0.5" stroke-miterlimit="22.9256" width="30.5" height="1.9"/>
				
					<rect x="135.9" y="393.7" opacity="0.8" fill-rule="evenodd" clip-rule="evenodd" fill="#FFFFFF" stroke="#493648" stroke-width="0.5" stroke-miterlimit="22.9256" width="30.5" height="31.5"/>
				
					<line opacity="0.8" fill-rule="evenodd" clip-rule="evenodd" fill="#FFFFFF" stroke="#493648" stroke-width="0.5" stroke-miterlimit="22.9256" x1="143.1" y1="411.6" x2="143" y2="405.5"/>
				
					<line opacity="0.8" fill-rule="evenodd" clip-rule="evenodd" fill="#FFFFFF" stroke="#493648" stroke-width="0.5" stroke-miterlimit="22.9256" x1="145.3" y1="410.7" x2="140.8" y2="406.4"/>
				
					<line opacity="0.8" fill-rule="evenodd" clip-rule="evenodd" fill="#FFFFFF" stroke="#493648" stroke-width="0.5" stroke-miterlimit="22.9256" x1="146.1" y1="408.8" x2="139.9" y2="408.8"/>
				
					<line opacity="0.8" fill-rule="evenodd" clip-rule="evenodd" fill="#FFFFFF" stroke="#493648" stroke-width="0.5" stroke-miterlimit="22.9256" x1="145.1" y1="406.3" x2="141" y2="410.8"/>
				
					<line opacity="0.8" fill-rule="evenodd" clip-rule="evenodd" fill="#FFFFFF" stroke="#493648" stroke-width="0.5" stroke-miterlimit="22.9256" x1="151.3" y1="411.6" x2="151.2" y2="405.5"/>
				
					<line opacity="0.8" fill-rule="evenodd" clip-rule="evenodd" fill="#FFFFFF" stroke="#493648" stroke-width="0.5" stroke-miterlimit="22.9256" x1="153.5" y1="410.7" x2="149" y2="406.4"/>
				
					<line opacity="0.8" fill-rule="evenodd" clip-rule="evenodd" fill="#FFFFFF" stroke="#493648" stroke-width="0.5" stroke-miterlimit="22.9256" x1="154.3" y1="408.6" x2="148.1" y2="408.5"/>
				
					<line opacity="0.8" fill-rule="evenodd" clip-rule="evenodd" fill="#FFFFFF" stroke="#493648" stroke-width="0.5" stroke-miterlimit="22.9256" x1="153.3" y1="406.5" x2="149.1" y2="411.1"/>
				
					<line opacity="0.8" fill-rule="evenodd" clip-rule="evenodd" fill="#FFFFFF" stroke="#493648" stroke-width="0.5" stroke-miterlimit="22.9256" x1="159.3" y1="411.6" x2="159.2" y2="405.5"/>
				
					<line opacity="0.8" fill-rule="evenodd" clip-rule="evenodd" fill="#FFFFFF" stroke="#493648" stroke-width="0.5" stroke-miterlimit="22.9256" x1="161.5" y1="410.7" x2="157" y2="406.4"/>
				
					<line opacity="0.8" fill-rule="evenodd" clip-rule="evenodd" fill="#FFFFFF" stroke="#493648" stroke-width="0.5" stroke-miterlimit="22.9256" x1="162.4" y1="408.6" x2="156.2" y2="408.5"/>
				
					<line opacity="0.8" fill-rule="evenodd" clip-rule="evenodd" fill="#FFFFFF" stroke="#493648" stroke-width="0.5" stroke-miterlimit="22.9256" x1="161.3" y1="406.5" x2="157.2" y2="411.1"/>
			</g>
			<g>
				
					<rect x="96.5" y="391.8" opacity="0.8" fill-rule="evenodd" clip-rule="evenodd" fill="#FFFFFF" stroke="#493648" stroke-width="0.5" stroke-miterlimit="22.9256" width="33.1" height="33.4"/>
				
					<path opacity="0.8" fill-rule="evenodd" clip-rule="evenodd" fill="#FFFFFF" stroke="#493648" stroke-width="0.5" stroke-miterlimit="22.9256" d="
					M114.9,422.4h9c1.6,0,3-1.3,3-2.9v-22.2c0-1.6-1.4-2.9-3-2.9h-21.4c-1.6,0-3,1.3-3,2.9v22.2c0,1.6,1.3,2.9,3,2.9h8.7H114.9z"/>
				
					<ellipse opacity="0.8" fill-rule="evenodd" clip-rule="evenodd" fill="#FFFFFF" stroke="#493648" stroke-width="0.5" stroke-miterlimit="22.9256" cx="113.1" cy="409.2" rx="1.6" ry="1.5"/>
				
					<path opacity="0.8" fill-rule="evenodd" clip-rule="evenodd" fill="#FFFFFF" stroke="#493648" stroke-width="0.5" stroke-miterlimit="22.9256" d="
					M114.9,422.4v-7.3c0-0.3-0.4-0.5-0.8-0.5h-2.2c-0.4,0-0.8,0.2-0.8,0.5v7.3H114.9z"/>
			</g>
			
				<line opacity="0.8" fill="#FFFFFF" stroke="#493648" stroke-width="0.5" stroke-miterlimit="22.9256" x1="190.5" y1="395" x2="173.5" y2="395"/>
			
				<rect x="90.7" y="391.8" opacity="0.8" fill-rule="evenodd" clip-rule="evenodd" fill="#FFFFFF" stroke="#493648" stroke-width="0.5" stroke-miterlimit="22.9256" width="5.7" height="33.5"/>
		</g>
		<g>
			
				<path opacity="0.8" fill="none" stroke="#493648" stroke-width="0.5" stroke-linecap="round" stroke-linejoin="round" stroke-miterlimit="22.9256" d="
				M55.2,512.9c0-21.2,17.2-38.4,38.3-38.4"/>
			
				<line opacity="0.8" fill="none" stroke="#493648" stroke-width="0.5" stroke-linecap="round" stroke-linejoin="round" stroke-miterlimit="22.9256" x1="92" y1="513" x2="55.2" y2="513"/>
			
				<polyline opacity="0.8" fill="none" stroke="#493648" stroke-width="0.5" stroke-linecap="round" stroke-linejoin="round" stroke-miterlimit="22.9256" points="
				90.6,516.5 90.6,513 96.4,513 96.4,516.5 90.6,516.5 			"/>
			
				<polyline opacity="0.8" fill="none" stroke="#493648" stroke-width="0.5" stroke-linecap="round" stroke-linejoin="round" stroke-miterlimit="22.9256" points="
				90.6,474.6 90.6,471.1 96.4,471.1 96.4,474.6 90.6,474.6 			"/>
		</g>
		<g>
			
				<path opacity="0.8" fill="none" stroke="#493648" stroke-width="0.5" stroke-linecap="round" stroke-linejoin="round" stroke-miterlimit="22.9256" d="
				M29.4,523c23.8,0,43.2,19.3,43.2,43"/>
			
				<line opacity="0.8" fill="none" stroke="#493648" stroke-width="0.5" stroke-linecap="round" stroke-linejoin="round" stroke-miterlimit="22.9256" x1="29.4" y1="564.3" x2="29.4" y2="523"/>
			
				<polyline opacity="0.8" fill="none" stroke="#493648" stroke-width="0.5" stroke-linecap="round" stroke-linejoin="round" stroke-miterlimit="22.9256" points="
				25.5,562.7 29.4,562.7 29.4,569.2 25.5,569.2 25.5,562.7 			"/>
			
				<polyline opacity="0.8" fill="none" stroke="#493648" stroke-width="0.5" stroke-linecap="round" stroke-linejoin="round" stroke-miterlimit="22.9256" points="
				72.5,562.7 76.4,562.7 76.4,569.2 72.5,569.2 72.5,562.7 			"/>
		</g>
		<g>
			
				<rect x="111.1" y="544.7" opacity="0.8" fill-rule="evenodd" clip-rule="evenodd" fill="#FFFFFF" stroke="#493648" stroke-width="0.5" stroke-miterlimit="22.9256" width="20.9" height="2.5"/>
			
				<path opacity="0.8" fill-rule="evenodd" clip-rule="evenodd" fill="#FFFFFF" stroke="#493648" stroke-width="0.5" stroke-miterlimit="22.9256" d="
				M121.6,518.8c6.5,0,11.8,7.7,11.8,17.2c0,3.2-0.6,6.2-1.6,8.7h-20.4c-1-2.6-1.6-5.5-1.6-8.7C109.7,526.5,115,518.8,121.6,518.8z"
				/>
		</g>
		<g>
			
				<path opacity="0.8" fill-rule="evenodd" clip-rule="evenodd" fill="#FFFFFF" stroke="#493648" stroke-width="0.5" stroke-miterlimit="22.9256" d="
				M198.5,547.2h-45.8v-22.7c0-12.5,10.2-22.7,22.7-22.7h23.1V547.2z"/>
			
				<path opacity="0.8" fill-rule="evenodd" clip-rule="evenodd" fill="#FFFFFF" stroke="#493648" stroke-width="0.5" stroke-miterlimit="22.9256" d="
				M195.3,544h-39.4v-19.4c0-10.7,8.8-19.4,19.5-19.4h19.9V544z"/>
			
				<circle opacity="0.8" fill-rule="evenodd" clip-rule="evenodd" fill="#FFFFFF" stroke="#493648" stroke-width="0.5" stroke-miterlimit="22.9256" cx="188.1" cy="536.8" r="2.3"/>
		</g>
		<g>
			
				<rect x="96.5" y="433.9" opacity="0.8" fill-rule="evenodd" clip-rule="evenodd" fill="#FFFFFF" stroke="#493648" stroke-width="0.5" stroke-miterlimit="22.9256" width="102" height="28.2"/>
			
				<line opacity="0.8" fill-rule="evenodd" clip-rule="evenodd" fill="#FFFFFF" stroke="#493648" stroke-width="0.5" stroke-miterlimit="22.9256" x1="159.2" y1="437.8" x2="96.5" y2="437.8"/>
			<g>
				
					<path opacity="0.8" fill-rule="evenodd" clip-rule="evenodd" fill="#FFFFFF" stroke="#493648" stroke-width="0.5" stroke-miterlimit="22.9256" d="
					M122.8,442.2c-7.9,0.4-13.6,4.1-13.6,8.6c0,4.8,7,8.6,15.6,8.6c8.6,0,15.6-3.9,15.6-8.6c0-4.5-5.7-8.2-13.6-8.6"/>
				
					<path opacity="0.8" fill-rule="evenodd" clip-rule="evenodd" fill="#FFFFFF" stroke="#493648" stroke-width="0.5" stroke-miterlimit="22.9256" d="
					M122.8,437.8v7.8c0,0.3,0.4,0.5,0.8,0.5h2.3c0.5,0,0.8-0.2,0.8-0.5v-7.8H122.8z"/>
			</g>
			<g>
				
					<rect x="159.4" y="433.9" opacity="0.8" fill-rule="evenodd" clip-rule="evenodd" fill="#FFFFFF" stroke="#493648" stroke-width="0.5" stroke-miterlimit="22.9256" width="28.2" height="28.2"/>
				
					<path opacity="0.8" fill-rule="evenodd" clip-rule="evenodd" fill="#FFFFFF" stroke="#493648" stroke-width="0.5" stroke-miterlimit="22.9256" d="
					M185.4,433.9c0,0.9,0,1.9,0,2.8c-0.1,0.7-0.4,1.2-1.1,1.3c-2.7,0-5.5,0-8.2,0c-0.5-0.1-1.4,0.1-1.5-1.2v-3H185.4z"/>
				
					<path opacity="0.8" fill-rule="evenodd" clip-rule="evenodd" fill="#FFFFFF" stroke="#493648" stroke-width="0.5" stroke-miterlimit="22.9256" d="
					M166.6,444.9h-1.4c-0.7,0-1.3,0.6-1.3,1.3v3.6c0,0.7,0.6,1.3,1.3,1.3h1.4c-0.4-1-0.7-2-0.7-3.1
					C166,446.9,166.2,445.8,166.6,444.9z"/>
				<g>
					
						<ellipse opacity="0.8" fill-rule="evenodd" clip-rule="evenodd" fill="#FFFFFF" stroke="#493648" stroke-width="0.5" stroke-miterlimit="22.9256" cx="173.5" cy="448" rx="7.6" ry="7.5"/>
					
						<ellipse opacity="0.8" fill-rule="evenodd" clip-rule="evenodd" fill="#FFFFFF" stroke="#493648" stroke-width="0.5" stroke-miterlimit="22.9256" cx="173.5" cy="448" rx="5.6" ry="5.6"/>
				</g>
				
					<ellipse opacity="0.8" fill-rule="evenodd" clip-rule="evenodd" fill="#FFFFFF" stroke="#493648" stroke-width="0.5" stroke-miterlimit="22.9256" cx="164" cy="437.5" rx="1.7" ry="1.7"/>
			</g>
		</g>
		
			<rect x="96.4" y="547.2" fill-rule="evenodd" clip-rule="evenodd" fill="#FFFFFF" stroke="#493648" stroke-width="0.5" stroke-miterlimit="22.9256" width="48.2" height="11.3"/>
	</g>
</g>
<g id="Слой_2">
</g>
<g id="Слой_3">
</g>
<g id="Слой_4">
</g>
<g id="Слой_5">
</g>
</svg>
