<svg width="17" height="28" viewBox="0 0 17 28" fill="none" xmlns="http://www.w3.org/2000/svg"><path d="M9.45 27.365l-.374-.287c-.23-.175-5.644-4.365-7.844-10.337C-.968 10.769.436 4.068.497 3.786l.099-.461L7.024 0l3.587 9.739-3.815 1.403c-.17.514-.398 1.71.246 3.459.634 1.721 1.564 2.485 2.04 2.78l3.769-1.562 3.649 9.906-7.05 1.64zM2.37 4.659c-.26 1.552-.947 6.81.74 11.391 1.688 4.581 5.62 8.137 6.826 9.149l3.904-.908-2.146-5.827-2.618 1.085-.36-.124c-.094-.033-2.338-.841-3.55-4.133-1.212-3.291-.03-5.362.022-5.448l.18-.308 2.676-.983L5.93 2.817 2.369 4.659z" fill="#fff"/></svg>