<svg width="16" height="16" viewBox="0 0 16 16" fill="none" xmlns="http://www.w3.org/2000/svg"><path d="M15.695 4.496c-.036-.813-.167-1.371-.355-1.855a3.728 3.728 0 00-.884-1.356 3.76 3.76 0 00-1.353-.881c-.487-.188-1.043-.32-1.855-.355C10.428.009 10.168 0 8.092 0S5.756.009 4.94.045C4.127.081 3.57.212 3.085.4a3.728 3.728 0 00-1.356.884 3.76 3.76 0 00-.88 1.353C.66 3.124.528 3.68.492 4.492.454 5.311.445 5.57.445 7.647s.01 2.336.045 3.152c.036.813.167 1.371.356 1.855.194.514.496.974.884 1.356.382.388.845.69 1.353.881.487.188 1.043.32 1.855.355.815.036 1.075.045 3.152.045 2.076 0 2.336-.009 3.152-.045.813-.036 1.371-.167 1.855-.355a3.913 3.913 0 002.238-2.237c.188-.487.32-1.043.355-1.855.036-.816.045-1.075.045-3.152s-.004-2.335-.04-3.151zm-1.377 6.244c-.033.747-.158 1.15-.263 1.419a2.538 2.538 0 01-1.452 1.452c-.269.105-.675.23-1.419.263-.807.036-1.048.045-3.089.045-2.04 0-2.285-.009-3.089-.045-.747-.033-1.15-.158-1.419-.263a2.355 2.355 0 01-.878-.571 2.387 2.387 0 01-.57-.878c-.106-.269-.23-.675-.264-1.419-.036-.807-.045-1.049-.045-3.089s.01-2.285.045-3.089c.033-.747.158-1.15.263-1.419.123-.332.317-.633.574-.878.248-.254.547-.448.878-.571.27-.105.675-.23 1.42-.263.806-.036 1.048-.045 3.088-.045 2.043 0 2.285.009 3.09.045.746.033 1.15.158 1.418.263.332.122.633.317.878.571.254.248.448.547.571.878.105.269.23.675.263 1.419.036.807.045 1.048.045 3.089s-.009 2.279-.045 3.086z" fill="#fff"/><path d="M8.092 3.719a3.93 3.93 0 000 7.856 3.93 3.93 0 000-7.856zm0 6.477a2.548 2.548 0 110-5.097 2.548 2.548 0 010 5.097zm5.001-6.632a.918.918 0 11-1.835-.001.918.918 0 011.835.001z" fill="#fff"/></svg>