<svg width="15" height="15" viewBox="0 0 15 15" fill="none" xmlns="http://www.w3.org/2000/svg"><path d="M7.226.422h-.004C3.239.422 0 3.662 0 7.646a7.17 7.17 0 001.375 4.234l-.9 2.684 2.777-.888a7.159 7.159 0 003.974 1.194c3.983 0 7.222-3.241 7.222-7.224S11.209.422 7.226.422zm4.204 10.201c-.174.492-.866.9-1.418 1.02-.377.08-.871.144-2.53-.544-2.123-.88-3.49-3.037-3.597-3.177-.102-.14-.858-1.142-.858-2.179s.526-1.541.739-1.758c.174-.178.462-.259.738-.259.089 0 .17.005.242.008.212.009.319.022.459.357.174.42.599 1.457.649 1.563.051.107.103.251.031.391-.068.145-.127.209-.234.331-.106.123-.208.217-.314.349-.098.115-.208.238-.085.45.123.208.547.9 1.172 1.457.806.718 1.46.947 1.694 1.045.175.071.382.054.51-.081.162-.174.361-.463.564-.748.144-.204.327-.229.518-.157.195.068 1.227.578 1.439.684.212.107.352.157.404.247.051.088.051.508-.123 1.001z" fill="#fff"/></svg>