<svg width="130" height="130" viewBox="0 0 130 130" fill="none" xmlns="http://www.w3.org/2000/svg"><g clip-path="url(#clip0)"><path d="M126.154 3H3v123.154h123.154V3z" fill="#BAA9A8"/><path d="M129.154 129.154H0V0h129.154v129.154zM3 126.154h123.154V3H3v123.154z" fill="#fff"/><path d="M72.213 49.45c-6.64 0-12.05 5.4-12.05 12.04 0 4.01 1.97 7.56 4.98 9.76 1.45 1.05 3.14 1.78 4.97 2.1h.02c.28.06.54.1.83.13.38-.07.75-.15 1.12-.22 1.71-.34 3.37-.67 5.14-.82.19-.08.38-.17.57-.28 1.3-.67 2.46-1.58 3.42-2.67 1.9-2.12 3.05-4.93 3.05-8 0-6.64-5.41-12.04-12.05-12.04zm-8.61 12.04c0-4.74 3.86-8.6 8.61-8.6s8.61 3.86 8.61 8.6c0 4.04-2.8 7.44-6.56 8.37-.03.01-.06.01-.09.02-.22.03-.43.07-.65.12-.06 0-.12.02-.19.03-.36.05-.74.07-1.12.07-4.75 0-8.61-3.86-8.61-8.61z" fill="#fff"/><path d="M85.853 70.3v3.05c-3.38-.99-6.12-1.13-8.63-.91-1.77.15-3.43.48-5.14.82-.37.07-.74.15-1.12.22-1.99.38-4.04.71-6.34.71-1.88 0-3.91-.22-6.2-.82v-3.05c2.54.75 4.71.98 6.72.93 2.24-.05 4.27-.45 6.37-.87.6-.12 1.21-.24 1.82-.35.07-.01.13-.03.19-.03.22-.05.43-.09.65-.12.03-.01.06-.01.09-.02 2.12-.35 4.37-.57 6.95-.37 1.43.12 2.97.38 4.64.81zm0 5.63v3.06c-5.77-1.69-9.66-.92-13.77-.1-2.34.46-4.73.94-7.46.94-1.88 0-3.91-.23-6.2-.83v-2.92c-.03-.01-.06-.02-.1-.03l.04-.12c.02.01.04.01.06.02 2.6.77 4.81.99 6.87.92h.16c.09-.01.18-.01.27-.01.25-.01.5-.03.75-.05 1.73-.15 3.37-.47 5.04-.8.47-.1.95-.19 1.43-.28.24-.05.48-.09.73-.13.09-.02.18-.04.28-.05a37.833 37.833 0 011.95-.29c.25-.03.51-.06.77-.08.26-.03.52-.05.79-.06.26-.03.54-.04.81-.05.56-.03 1.12-.03 1.71-.01 1.77.05 3.7.31 5.87.87zm5.723-1.825H88.46V51.572c.983 0 1.951-.027 2.916.019.25.012.506.232.731.395 3.644 2.633 7.283 5.272 10.924 7.909.207.15.421.291.734.507v-8.791h3.101v22.477h-3.083v-.729c0-2.76.011-5.521-.017-8.281-.003-.279-.161-.659-.376-.817-3.812-2.805-7.645-5.583-11.474-8.366-.076-.055-.161-.096-.342-.201.002 6.16.002 12.251.002 18.411zM56.05 71.127v2.968H42.283V51.606h13.192v2.923h-9.83v6.39h8.207v2.898h-8.208v7.31H56.05zm-16.867.009v2.936H25.134v-22.45h3.268v19.514h10.781z" fill="#fff"/></g><defs><clipPath id="clip0"><path fill="#fff" d="M0 0h129.154v129.154H0z"/></clipPath></defs></svg>