<svg width="257" height="7" viewBox="0 0 257 7" fill="none" xmlns="http://www.w3.org/2000/svg"><path opacity=".5" d="M255.87 4.998c-13.9-4.17-24.03-2.26-33.83-.41-5.44 1.03-10.99 2.07-17.17 2.07-4.13 0-8.53-.46-13.38-1.71l-.02.05c-13.89-4.17-23.51-2.26-32.81-.41-5.17 1.02-10.44 2.07-16.44 2.07-3.99 0-8.31-.46-13.13-1.71l-.02.05c-13.89-4.17-23.51-2.26-32.81-.41-5.17 1.02-10.44 2.07-16.44 2.07-3.99 0-8.31-.46-13.13-1.71l-.02.05c-13.9-4.17-24.04-2.26-33.84-.41-5.44 1.03-10.99 2.07-17.17 2.07-4.76 0-9.9-.62-15.66-2.34l.58-1.92c12.76 3.83 22.05 2.08 31.88.22 9.5-1.79 19.31-3.63 32.51-.18l.01-.04c12.76 3.83 21.57 2.08 30.89.23 9.03-1.8 18.34-3.64 31.5-.19l.01-.04c12.76 3.83 21.57 2.08 30.89.23 9.03-1.8 18.35-3.64 31.5-.19l.01-.04c12.77 3.83 22.06 2.08 31.89.22 10.03-1.89 20.41-3.84 34.78.46l-.58 1.92z" fill="#fff"/></svg>