<svg width="205" height="236" viewBox="0 0 205 236" fill="none" xmlns="http://www.w3.org/2000/svg">
<path d="M32.6675 225.616H31.3235V229H29.3915V220.6H31.3235V223.996H32.7155L34.9235 220.6H36.9755L34.2275 224.656L37.0595 229H34.8515L32.6675 225.616ZM43.143 229.144C42.271 229.144 41.483 228.956 40.779 228.58C40.083 228.204 39.535 227.688 39.135 227.032C38.743 226.368 38.547 225.624 38.547 224.8C38.547 223.976 38.743 223.236 39.135 222.58C39.535 221.916 40.083 221.396 40.779 221.02C41.483 220.644 42.271 220.456 43.143 220.456C44.015 220.456 44.799 220.644 45.495 221.02C46.191 221.396 46.739 221.916 47.139 222.58C47.539 223.236 47.739 223.976 47.739 224.8C47.739 225.624 47.539 226.368 47.139 227.032C46.739 227.688 46.191 228.204 45.495 228.58C44.799 228.956 44.015 229.144 43.143 229.144ZM43.143 227.488C43.639 227.488 44.087 227.376 44.487 227.152C44.887 226.92 45.199 226.6 45.423 226.192C45.655 225.784 45.771 225.32 45.771 224.8C45.771 224.28 45.655 223.816 45.423 223.408C45.199 223 44.887 222.684 44.487 222.46C44.087 222.228 43.639 222.112 43.143 222.112C42.647 222.112 42.199 222.228 41.799 222.46C41.399 222.684 41.083 223 40.851 223.408C40.627 223.816 40.515 224.28 40.515 224.8C40.515 225.32 40.627 225.784 40.851 226.192C41.083 226.6 41.399 226.92 41.799 227.152C42.199 227.376 42.647 227.488 43.143 227.488ZM58.1406 220.6V229H56.1966V225.556H52.3806V229H50.4366V220.6H52.3806V223.912H56.1966V220.6H58.1406ZM65.4172 229.144C64.5612 229.144 63.7852 228.96 63.0892 228.592C62.4012 228.216 61.8572 227.7 61.4572 227.044C61.0652 226.38 60.8692 225.632 60.8692 224.8C60.8692 223.968 61.0652 223.224 61.4572 222.568C61.8572 221.904 62.4012 221.388 63.0892 221.02C63.7852 220.644 64.5652 220.456 65.4292 220.456C66.1572 220.456 66.8132 220.584 67.3972 220.84C67.9892 221.096 68.4852 221.464 68.8852 221.944L67.6372 223.096C67.0692 222.44 66.3652 222.112 65.5252 222.112C65.0052 222.112 64.5412 222.228 64.1332 222.46C63.7252 222.684 63.4052 223 63.1732 223.408C62.9492 223.816 62.8372 224.28 62.8372 224.8C62.8372 225.32 62.9492 225.784 63.1732 226.192C63.4052 226.6 63.7252 226.92 64.1332 227.152C64.5412 227.376 65.0052 227.488 65.5252 227.488C66.3652 227.488 67.0692 227.156 67.6372 226.492L68.8852 227.644C68.4852 228.132 67.9892 228.504 67.3972 228.76C66.8052 229.016 66.1452 229.144 65.4172 229.144ZM75.4202 223.36C76.4442 223.36 77.2282 223.588 77.7722 224.044C78.3242 224.5 78.6002 225.176 78.6002 226.072C78.6002 227.024 78.2962 227.752 77.6882 228.256C77.0882 228.752 76.2402 229 75.1442 229H71.3522V220.6H73.2842V223.36H75.4202ZM75.0362 227.56C75.5402 227.56 75.9322 227.436 76.2122 227.188C76.5002 226.94 76.6442 226.58 76.6442 226.108C76.6442 225.236 76.1082 224.8 75.0362 224.8H73.2842V227.56H75.0362ZM87.7046 227.44V229H81.2006V220.6H87.5486V222.16H83.1326V223.984H87.0326V225.496H83.1326V227.44H87.7046ZM94.1109 220.6C94.8549 220.6 95.4989 220.724 96.0429 220.972C96.5949 221.22 97.0189 221.572 97.3149 222.028C97.6109 222.484 97.7589 223.024 97.7589 223.648C97.7589 224.264 97.6109 224.804 97.3149 225.268C97.0189 225.724 96.5949 226.076 96.0429 226.324C95.4989 226.564 94.8549 226.684 94.1109 226.684H92.4189V229H90.4749V220.6H94.1109ZM94.0029 225.1C94.5869 225.1 95.0309 224.976 95.3349 224.728C95.6389 224.472 95.7909 224.112 95.7909 223.648C95.7909 223.176 95.6389 222.816 95.3349 222.568C95.0309 222.312 94.5869 222.184 94.0029 222.184H92.4189V225.1H94.0029ZM107.674 225.616H106.45V229H104.542V225.616H103.294L101.41 229H99.1658L101.686 224.608L99.3218 220.6H101.374L103.258 223.996H104.542V220.6H106.45V223.996H107.698L109.594 220.6H111.646L109.294 224.608L111.802 229H109.558L107.674 225.616ZM113.525 224.872H116.921V226.372H113.525V224.872ZM123.793 229.144C122.937 229.144 122.161 228.96 121.465 228.592C120.777 228.216 120.233 227.7 119.833 227.044C119.441 226.38 119.245 225.632 119.245 224.8C119.245 223.968 119.441 223.224 119.833 222.568C120.233 221.904 120.777 221.388 121.465 221.02C122.161 220.644 122.941 220.456 123.805 220.456C124.533 220.456 125.189 220.584 125.773 220.84C126.365 221.096 126.861 221.464 127.261 221.944L126.013 223.096C125.445 222.44 124.741 222.112 123.901 222.112C123.381 222.112 122.917 222.228 122.509 222.46C122.101 222.684 121.781 223 121.549 223.408C121.325 223.816 121.213 224.28 121.213 224.8C121.213 225.32 121.325 225.784 121.549 226.192C121.781 226.6 122.101 226.92 122.509 227.152C122.917 227.376 123.381 227.488 123.901 227.488C124.741 227.488 125.445 227.156 126.013 226.492L127.261 227.644C126.861 228.132 126.365 228.504 125.773 228.76C125.181 229.016 124.521 229.144 123.793 229.144ZM136.232 227.44V229H129.728V220.6H136.076V222.16H131.66V223.984H135.56V225.496H131.66V227.44H136.232ZM142.638 220.6C143.382 220.6 144.026 220.724 144.57 220.972C145.122 221.22 145.546 221.572 145.842 222.028C146.138 222.484 146.286 223.024 146.286 223.648C146.286 224.264 146.138 224.804 145.842 225.268C145.546 225.724 145.122 226.076 144.57 226.324C144.026 226.564 143.382 226.684 142.638 226.684H140.946V229H139.002V220.6H142.638ZM142.53 225.1C143.114 225.1 143.558 224.976 143.862 224.728C144.166 224.472 144.318 224.112 144.318 223.648C144.318 223.176 144.166 222.816 143.862 222.568C143.558 222.312 143.114 222.184 142.53 222.184H140.946V225.1H142.53ZM154.589 224.62C155.101 224.772 155.493 225.02 155.765 225.364C156.037 225.708 156.173 226.132 156.173 226.636C156.173 227.38 155.889 227.96 155.321 228.376C154.761 228.792 153.957 229 152.909 229H148.769V220.6H152.681C153.657 220.6 154.417 220.788 154.961 221.164C155.505 221.54 155.777 222.076 155.777 222.772C155.777 223.188 155.673 223.556 155.465 223.876C155.257 224.188 154.965 224.436 154.589 224.62ZM150.701 224.08H152.513C152.937 224.08 153.257 223.996 153.473 223.828C153.689 223.652 153.797 223.396 153.797 223.06C153.797 222.732 153.685 222.48 153.461 222.304C153.245 222.128 152.929 222.04 152.513 222.04H150.701V224.08ZM152.837 227.56C153.749 227.56 154.205 227.2 154.205 226.48C154.205 225.784 153.749 225.436 152.837 225.436H150.701V227.56H152.837ZM158.91 220.6H160.842V226.072L164.85 220.6H166.674V229H164.754V223.54L160.746 229H158.91V220.6ZM173.937 229.144C173.081 229.144 172.305 228.96 171.609 228.592C170.921 228.216 170.377 227.7 169.977 227.044C169.585 226.38 169.389 225.632 169.389 224.8C169.389 223.968 169.585 223.224 169.977 222.568C170.377 221.904 170.921 221.388 171.609 221.02C172.305 220.644 173.085 220.456 173.949 220.456C174.677 220.456 175.333 220.584 175.917 220.84C176.509 221.096 177.005 221.464 177.405 221.944L176.157 223.096C175.589 222.44 174.885 222.112 174.045 222.112C173.525 222.112 173.061 222.228 172.653 222.46C172.245 222.684 171.925 223 171.693 223.408C171.469 223.816 171.357 224.28 171.357 224.8C171.357 225.32 171.469 225.784 171.693 226.192C171.925 226.6 172.245 226.92 172.653 227.152C173.061 227.376 173.525 227.488 174.045 227.488C174.885 227.488 175.589 227.156 176.157 226.492L177.405 227.644C177.005 228.132 176.509 228.504 175.917 228.76C175.325 229.016 174.665 229.144 173.937 229.144Z" fill="#D2CDCC"/>
<rect x="1" y="1" width="203" height="201" stroke="#BAA9A8" stroke-width="2"/>
<path d="M167.799 75.7246H103.549V116.237H167.799V75.7246Z" stroke="#BAA9A8" stroke-width="2" stroke-miterlimit="10"/>
<path d="M183 125.416H16.509" stroke="#BAA9A8" stroke-width="2" stroke-miterlimit="10"/>
<path d="M146.91 125.415H124.438L129.506 116.237H141.844L146.91 125.415Z" stroke="#BAA9A8" stroke-width="2" stroke-miterlimit="10"/>
<path d="M135.674 103.419C139.782 103.419 143.112 100.089 143.112 95.9807C143.112 91.873 139.782 88.543 135.674 88.543C131.566 88.543 128.236 91.873 128.236 95.9807C128.236 100.089 131.566 103.419 135.674 103.419Z" stroke="#BAA9A8" stroke-width="2" stroke-miterlimit="10"/>
<path d="M75.6226 71.272V74.6421C75.6226 80.6594 70.7447 85.5386 64.7261 85.5386C58.7088 85.5386 53.8296 80.6607 53.8296 74.6421V71.272" stroke="#BAA9A8" stroke-width="2" stroke-miterlimit="10"/>
<path d="M52.351 66.4172C52.351 59.582 57.8923 54.042 64.7261 54.042C71.5613 54.042 77.1013 59.582 77.1013 66.4172C77.1013 68.6036 75.6226 71.6901 75.6226 71.6901L73.4033 64.2928C73.4033 64.2928 70.6624 65.1221 64.7932 65.1221C58.924 65.1221 56.7351 62.6154 56.7351 62.6154L53.8296 72.4016C53.8309 72.4016 52.351 70.0645 52.351 66.4172Z" stroke="#BAA9A8" stroke-width="2" stroke-miterlimit="10"/>
<path d="M58.0656 83.251V88.5416L52.1192 93.9221L40.2504 98.9861C40.2504 98.9861 34.8699 101.202 34.8699 107.532C34.8699 113.862 34.8699 125.414 34.8699 125.414" stroke="#BAA9A8" stroke-width="2" stroke-miterlimit="10"/>
<path d="M58.0656 88.543L64.726 95.3477L58.0656 101.833" stroke="#BAA9A8" stroke-width="2" stroke-miterlimit="10"/>
<path d="M52.1191 93.9238L68.8937 116.237V125.416" stroke="#BAA9A8" stroke-width="2" stroke-miterlimit="10"/>
<path d="M71.4536 83.251V88.5416L77.4 93.9221L89.2688 98.9861C89.2688 98.9861 94.6493 101.202 94.6493 107.532C94.6493 113.862 94.6493 125.414 94.6493 125.414" stroke="#BAA9A8" stroke-width="2" stroke-miterlimit="10"/>
<path d="M71.4537 88.543L64.7932 95.3477L71.4537 101.833" stroke="#BAA9A8" stroke-width="2" stroke-miterlimit="10"/>
<path d="M77.4001 93.9238L64.7932 110.693" stroke="#BAA9A8" stroke-width="2" stroke-miterlimit="10"/>
<path d="M29.8033 125.416V202" stroke="#BAA9A8" stroke-width="2" stroke-miterlimit="10"/>
<path d="M172.715 125.416V202" stroke="#BAA9A8" stroke-width="2" stroke-miterlimit="10"/>
</svg>
