<svg width="263" height="195" viewBox="0 0 263 195" fill="none" xmlns="http://www.w3.org/2000/svg">
<g opacity="0.6">
<path d="M92.247 173.471C92.247 173.471 77.841 173.471 56.42 173.471C34.999 173.471 34.618 150.452 34.618 150.452V118.718C34.618 118.718 47.327 110.675 51.72 109.48C70.789 104.294 132.677 105.8 132.677 105.8" stroke="white" stroke-width="2" stroke-miterlimit="10"/>
<path d="M53.037 109.479C53.037 109.479 57.479 69.6642 84.572 66.2022C111.665 62.7402 131.96 62.7402 131.96 62.7402" stroke="white" stroke-width="2" stroke-miterlimit="10"/>
<path d="M44.236 113.314C44.236 113.314 93.446 116.407 93.446 129.101C93.446 141.796 93.446 141.796 93.446 141.796L36.389 133.718" stroke="white" stroke-width="2" stroke-miterlimit="10"/>
<path d="M131.266 179.071H93.447V159.267H131.266" stroke="white" stroke-width="2" stroke-miterlimit="10"/>
<path d="M34.617 151.964V190.676H76.638V173.172" stroke="white" stroke-width="2" stroke-miterlimit="10"/>
<path d="M261.532 194.977V43.123L133.067 1H130.712L1 43.123V194.977" stroke="white" stroke-width="2" stroke-miterlimit="10"/>
<path d="M169.285 173.471C169.285 173.471 186.078 173.471 207.5 173.471C228.922 173.471 227.915 150.452 227.915 150.452V118.718C227.915 118.718 215.899 110.675 211.506 109.48C192.437 104.294 132.204 105.8 132.204 105.8" stroke="white" stroke-width="2" stroke-miterlimit="10"/>
<path d="M210.882 109.479C210.882 109.479 206.44 69.6642 179.347 66.2022C152.254 62.7402 131.959 62.7402 131.959 62.7402" stroke="white" stroke-width="2" stroke-miterlimit="10"/>
<path d="M218.989 113.314C218.989 113.314 169.085 116.407 169.085 129.101C169.085 141.796 169.085 141.796 169.085 141.796L226.489 133.718" stroke="white" stroke-width="2" stroke-miterlimit="10"/>
<path d="M131.266 179.071H169.085V159.267H131.266" stroke="white" stroke-width="2" stroke-miterlimit="10"/>
<path d="M227.915 151.964V190.676H194.298V173.172" stroke="white" stroke-width="2" stroke-miterlimit="10"/>
</g>
</svg>
