<svg width="221" height="212" viewBox="0 0 221 212" fill="none" xmlns="http://www.w3.org/2000/svg">
<path d="M86.962 46.2019H1V112.379H86.962V46.2019Z" stroke="white" stroke-width="2" stroke-miterlimit="10"/>
<path d="M85.3749 45.285L43.8079 2L2.24194 45.285" stroke="white" stroke-width="2" stroke-miterlimit="10"/>
<path d="M43.808 98.7329C54.9255 98.7329 63.938 89.7204 63.938 78.6029C63.938 67.4854 54.9255 58.4729 43.808 58.4729C32.6905 58.4729 23.678 67.4854 23.678 78.6029C23.678 89.7204 32.6905 98.7329 43.808 98.7329Z" stroke="white" stroke-width="2" stroke-miterlimit="10"/>
<path d="M86.9619 113.676V211.42" stroke="white" stroke-width="2" stroke-miterlimit="10"/>
<path d="M87.6669 143.763H2.2959" stroke="white" stroke-width="2" stroke-miterlimit="10"/>
<path d="M87.6669 169.551H2.2959" stroke="white" stroke-width="2" stroke-miterlimit="10"/>
<path d="M87.6669 195.34H2.2959" stroke="white" stroke-width="2" stroke-miterlimit="10"/>
<path d="M83.373 111.921C128.723 111.921 131.962 209.586 219.422 209.586" stroke="white" stroke-width="2" stroke-miterlimit="10"/>
<path d="M219.422 142.95C174.072 142.95 170.833 45.2849 83.373 45.2849" stroke="white" stroke-width="2" stroke-miterlimit="10"/>
<path d="M219.422 143.576V209.586" stroke="white" stroke-width="2" stroke-miterlimit="10"/>
<path d="M1 113.676V210.42" stroke="white" stroke-width="2" stroke-miterlimit="10"/>
</svg>
