<svg width="205" height="236" viewBox="0 0 205 236" fill="none" xmlns="http://www.w3.org/2000/svg">
<path d="M30.2511 224.62C30.7631 224.772 31.1551 225.02 31.4271 225.364C31.6991 225.708 31.8351 226.132 31.8351 226.636C31.8351 227.38 31.5511 227.96 30.9831 228.376C30.4231 228.792 29.6191 229 28.5711 229H24.4311V220.6H28.3431C29.3191 220.6 30.0791 220.788 30.6231 221.164C31.1671 221.54 31.4391 222.076 31.4391 222.772C31.4391 223.188 31.3351 223.556 31.1271 223.876C30.9191 224.188 30.6271 224.436 30.2511 224.62ZM26.3631 224.08H28.1751C28.5991 224.08 28.9191 223.996 29.1351 223.828C29.3511 223.652 29.4591 223.396 29.4591 223.06C29.4591 222.732 29.3471 222.48 29.1231 222.304C28.9071 222.128 28.5911 222.04 28.1751 222.04H26.3631V224.08ZM28.4991 227.56C29.4111 227.56 29.8671 227.2 29.8671 226.48C29.8671 225.784 29.4111 225.436 28.4991 225.436H26.3631V227.56H28.4991ZM34.5725 220.6H36.5045V226.072L40.5125 220.6H42.3365V229H40.4165V223.54L36.4085 229H34.5725V220.6ZM54.2334 227.416V230.74H52.4334V229H46.5054V230.74H44.7054L44.7174 227.416H45.0534C45.5574 227.4 45.9134 227.032 46.1214 226.312C46.3294 225.592 46.4574 224.564 46.5054 223.228L46.6014 220.6H53.0574V227.416H54.2334ZM48.2214 223.408C48.1814 224.408 48.0974 225.248 47.9694 225.928C47.8414 226.6 47.6454 227.096 47.3814 227.416H51.1374V222.184H48.2574L48.2214 223.408ZM63.246 227.44V229H56.742V220.6H63.09V222.16H58.674V223.984H62.574V225.496H58.674V227.44H63.246ZM70.0008 229.144C69.1288 229.144 68.3408 228.956 67.6368 228.58C66.9408 228.204 66.3928 227.688 65.9928 227.032C65.6008 226.368 65.4048 225.624 65.4048 224.8C65.4048 223.976 65.6008 223.236 65.9928 222.58C66.3928 221.916 66.9408 221.396 67.6368 221.02C68.3408 220.644 69.1288 220.456 70.0008 220.456C70.8728 220.456 71.6568 220.644 72.3528 221.02C73.0488 221.396 73.5968 221.916 73.9968 222.58C74.3968 223.236 74.5968 223.976 74.5968 224.8C74.5968 225.624 74.3968 226.368 73.9968 227.032C73.5968 227.688 73.0488 228.204 72.3528 228.58C71.6568 228.956 70.8728 229.144 70.0008 229.144ZM70.0008 227.488C70.4968 227.488 70.9448 227.376 71.3448 227.152C71.7448 226.92 72.0568 226.6 72.2808 226.192C72.5128 225.784 72.6288 225.32 72.6288 224.8C72.6288 224.28 72.5128 223.816 72.2808 223.408C72.0568 223 71.7448 222.684 71.3448 222.46C70.9448 222.228 70.4968 222.112 70.0008 222.112C69.5048 222.112 69.0568 222.228 68.6568 222.46C68.2568 222.684 67.9408 223 67.7088 223.408C67.4848 223.816 67.3728 224.28 67.3728 224.8C67.3728 225.32 67.4848 225.784 67.7088 226.192C67.9408 226.6 68.2568 226.92 68.6568 227.152C69.0568 227.376 69.5048 227.488 70.0008 227.488ZM84.9984 220.6V229H83.0544V225.556H79.2384V229H77.2944V220.6H79.2384V223.912H83.0544V220.6H84.9984ZM93.991 227.2H90.091L89.347 229H87.355L91.099 220.6H93.019L96.775 229H94.735L93.991 227.2ZM93.379 225.724L92.047 222.508L90.715 225.724H93.379ZM99.0889 220.6H105.869V222.148H101.021V223.876H103.349C104.365 223.876 105.137 224.088 105.665 224.512C106.201 224.936 106.469 225.548 106.469 226.348C106.469 227.188 106.173 227.84 105.581 228.304C104.989 228.768 104.153 229 103.073 229H99.0889V220.6ZM102.965 227.56C103.461 227.56 103.841 227.464 104.105 227.272C104.369 227.072 104.501 226.784 104.501 226.408C104.501 225.672 103.989 225.304 102.965 225.304H101.021V227.56H102.965ZM116.437 220.6V229H114.517V222.184H111.637L111.577 223.936C111.537 225.128 111.441 226.096 111.289 226.84C111.137 227.576 110.881 228.144 110.521 228.544C110.169 228.936 109.673 229.132 109.033 229.132C108.769 229.132 108.449 229.088 108.073 229L108.193 227.356C108.297 227.388 108.413 227.404 108.541 227.404C109.005 227.404 109.329 227.132 109.513 226.588C109.697 226.036 109.813 225.176 109.861 224.008L109.981 220.6H116.437ZM127.151 220.456C127.991 220.456 128.747 220.644 129.419 221.02C130.099 221.396 130.631 221.916 131.015 222.58C131.399 223.236 131.591 223.976 131.591 224.8C131.591 225.624 131.399 226.368 131.015 227.032C130.631 227.688 130.099 228.204 129.419 228.58C128.747 228.956 127.991 229.144 127.151 229.144C126.399 229.144 125.711 228.996 125.087 228.7C124.463 228.396 123.947 227.976 123.539 227.44C123.139 226.896 122.883 226.276 122.771 225.58H121.667V229H119.735V220.6H121.667V223.9H122.795C122.923 223.228 123.187 222.632 123.587 222.112C123.995 221.584 124.507 221.176 125.123 220.888C125.739 220.6 126.415 220.456 127.151 220.456ZM127.151 227.488C127.615 227.488 128.035 227.376 128.411 227.152C128.787 226.928 129.083 226.612 129.299 226.204C129.515 225.796 129.623 225.328 129.623 224.8C129.623 224.272 129.515 223.804 129.299 223.396C129.083 222.988 128.787 222.672 128.411 222.448C128.035 222.224 127.615 222.112 127.151 222.112C126.687 222.112 126.267 222.224 125.891 222.448C125.515 222.672 125.219 222.988 125.003 223.396C124.787 223.804 124.679 224.272 124.679 224.8C124.679 225.328 124.787 225.796 125.003 226.204C125.219 226.612 125.515 226.928 125.891 227.152C126.267 227.376 126.687 227.488 127.151 227.488ZM142.736 227.416V230.74H140.936V229H135.008V230.74H133.208L133.22 227.416H133.556C134.06 227.4 134.416 227.032 134.624 226.312C134.832 225.592 134.96 224.564 135.008 223.228L135.104 220.6H141.56V227.416H142.736ZM136.724 223.408C136.684 224.408 136.6 225.248 136.472 225.928C136.344 226.6 136.148 227.096 135.884 227.416H139.64V222.184H136.76L136.724 223.408ZM151.748 227.44V229H145.244V220.6H151.592V222.16H147.176V223.984H151.076V225.496H147.176V227.44H151.748ZM162.223 220.6V229H160.279V225.556H156.463V229H154.519V220.6H156.463V223.912H160.279V220.6H162.223ZM165.527 220.6H167.459V226.072L171.467 220.6H173.291V229H171.371V223.54L167.363 229H165.527V220.6ZM183.087 227.44V229H176.583V220.6H182.931V222.16H178.515V223.984H182.415V225.496H178.515V227.44H183.087Z" fill="#493648"/>
<rect x="1" y="1" width="203" height="201" stroke="#493648" stroke-width="2"/>
<path d="M154 84.7566L147.708 92.3851L139.127 89.525L132.262 108.594L66.6614 88.7614L74.6711 61.4922L154 84.7566Z" stroke="#493648" stroke-width="2" stroke-miterlimit="10"/>
<path d="M144.504 91.3174L139.126 106.305L133.79 104.347" stroke="#493648" stroke-width="2" stroke-miterlimit="10"/>
<path d="M91.6436 95.9761C90.4228 99.3963 92.2048 103.158 95.6251 104.379C99.0453 105.599 102.807 103.817 104.028 100.397" stroke="#493648" stroke-width="2" stroke-miterlimit="10"/>
<path d="M95.625 104.378L69.1404 127.664" stroke="#493648" stroke-width="2" stroke-miterlimit="10"/>
<path d="M69.1403 140.907C76.4539 140.907 82.3827 134.978 82.3827 127.664C82.3827 120.351 76.4539 114.422 69.1403 114.422C61.8268 114.422 55.898 120.351 55.898 127.664C55.898 134.978 61.8268 140.907 69.1403 140.907Z" stroke="#493648" stroke-width="2" stroke-miterlimit="10"/>
</svg>
