<svg width="185" height="218" viewBox="0 0 185 218" fill="none" xmlns="http://www.w3.org/2000/svg">
<path d="M6.08099 77.7891H50.114" stroke="white" stroke-width="2" stroke-miterlimit="10"/>
<path d="M20.134 77.7891L32.313 121.353" stroke="white" stroke-width="2" stroke-miterlimit="10"/>
<path d="M182.682 214.573C182.682 214.573 171.229 129.818 62.293 116.201C6.08 109.174 -16.046 173.241 15.339 216.805" stroke="white" stroke-width="2" stroke-miterlimit="10"/>
<path d="M64.167 197.709C80.7245 197.709 94.147 184.287 94.147 167.729C94.147 151.172 80.7245 137.749 64.167 137.749C47.6095 137.749 34.187 151.172 34.187 167.729C34.187 184.287 47.6095 197.709 64.167 197.709Z" stroke="white" stroke-width="2" stroke-miterlimit="10"/>
<path d="M64.167 167.729L117.569 187.403C117.569 187.403 123.659 181.782 128.343 169.602" stroke="white" stroke-width="2" stroke-miterlimit="10"/>
<path d="M171.44 0.027832C171.44 0.027832 170.972 16.8918 159.261 20.1708C147.55 23.4498 129.749 27.6658 116.633 30.0078" stroke="white" stroke-width="2" stroke-miterlimit="10"/>
<path d="M141.77 24.6606L158.792 96.5257" stroke="white" stroke-width="2" stroke-miterlimit="10"/>
<path d="M182.682 214.573C182.682 214.573 186.43 139.623 169.097 96.5269H146.144C146.144 96.5269 137.244 122.29 116.632 131.659" stroke="white" stroke-width="2" stroke-miterlimit="10"/>
</svg>
