<svg width="205" height="236" viewBox="0 0 205 236" fill="none" xmlns="http://www.w3.org/2000/svg">
<path d="M72.8217 134.835L78.8245 126.78L78.9153 114.898L97.3125 87.1336C97.3125 87.1336 102.231 85.1591 102.522 90.9732" stroke="white" stroke-width="2" stroke-miterlimit="10"/>
<path d="M94.7431 103.374L106.834 84.0967C106.834 84.0967 112.694 81.9479 112.612 88.3943" stroke="white" stroke-width="2" stroke-miterlimit="10"/>
<path d="M102.993 104.347L114.869 85.3593C114.869 85.3593 121.132 82.3666 121.269 89.4236L109.309 107.922" stroke="white" stroke-width="2" stroke-miterlimit="10"/>
<path d="M118.9 93.089C118.9 93.089 125.421 90.7803 124.449 97.2152L110.945 120.804C110.945 120.804 114.202 124.572 117.287 121.931L120.616 117.452C120.616 117.452 123.665 114.558 126.88 117.174L128.795 118.823L110.338 139.422L100.151 140.148L94.0619 147.733" stroke="white" stroke-width="2" stroke-miterlimit="10"/>
<path d="M85.6684 104.707C85.6684 104.707 82.15 86.8113 72.8217 77.2987C72.8217 77.2987 80.6133 67.4433 103.678 66.1371C124.875 64.9374 133.217 54.7969 133.217 54.7969C133.217 54.7969 139.521 63.2091 142.639 84.7302C145.999 107.923 155 114.204 155 114.204C155 114.204 142.637 124.947 122.254 126.123" stroke="white" stroke-width="2" stroke-miterlimit="10"/>
<path d="M70.9279 86.811H51.125" stroke="white" stroke-width="2" stroke-miterlimit="10"/>
<path d="M64.6269 98.0029H75.6085" stroke="white" stroke-width="2" stroke-miterlimit="10"/>
<path d="M16.6663 225.616H15.3223V229H13.3903V220.6H15.3223V223.996H16.7143L18.9223 220.6H20.9743L18.2263 224.656L21.0583 229H18.8503L16.6663 225.616ZM30.8679 220.6V229H28.9479V222.184H26.0679L26.0079 223.936C25.9679 225.128 25.8719 226.096 25.7199 226.84C25.5679 227.576 25.3119 228.144 24.9519 228.544C24.5999 228.936 24.1039 229.132 23.4639 229.132C23.1999 229.132 22.8799 229.088 22.5039 229L22.6239 227.356C22.7279 227.388 22.8439 227.404 22.9719 227.404C23.4359 227.404 23.7599 227.132 23.9439 226.588C24.1279 226.036 24.2439 225.176 24.2919 224.008L24.4119 220.6H30.8679ZM34.1659 220.6H36.0979V226.072L40.1059 220.6H41.9299V229H40.0099V223.54L36.0019 229H34.1659V220.6ZM52.9253 220.6V229H50.9813V225.556H47.1653V229H45.2213V220.6H47.1653V223.912H50.9813V220.6H52.9253ZM56.2299 220.6H58.1619V226.072L62.1699 220.6H63.9939V229H62.0739V223.54L58.0659 229H56.2299V220.6ZM74.9894 220.6V229H73.0454V225.556H69.2294V229H67.2854V220.6H69.2294V223.912H73.0454V220.6H74.9894ZM84.21 222.184H80.214L80.226 229H78.294V220.6H84.222L84.21 222.184ZM89.7598 229.144C88.8878 229.144 88.0998 228.956 87.3958 228.58C86.6998 228.204 86.1518 227.688 85.7518 227.032C85.3598 226.368 85.1638 225.624 85.1638 224.8C85.1638 223.976 85.3598 223.236 85.7518 222.58C86.1518 221.916 86.6998 221.396 87.3958 221.02C88.0998 220.644 88.8878 220.456 89.7598 220.456C90.6318 220.456 91.4158 220.644 92.1118 221.02C92.8078 221.396 93.3558 221.916 93.7558 222.58C94.1558 223.236 94.3558 223.976 94.3558 224.8C94.3558 225.624 94.1558 226.368 93.7558 227.032C93.3558 227.688 92.8078 228.204 92.1118 228.58C91.4158 228.956 90.6318 229.144 89.7598 229.144ZM89.7598 227.488C90.2558 227.488 90.7038 227.376 91.1038 227.152C91.5038 226.92 91.8158 226.6 92.0398 226.192C92.2718 225.784 92.3878 225.32 92.3878 224.8C92.3878 224.28 92.2718 223.816 92.0398 223.408C91.8158 223 91.5038 222.684 91.1038 222.46C90.7038 222.228 90.2558 222.112 89.7598 222.112C89.2638 222.112 88.8158 222.228 88.4158 222.46C88.0158 222.684 87.6998 223 87.4678 223.408C87.2438 223.816 87.1318 224.28 87.1318 224.8C87.1318 225.32 87.2438 225.784 87.4678 226.192C87.6998 226.6 88.0158 226.92 88.4158 227.152C88.8158 227.376 89.2638 227.488 89.7598 227.488ZM102.873 224.62C103.385 224.772 103.777 225.02 104.049 225.364C104.321 225.708 104.457 226.132 104.457 226.636C104.457 227.38 104.173 227.96 103.605 228.376C103.045 228.792 102.241 229 101.193 229H97.0534V220.6H100.965C101.941 220.6 102.701 220.788 103.245 221.164C103.789 221.54 104.061 222.076 104.061 222.772C104.061 223.188 103.957 223.556 103.749 223.876C103.541 224.188 103.249 224.436 102.873 224.62ZM98.9854 224.08H100.797C101.221 224.08 101.541 223.996 101.757 223.828C101.973 223.652 102.081 223.396 102.081 223.06C102.081 222.732 101.969 222.48 101.745 222.304C101.529 222.128 101.213 222.04 100.797 222.04H98.9854V224.08ZM101.121 227.56C102.033 227.56 102.489 227.2 102.489 226.48C102.489 225.784 102.033 225.436 101.121 225.436H98.9854V227.56H101.121ZM112.883 227.2H108.983L108.239 229H106.247L109.991 220.6H111.911L115.667 229H113.627L112.883 227.2ZM112.271 225.724L110.939 222.508L109.607 225.724H112.271ZM124.255 220.6V229H122.335V226.768H120.559L119.071 229H117.019L118.771 226.468C118.203 226.236 117.767 225.888 117.463 225.424C117.159 224.952 117.007 224.388 117.007 223.732C117.007 223.084 117.155 222.528 117.451 222.064C117.747 221.592 118.167 221.232 118.711 220.984C119.255 220.728 119.895 220.6 120.631 220.6H124.255ZM120.679 222.184C120.127 222.184 119.703 222.312 119.407 222.568C119.119 222.824 118.975 223.204 118.975 223.708C118.975 224.196 119.115 224.572 119.395 224.836C119.675 225.1 120.087 225.232 120.631 225.232H122.335V222.184H120.679ZM136.13 229.144C135.274 229.144 134.498 228.96 133.802 228.592C133.114 228.216 132.57 227.7 132.17 227.044C131.778 226.38 131.582 225.632 131.582 224.8C131.582 223.968 131.778 223.224 132.17 222.568C132.57 221.904 133.114 221.388 133.802 221.02C134.498 220.644 135.278 220.456 136.142 220.456C136.87 220.456 137.526 220.584 138.11 220.84C138.702 221.096 139.198 221.464 139.598 221.944L138.35 223.096C137.782 222.44 137.078 222.112 136.238 222.112C135.718 222.112 135.254 222.228 134.846 222.46C134.438 222.684 134.118 223 133.886 223.408C133.662 223.816 133.55 224.28 133.55 224.8C133.55 225.32 133.662 225.784 133.886 226.192C134.118 226.6 134.438 226.92 134.846 227.152C135.254 227.376 135.718 227.488 136.238 227.488C137.078 227.488 137.782 227.156 138.35 226.492L139.598 227.644C139.198 228.132 138.702 228.504 138.11 228.76C137.518 229.016 136.858 229.144 136.13 229.144ZM149.354 220.6V229H147.434V222.184H144.554L144.494 223.936C144.454 225.128 144.358 226.096 144.206 226.84C144.054 227.576 143.798 228.144 143.438 228.544C143.086 228.936 142.59 229.132 141.95 229.132C141.686 229.132 141.366 229.088 140.99 229L141.11 227.356C141.214 227.388 141.33 227.404 141.458 227.404C141.922 227.404 142.246 227.132 142.43 226.588C142.614 226.036 142.73 225.176 142.778 224.008L142.898 220.6H149.354ZM160.236 220.6L156.66 227.248C156.316 227.888 155.9 228.372 155.412 228.7C154.932 229.028 154.408 229.192 153.84 229.192C153.4 229.192 152.944 229.096 152.472 228.904L152.94 227.428C153.276 227.532 153.556 227.584 153.78 227.584C154.02 227.584 154.236 227.528 154.428 227.416C154.62 227.296 154.796 227.112 154.956 226.864L155.028 226.768L151.716 220.6H153.792L156.024 225.112L158.328 220.6H160.236ZM169.839 225.616H168.615V229H166.707V225.616H165.459L163.575 229H161.331L163.851 224.608L161.487 220.6H163.539L165.423 223.996H166.707V220.6H168.615V223.996H169.863L171.759 220.6H173.811L171.459 224.608L173.967 229H171.723L169.839 225.616ZM176.099 220.6H182.879V222.148H178.031V223.876H180.359C181.375 223.876 182.147 224.088 182.675 224.512C183.211 224.936 183.479 225.548 183.479 226.348C183.479 227.188 183.183 227.84 182.591 228.304C181.999 228.768 181.163 229 180.083 229H176.099V220.6ZM179.975 227.56C180.471 227.56 180.851 227.464 181.115 227.272C181.379 227.072 181.511 226.784 181.511 226.408C181.511 225.672 180.999 225.304 179.975 225.304H178.031V227.56H179.975ZM191.776 227.2H187.876L187.132 229H185.14L188.884 220.6H190.804L194.56 229H192.52L191.776 227.2ZM191.164 225.724L189.832 222.508L188.5 225.724H191.164Z" fill="white"/>
<rect x="1" y="1" width="203" height="201" stroke="white" stroke-width="2"/>
</svg>
