<svg width="230" height="191" viewBox="0 0 230 191" fill="none" xmlns="http://www.w3.org/2000/svg">
<g opacity="0.6">
<path d="M51.994 127.066C61.943 132.717 71.498 124.023 71.498 114.025C71.498 104.027 62.643 97.5059 51.994 97.5059C41.345 97.5059 26.906 108.772 26.906 127.7C26.906 146.628 43.044 157.93 60.032 157.93C77.02 157.93 96.98 141.411 96.98 115.763C96.98 90.1149 76.595 68.8149 49.839 68.8149C23.083 68.8149 1 95.7669 1 125.762C1 155.757 21.81 189.23 60.881 189.23C77.444 189.23 90.609 182.275 90.609 182.275L135.489 142.459" stroke="white" stroke-width="2" stroke-miterlimit="10"/>
<path d="M33.83 72.173L136.901 1C136.901 1 204.002 1 196.286 74.711L182.343 91.42" stroke="white" stroke-width="2" stroke-miterlimit="10"/>
<path d="M172.156 84.03C183.983 84.03 186.775 118.922 186.775 118.922C186.775 118.922 224.976 112.989 228.631 124.503C232.286 136.016 195.81 147.385 195.81 147.385C195.81 147.385 214.545 180.742 204.977 187.858C195.409 194.974 172.156 164.976 172.156 164.976C172.156 164.976 148.904 194.974 139.335 187.858C129.767 180.742 148.502 147.385 148.502 147.385C148.502 147.385 112.027 136.016 115.681 124.503C119.336 112.99 157.537 118.922 157.537 118.922C157.537 118.922 160.329 84.03 172.156 84.03Z" stroke="white" stroke-width="2" stroke-miterlimit="10"/>
<path d="M172.156 153.503C179.853 153.503 186.092 147.116 186.092 139.238C186.092 131.36 179.853 124.973 172.156 124.973C164.459 124.973 158.22 131.36 158.22 139.238C158.22 147.116 164.459 153.503 172.156 153.503Z" stroke="white" stroke-width="2" stroke-miterlimit="10"/>
</g>
</svg>
