<svg width="167" height="78" viewBox="0 0 167 78" fill="none" xmlns="http://www.w3.org/2000/svg">
<path d="M88 1H152V1H88V1Z" stroke="#BAA9A8" stroke-width="2" stroke-miterlimit="10"/>
<path d="M167 1.41553H0.509033" stroke="#BAA9A8" stroke-width="2" stroke-miterlimit="10"/>
<path d="M131 1H108H113.187H125.814H131Z" stroke="#BAA9A8" stroke-width="2" stroke-miterlimit="10"/>
<path d="M127 1C127 1 123.642 1 119.5 1C115.358 1 112 1 112 1C112 1 115.358 1 119.5 1C123.642 1 127 1 127 1Z" stroke="#BAA9A8" stroke-width="2" stroke-miterlimit="10"/>
<path d="M59.6226 1.1001V1.11972C59.6226 1.15475 54.7447 1.18316 48.7261 1.18316C42.7088 1.18316 37.8296 1.15476 37.8296 1.11972V1.1001" stroke="#BAA9A8" stroke-width="2" stroke-miterlimit="10"/>
<path d="M36.3509 1.07205C36.3509 1.03225 41.8922 1 48.7261 1C55.5612 1 61.1013 1.03225 61.1013 1.07205C61.1013 1.08478 59.6226 1.10274 59.6226 1.10274L57.4033 1.05968C57.4033 1.05968 54.6624 1.06451 48.7932 1.06451C42.924 1.06451 40.7351 1.04991 40.7351 1.04991L37.8296 1.10689C37.8308 1.10689 36.3509 1.09328 36.3509 1.07205Z" stroke="#BAA9A8" stroke-width="2" stroke-miterlimit="10"/>
<path d="M42.0656 1.16992V1.20072L36.1192 1.23205L24.2504 1.26153C24.2504 1.26153 18.8699 1.27443 18.8699 1.31128C18.8699 1.34813 18.8699 1.41539 18.8699 1.41539" stroke="#BAA9A8" stroke-width="2" stroke-miterlimit="10"/>
<path d="M42.0656 1.20068L48.7261 1.2403L42.0656 1.27806" stroke="#BAA9A8" stroke-width="2" stroke-miterlimit="10"/>
<path d="M36.1192 1.23242L52.8938 1.36233V1.41576" stroke="#BAA9A8" stroke-width="2" stroke-miterlimit="10"/>
<path d="M55.4536 1.16992V1.20072L61.4 1.23205L73.2688 1.26153C73.2688 1.26153 78.6493 1.27443 78.6493 1.31128C78.6493 1.34813 78.6493 1.41539 78.6493 1.41539" stroke="#BAA9A8" stroke-width="2" stroke-miterlimit="10"/>
<path d="M55.4536 1.20068L48.7932 1.2403L55.4536 1.27806" stroke="#BAA9A8" stroke-width="2" stroke-miterlimit="10"/>
<path d="M61.4 1.23242L48.7932 1.33005" stroke="#BAA9A8" stroke-width="2" stroke-miterlimit="10"/>
<path d="M13.8033 1.41553V78" stroke="#BAA9A8" stroke-width="2" stroke-miterlimit="10"/>
<path d="M156.715 1.41553V78" stroke="#BAA9A8" stroke-width="2" stroke-miterlimit="10"/>
</svg>
