<svg width="220" height="168" viewBox="0 0 220 168" fill="none" xmlns="http://www.w3.org/2000/svg">
<path d="M6 2H1V7H6V2Z" stroke="white" stroke-width="2" stroke-miterlimit="10"/>
<path d="M6 164H3.99998H2" stroke="white" stroke-width="2" stroke-miterlimit="10"/>
<path d="M44 35C44.5523 35 45 34.5523 45 34C45 33.4477 44.5523 33 44 33C43.4477 33 43 33.4477 43 34C43 34.5523 43.4477 35 44 35Z" stroke="white" stroke-width="2" stroke-miterlimit="10"/>
<path d="M87.9619 165.864L86.9619 166.864" stroke="white" stroke-width="2" stroke-miterlimit="10"/>
<path d="M3 164H2" stroke="white" stroke-width="2" stroke-miterlimit="10"/>
<path d="M2 164L2 166" stroke="white" stroke-width="2" stroke-miterlimit="10"/>
<path d="M3 166H2" stroke="white" stroke-width="2" stroke-miterlimit="10"/>
<path d="M83 67C84.3333 67 84.4286 69 87 69" stroke="white" stroke-width="2" stroke-miterlimit="10"/>
<path d="M87 2C85.6667 2 85.5714 1 83 1" stroke="white" stroke-width="2" stroke-miterlimit="10"/>
<path d="M219 164L219 165" stroke="white" stroke-width="2" stroke-miterlimit="10"/>
<path d="M1 166H-4.48221e-08" stroke="white" stroke-width="2" stroke-miterlimit="10"/>
</svg>
