<svg width="23" height="27" viewBox="0 0 23 27" fill="none" xmlns="http://www.w3.org/2000/svg">
<path d="M0.809082 10.3359H6.80908" stroke="#362633" stroke-miterlimit="10"/>
<path d="M2.93103 10.0708L4.34903 15.1448" stroke="#362633" stroke-miterlimit="10"/>
<path d="M21.863 26.3359C21.863 26.3359 20.529 16.4639 7.84103 14.8779C1.29403 14.0599 -1.54297 21.3359 2.11203 26.3359H21.863Z" stroke="#362633" stroke-miterlimit="10"/>
<path d="M8.05902 24.038C9.9876 24.038 11.551 22.4745 11.551 20.546C11.551 18.6174 9.9876 17.054 8.05902 17.054C6.13044 17.054 4.56702 18.6174 4.56702 20.546C4.56702 22.4745 6.13044 24.038 8.05902 24.038Z" stroke="#362633" stroke-miterlimit="10"/>
<path d="M8.05908 20.5459L14.2791 22.8379C14.2791 22.8379 14.9881 22.1829 15.5341 20.7649" stroke="#362633" stroke-miterlimit="10"/>
<path d="M20.5531 1.01392C20.5531 1.01392 20.4981 2.97792 19.1341 3.35992C17.7701 3.74192 15.6971 4.23292 14.1691 4.50592" stroke="#362633" stroke-miterlimit="10"/>
<path d="M17.098 3.88281L19.08 12.2528" stroke="#362633" stroke-miterlimit="10"/>
<path d="M21.863 26.0439C21.863 26.0439 22.299 17.3359 20.281 12.3359H17.608C17.608 12.3359 16.571 15.3159 14.171 16.4069" stroke="#362633" stroke-miterlimit="10"/>
</svg>
