<svg width="29" height="24" viewBox="0 0 29 24" fill="none" xmlns="http://www.w3.org/2000/svg">
<path d="M7.068 15.6541C8.252 16.3111 9.389 15.3001 9.389 14.1381C9.389 12.9761 8.335 12.2181 7.068 12.2181C5.801 12.2181 4.083 13.5281 4.083 15.7281C4.083 17.9281 6.003 19.2421 8.025 19.2421C10.047 19.2421 12.421 17.3221 12.421 14.3401C12.421 11.3581 9.995 8.88306 6.811 8.88306C3.627 8.88306 1 12.0161 1 15.5031C1 18.9901 3.476 22.8811 8.125 22.8811C10.096 22.8811 11.662 22.0721 11.662 22.0721L17.002 17.4441" stroke="#362633" stroke-miterlimit="10"/>
<path d="M4.90601 9.273L17.17 1C17.17 1 25.154 1 24.236 9.569L22.577 11.511" stroke="#362633" stroke-miterlimit="10"/>
<path d="M21.365 10.6521C22.772 10.6521 23.104 14.7081 23.104 14.7081C23.104 14.7081 27.649 14.0181 28.084 15.3571C28.519 16.6961 24.179 18.0171 24.179 18.0171C24.179 18.0171 26.408 21.8951 25.27 22.7221C24.132 23.5491 21.365 20.0621 21.365 20.0621C21.365 20.0621 18.598 23.5491 17.46 22.7221C16.322 21.8951 18.551 18.0171 18.551 18.0171C18.551 18.0171 14.211 16.6951 14.646 15.3571C15.081 14.0191 19.626 14.7081 19.626 14.7081C19.626 14.7081 19.958 10.6521 21.365 10.6521Z" stroke="#362633" stroke-miterlimit="10"/>
<path d="M21.365 18.7281C22.2807 18.7281 23.023 17.9858 23.023 17.0701C23.023 16.1544 22.2807 15.4121 21.365 15.4121C20.4493 15.4121 19.707 16.1544 19.707 17.0701C19.707 17.9858 20.4493 18.7281 21.365 18.7281Z" stroke="#362633" stroke-miterlimit="10"/>
</svg>
