<svg width="160" height="82" viewBox="0 0 160 82" fill="none" xmlns="http://www.w3.org/2000/svg">
<path d="M21.5969 40.792C32.5852 40.792 41.4929 31.8843 41.4929 20.896C41.4929 9.90774 32.5852 1 21.5969 1C10.6087 1 1.70093 9.90774 1.70093 20.896C1.70093 31.8843 10.6087 40.792 21.5969 40.792Z" stroke="white" stroke-width="2" stroke-miterlimit="10"/>
<path d="M98.5029 40.792C109.491 40.792 118.399 31.8843 118.399 20.896C118.399 9.90774 109.491 1 98.5029 1C87.5147 1 78.6069 9.90774 78.6069 20.896C78.6069 31.8843 87.5147 40.792 98.5029 40.792Z" stroke="white" stroke-width="2" stroke-miterlimit="10"/>
<path d="M59.4631 33.3509C66.3418 33.3509 71.9181 27.7746 71.9181 20.8959C71.9181 14.0172 66.3418 8.44092 59.4631 8.44092C52.5843 8.44092 47.0081 14.0172 47.0081 20.8959C47.0081 27.7746 52.5843 33.3509 59.4631 33.3509Z" stroke="white" stroke-width="2" stroke-miterlimit="10"/>
<path d="M21.3479 31.0942C26.9801 31.0942 31.5459 26.5284 31.5459 20.8962C31.5459 15.264 26.9801 10.6982 21.3479 10.6982C15.7157 10.6982 11.1499 15.264 11.1499 20.8962C11.1499 26.5284 15.7157 31.0942 21.3479 31.0942Z" stroke="white" stroke-width="2" stroke-miterlimit="10"/>
<path d="M98.5029 31.0942C104.135 31.0942 108.701 26.5284 108.701 20.8962C108.701 15.264 104.135 10.6982 98.5029 10.6982C92.8707 10.6982 88.3049 15.264 88.3049 20.8962C88.3049 26.5284 92.8707 31.0942 98.5029 31.0942Z" stroke="white" stroke-width="2" stroke-miterlimit="10"/>
<path d="M60.802 80.584C71.7903 80.584 80.698 71.6763 80.698 60.688C80.698 49.6997 71.7903 40.792 60.802 40.792C49.8138 40.792 40.906 49.6997 40.906 60.688C40.906 71.6763 49.8138 80.584 60.802 80.584Z" stroke="white" stroke-width="2" stroke-miterlimit="10"/>
<path d="M21.7619 73.1429C28.6406 73.1429 34.2169 67.5666 34.2169 60.6879C34.2169 53.8092 28.6406 48.2329 21.7619 48.2329C14.8832 48.2329 9.30688 53.8092 9.30688 60.6879C9.30688 67.5666 14.8832 73.1429 21.7619 73.1429Z" stroke="white" stroke-width="2" stroke-miterlimit="10"/>
<path d="M60.802 70.8862C66.4342 70.8862 71 66.3204 71 60.6882C71 55.056 66.4342 50.4902 60.802 50.4902C55.1698 50.4902 50.604 55.056 50.604 60.6882C50.604 66.3204 55.1698 70.8862 60.802 70.8862Z" stroke="white" stroke-width="2" stroke-miterlimit="10"/>
<path d="M136.662 33.3509C143.541 33.3509 149.117 27.7746 149.117 20.8959C149.117 14.0172 143.541 8.44092 136.662 8.44092C129.783 8.44092 124.207 14.0172 124.207 20.8959C124.207 27.7746 129.783 33.3509 136.662 33.3509Z" stroke="white" stroke-width="2" stroke-miterlimit="10"/>
<path d="M98.9621 73.1429C105.841 73.1429 111.417 67.5666 111.417 60.6879C111.417 53.8092 105.841 48.2329 98.9621 48.2329C92.0834 48.2329 86.5071 53.8092 86.5071 60.6879C86.5071 67.5666 92.0834 73.1429 98.9621 73.1429Z" stroke="white" stroke-width="2" stroke-miterlimit="10"/>
<path d="M138.583 80.584C149.571 80.584 158.479 71.6763 158.479 60.688C158.479 49.6997 149.571 40.792 138.583 40.792C127.595 40.792 118.687 49.6997 118.687 60.688C118.687 71.6763 127.595 80.584 138.583 80.584Z" stroke="white" stroke-width="2" stroke-miterlimit="10"/>
<path d="M138.335 70.8862C143.967 70.8862 148.533 66.3204 148.533 60.6882C148.533 55.056 143.967 50.4902 138.335 50.4902C132.703 50.4902 128.137 55.056 128.137 60.6882C128.137 66.3204 132.703 70.8862 138.335 70.8862Z" stroke="white" stroke-width="2" stroke-miterlimit="10"/>
</svg>
