<svg width="32" height="23" viewBox="0 0 32 23" fill="none" xmlns="http://www.w3.org/2000/svg">
<path d="M11 20.5C11 20.5 9.643 20.5 7.094 20.5C4.545 20.5 4.5 17.824 4.5 17.824V14.135C4.5 14.135 6.012 13.2 6.535 13.061C8.804 12.458 15.811 12.633 15.811 12.633" stroke="#362633" stroke-miterlimit="10"/>
<path d="M6.69202 13.0609C6.69202 13.0609 7.22102 8.43293 10.444 8.02993C13.668 7.62793 16.083 7.62793 16.083 7.62793" stroke="#362633" stroke-miterlimit="10"/>
<path d="M5.88297 13.5071C5.88297 13.5071 11.5 13.8661 11.5 15.3421C11.5 16.8181 11.5 16.8181 11.5 16.8181L4.94897 15.8791" stroke="#362633" stroke-miterlimit="10"/>
<path d="M16 21.5H11.5V18.5H16" stroke="#362633" stroke-miterlimit="10"/>
<path d="M4.5 18V22.5H9.5V20" stroke="#362633" stroke-miterlimit="10"/>
<path d="M31.5 23V5.348L16.214 0.5H15.934L0.5 5.348V23" stroke="#362633" stroke-miterlimit="10"/>
<path d="M21 20.5C21 20.5 22.522 20.5 25.071 20.5C27.62 20.5 27.5 17.824 27.5 17.824V14.135C27.5 14.135 26.07 13.2 25.548 13.061C23.279 12.458 16.231 12.633 16.231 12.633" stroke="#362633" stroke-miterlimit="10"/>
<path d="M25.473 13.0609C25.473 13.0609 24.944 8.43293 21.721 8.02993C18.497 7.62793 16.082 7.62793 16.082 7.62793" stroke="#362633" stroke-miterlimit="10"/>
<path d="M26.2 13.5071C26.2 13.5071 20.5 13.8661 20.5 15.3421C20.5 16.8181 20.5 16.8181 20.5 16.8181L27.092 15.8791" stroke="#362633" stroke-miterlimit="10"/>
<path d="M16 21.5H20.5V18.5H16" stroke="#362633" stroke-miterlimit="10"/>
<path d="M27.5 18V22.5H23.5V20" stroke="#362633" stroke-miterlimit="10"/>
</svg>
