<svg width="82" height="82" viewBox="0 0 82 82" fill="none" xmlns="http://www.w3.org/2000/svg">
<path d="M40.792 1H1V40.792H40.792V1Z" stroke="white" stroke-width="2" stroke-miterlimit="10"/>
<path d="M80.5549 41.062H40.7629V80.854H80.5549V41.062Z" stroke="white" stroke-width="2" stroke-miterlimit="10"/>
<path d="M74.9681 6.58691H46.3501V35.2049H74.9681V6.58691Z" stroke="white" stroke-width="2" stroke-miterlimit="10"/>
<path d="M68.8569 12.6992H52.4619V29.0942H68.8569V12.6992Z" stroke="white" stroke-width="2" stroke-miterlimit="10"/>
<path d="M35.2049 6.58691H6.58691V35.2049H35.2049V6.58691Z" stroke="white" stroke-width="2" stroke-miterlimit="10"/>
<path d="M29.094 12.6992H12.699V29.0942H29.094V12.6992Z" stroke="white" stroke-width="2" stroke-miterlimit="10"/>
<path d="M34.453 47.127H5.83496V75.745H34.453V47.127Z" stroke="white" stroke-width="2" stroke-miterlimit="10"/>
<path d="M28.341 53.2378H11.946V69.6328H28.341V53.2378Z" stroke="white" stroke-width="2" stroke-miterlimit="10"/>
<path d="M74.9681 47.127H46.3501V75.745H74.9681V47.127Z" stroke="white" stroke-width="2" stroke-miterlimit="10"/>
<path d="M68.8569 53.2378H52.4619V69.6328H68.8569V53.2378Z" stroke="white" stroke-width="2" stroke-miterlimit="10"/>
</svg>
