<svg width="27" height="28" viewBox="0 0 27 28" fill="none" xmlns="http://www.w3.org/2000/svg">
<path d="M11 7.18896H1V14.189H11V7.18896Z" stroke="#362633" stroke-miterlimit="10"/>
<path d="M10.583 6.734L5.97995 1L1.37695 6.734" stroke="#362633" stroke-miterlimit="10"/>
<path d="M5.97994 12.9511C7.27339 12.9511 8.32194 11.9025 8.32194 10.6091C8.32194 9.31564 7.27339 8.26709 5.97994 8.26709C4.68649 8.26709 3.63794 9.31564 3.63794 10.6091C3.63794 11.9025 4.68649 12.9511 5.97994 12.9511Z" stroke="#362633" stroke-miterlimit="10"/>
<path d="M11 14.689V27.689" stroke="#362633" stroke-miterlimit="10"/>
<path d="M10.5 18.189H1.5" stroke="#362633" stroke-miterlimit="10"/>
<path d="M10.5 21.189H1.5" stroke="#362633" stroke-miterlimit="10"/>
<path d="M10.5 24.189H1.5" stroke="#362633" stroke-miterlimit="10"/>
<path d="M10.583 14.4851C15.859 14.4851 16.235 27.2431 26.41 27.2431" stroke="#362633" stroke-miterlimit="10"/>
<path d="M26.409 19.4919C21.133 19.4919 20.757 6.73389 10.582 6.73389" stroke="#362633" stroke-miterlimit="10"/>
<path d="M26 19.689V27.689" stroke="#362633" stroke-miterlimit="10"/>
<path d="M1 14.689V27.689" stroke="#362633" stroke-miterlimit="10"/>
</svg>
