<svg width="1642" height="23" viewBox="0 0 1642 23" fill="none" xmlns="http://www.w3.org/2000/svg">
<path d="M1642 6.89798V23H0V6.89798C93.94 23.6305 132.052 -12.2969 231.341 5.39144L223.272 3.94287C317.212 20.6754 354.314 -12.2969 453.623 5.39144L445.555 3.94287C538.165 20.4389 575.537 -11.3805 671.747 4.67208L667.608 3.94287C761.528 20.6754 798.63 -12.2969 897.949 5.39144L889.87 3.94287C983.81 20.6754 1020.92 -12.2969 1120.21 5.39144L1112.14 3.94287C1206.08 20.6754 1243.19 -12.2969 1342.48 5.39144V5.61711C1428.97 18.27 1466.93 -11.6377 1562.5 5.39046L1554.44 3.94188C1589.93 10.2683 1616.32 9.36154 1642 6.89798Z" fill="#E9EAEE"/>
</svg>
