<svg width="84" height="83" viewBox="0 0 84 83" fill="none" xmlns="http://www.w3.org/2000/svg">
<path d="M41.5579 1H1.27295V41.285H41.5579V1Z" stroke="white" stroke-width="2" stroke-miterlimit="10"/>
<path d="M72.964 9.87891H50.438V32.4049H72.964V9.87891Z" stroke="white" stroke-width="2" stroke-miterlimit="10"/>
<path d="M21.4159 35.596C29.3986 35.596 35.8699 29.1247 35.8699 21.142C35.8699 13.1593 29.3986 6.68799 21.4159 6.68799C13.4332 6.68799 6.96191 13.1593 6.96191 21.142C6.96191 29.1247 13.4332 35.596 21.4159 35.596Z" stroke="white" stroke-width="2" stroke-miterlimit="10"/>
<path d="M61.7011 41.284C72.8252 41.284 81.8431 32.2661 81.8431 21.142C81.8431 10.0179 72.8252 1 61.7011 1C50.577 1 41.5591 10.0179 41.5591 21.142C41.5591 32.2661 50.577 41.284 61.7011 41.284Z" stroke="white" stroke-width="2" stroke-miterlimit="10"/>
<path d="M32.4049 50.1641H9.87891V72.6901H32.4049V50.1641Z" stroke="white" stroke-width="2" stroke-miterlimit="10"/>
<path d="M82.1161 41.2849H41.8311V81.5699H82.1161V41.2849Z" stroke="white" stroke-width="2" stroke-miterlimit="10"/>
<path d="M61.974 75.8809C69.9567 75.8809 76.428 69.4096 76.428 61.4269C76.428 53.4442 69.9567 46.9729 61.974 46.9729C53.9913 46.9729 47.52 53.4442 47.52 61.4269C47.52 69.4096 53.9913 75.8809 61.974 75.8809Z" stroke="white" stroke-width="2" stroke-miterlimit="10"/>
<path d="M21.142 81.5689C32.2661 81.5689 41.284 72.551 41.284 61.4269C41.284 50.3028 32.2661 41.2849 21.142 41.2849C10.0179 41.2849 1 50.3028 1 61.4269C1 72.551 10.0179 81.5689 21.142 81.5689Z" stroke="white" stroke-width="2" stroke-miterlimit="10"/>
</svg>
