<svg width="1403" height="77" viewBox="0 0 1403 77" fill="none" xmlns="http://www.w3.org/2000/svg">
<path d="M1332.44 70.0396C1335.95 70.6796 1339.4 71.2396 1342.77 71.7396C1429.26 84.5796 1467.24 54.2296 1562.83 71.5096L1554.77 70.0396C1648.71 87.0196 1685.82 53.5596 1785.16 71.5096L1777.08 70.0396C1869.72 86.7796 1907.11 54.4896 2003.33 70.7796L1999.18 70.0396C2093.14 87.0196 2130.26 53.5596 2229.57 71.5096L2221.5 70.0396C2315.46 87.0196 2352.57 53.5596 2451.89 71.5096L2443.83 70.0396C2537.77 87.0196 2574.88 53.5596 2674.22 71.5096" stroke="white" stroke-width="2" stroke-miterlimit="10"/>
<path d="M1 70.0396C94.961 87.0196 132.074 53.5596 231.391 71.5096L223.315 70.0396C317.276 87.0196 354.389 53.5596 453.723 71.5096L445.647 70.0396C538.281 86.7796 575.66 54.4896 671.892 70.7796L667.746 70.0396C761.69 87.0196 798.803 53.5596 898.137 71.5096L890.061 70.0396C984.022 87.0196 1021.14 53.5596 1120.45 71.5096L1112.38 70.0396C1206.34 87.0196 1243.45 53.5596 1342.77 71.5096" stroke="white" stroke-width="2" stroke-miterlimit="10"/>
<path d="M1332.44 40.0215C1335.95 40.6615 1339.4 41.2215 1342.77 41.7215C1429.26 54.5615 1467.24 24.2115 1562.83 41.4915L1554.77 40.0215C1648.71 57.0015 1685.82 23.5415 1785.16 41.4915L1777.08 40.0215C1869.72 56.7615 1907.11 24.4715 2003.33 40.7615L1999.18 40.0215C2093.14 57.0015 2130.26 23.5415 2229.57 41.4915L2221.5 40.0215C2315.46 57.0015 2352.57 23.5415 2451.89 41.4915L2443.83 40.0215C2537.77 57.0015 2574.88 23.5415 2674.22 41.4915" stroke="white" stroke-width="2" stroke-miterlimit="10"/>
<path d="M1 40.0215C94.961 57.0015 132.074 23.5415 231.391 41.4915L223.315 40.0215C317.276 57.0015 354.389 23.5415 453.723 41.4915L445.647 40.0215C538.281 56.7615 575.66 24.4715 671.892 40.7615L667.746 40.0215C761.69 57.0015 798.803 23.5415 898.137 41.4915L890.061 40.0215C984.022 57.0015 1021.14 23.5415 1120.45 41.4915L1112.38 40.0215C1206.34 57.0015 1243.45 23.5415 1342.77 41.4915" stroke="white" stroke-width="2" stroke-miterlimit="10"/>
<path d="M1332.44 20.0093C1335.95 20.6493 1339.4 21.2093 1342.77 21.7093C1429.26 34.5493 1467.24 4.1993 1562.83 21.4793L1554.77 20.0093C1648.71 36.9893 1685.82 3.5293 1785.16 21.4793L1777.08 20.0093C1869.72 36.7493 1907.11 4.4593 2003.33 20.7493L1999.18 20.0093C2093.14 36.9893 2130.26 3.5293 2229.57 21.4793L2221.5 20.0093C2315.46 36.9893 2352.57 3.5293 2451.89 21.4793L2443.83 20.0093C2537.77 36.9893 2574.88 3.5293 2674.22 21.4793" stroke="white" stroke-width="2" stroke-miterlimit="10"/>
<path d="M1 20.0093C94.961 36.9893 132.074 3.5293 231.391 21.4793L223.315 20.0093C317.276 36.9893 354.389 3.5293 453.723 21.4793L445.647 20.0093C538.281 36.7493 575.66 4.4593 671.892 20.7493L667.746 20.0093C761.69 36.9893 798.803 3.5293 898.137 21.4793L890.061 20.0093C984.022 36.9893 1021.14 3.5293 1120.45 21.4793L1112.38 20.0093C1206.34 36.9893 1243.45 3.5293 1342.77 21.4793" stroke="white" stroke-width="2" stroke-miterlimit="10"/>
<path d="M1332.44 10.0034C1335.95 10.6434 1339.4 11.2034 1342.77 11.7034C1429.26 24.5434 1467.24 -5.80656 1562.83 11.4734L1554.77 10.0034C1648.71 26.9834 1685.82 -6.47656 1785.16 11.4734L1777.08 10.0034C1869.72 26.7434 1907.11 -5.54656 2003.33 10.7434L1999.18 10.0034C2093.14 26.9834 2130.26 -6.47656 2229.57 11.4734L2221.5 10.0034C2315.46 26.9834 2352.57 -6.47656 2451.89 11.4734L2443.83 10.0034C2537.77 26.9834 2574.88 -6.47656 2674.22 11.4734" stroke="white" stroke-width="2" stroke-miterlimit="10"/>
<path d="M1 10.0034C94.961 26.9834 132.074 -6.47656 231.391 11.4734L223.315 10.0034C317.276 26.9834 354.389 -6.47656 453.723 11.4734L445.647 10.0034C538.281 26.7434 575.66 -5.54656 671.892 10.7434L667.746 10.0034C761.69 26.9834 798.803 -6.47656 898.137 11.4734L890.061 10.0034C984.022 26.9834 1021.14 -6.47656 1120.45 11.4734L1112.38 10.0034C1206.34 26.9834 1243.45 -6.47656 1342.77 11.4734" stroke="white" stroke-width="2" stroke-miterlimit="10"/>
<path d="M1332.44 5.00051C1335.95 5.64051 1339.4 6.20052 1342.77 6.70052C1429.26 19.5405 1467.24 -10.8095 1562.83 6.47051L1554.77 5.00051C1648.71 21.9805 1685.82 -11.4795 1785.16 6.47051L1777.08 5.00051C1869.72 21.7405 1907.11 -10.5495 2003.33 5.74051L1999.18 5.00051C2093.14 21.9805 2130.26 -11.4795 2229.57 6.47051L2221.5 5.00051C2315.46 21.9805 2352.57 -11.4795 2451.89 6.47051L2443.83 5.00051C2537.77 21.9805 2574.88 -11.4795 2674.22 6.47051" stroke="white" stroke-width="2" stroke-miterlimit="10"/>
<path d="M1 5.00051C94.961 21.9805 132.074 -11.4795 231.391 6.47051L223.315 5.00051C317.276 21.9805 354.389 -11.4795 453.723 6.47051L445.647 5.00051C538.281 21.7405 575.66 -10.5495 671.892 5.74051L667.746 5.00051C761.69 21.9805 798.803 -11.4795 898.137 6.47051L890.061 5.00051C984.022 21.9805 1021.14 -11.4795 1120.45 6.47051L1112.38 5.00051C1206.34 21.9805 1243.45 -11.4795 1342.77 6.47051" stroke="white" stroke-width="2" stroke-miterlimit="10"/>
</svg>
