<svg width="23" height="29" viewBox="0 0 23 29" fill="none" xmlns="http://www.w3.org/2000/svg">
<path d="M10.7218 27.153L1.5808 15.1511C1.5808 15.1511 0.932191 13.4875 1.99383 12.596C3.05547 11.7045 4.41159 12.596 4.41159 12.596L8.18623 16.874V2.85255C8.18623 2.85255 8.24513 1.30762 9.89649 1.30762C11.5478 1.30762 11.6067 2.91188 11.6067 2.91188V9.68491C11.6067 9.68491 11.7911 8.31874 13.3759 8.31874C14.6731 8.31874 14.8506 9.98233 14.8506 9.98233V10.8738C14.8506 10.8738 15.0097 9.32892 16.443 9.32892C17.9735 9.32892 18.1533 10.8738 18.1533 10.8738V11.706C18.1533 11.706 18.2604 10.3992 19.7457 10.3992C20.9841 10.3992 21.2204 12.0628 21.2204 12.0628C21.2204 12.0628 21.6923 14.4391 21.6923 17.2316C21.6923 20.024 21.1026 24.5393 19.5691 27.1538H10.7218V27.153Z" stroke="#ffffff" stroke-width="2" stroke-miterlimit="10" stroke-linejoin="bevel"/>
</svg>
