<svg width="60" height="60" viewBox="0 0 60 60" fill="none" xmlns="http://www.w3.org/2000/svg">
<path d="M60 0H0V60H60V0Z" fill="#362633"/>
<path d="M28.7217 46.153L19.5807 34.1511C19.5807 34.1511 18.9321 32.4875 19.9938 31.596C21.0554 30.7045 22.4115 31.596 22.4115 31.596L26.1862 35.874V21.8525C26.1862 21.8525 26.2451 20.3076 27.8964 20.3076C29.5478 20.3076 29.6067 21.9119 29.6067 21.9119V28.6849C29.6067 28.6849 29.791 27.3187 31.3758 27.3187C32.673 27.3187 32.8505 28.9823 32.8505 28.9823V29.8738C32.8505 29.8738 33.0096 28.3289 34.443 28.3289C35.9735 28.3289 36.1532 29.8738 36.1532 29.8738V30.706C36.1532 30.706 36.2603 29.3992 37.7457 29.3992C38.984 29.3992 39.2203 31.0628 39.2203 31.0628C39.2203 31.0628 39.6923 33.4391 39.6923 36.2316C39.6923 39.024 39.1026 43.5393 37.569 46.1538H28.7217V46.153Z" stroke="#D2CDCC" stroke-width="2" stroke-miterlimit="10" stroke-linejoin="bevel"/>
<path d="M36 13.8462L40.6154 18.4616L36 23.077" stroke="#D2CDCC" stroke-width="2" stroke-miterlimit="10"/>
<path d="M19.3846 13.8462L14.7692 18.4616L19.3846 23.077" stroke="#D2CDCC" stroke-width="2" stroke-miterlimit="10"/>
</svg>
