<?xml version="1.0" encoding="utf-8"?>
<!-- Generator: Adobe Illustrator 17.1.0, SVG Export Plug-In . SVG Version: 6.00 Build 0)  -->
<!DOCTYPE svg PUBLIC "-//W3C//DTD SVG 1.1//EN" "http://www.w3.org/Graphics/SVG/1.1/DTD/svg11.dtd">
<svg version="1.1" id="Layer_1" xmlns="http://www.w3.org/2000/svg" xmlns:xlink="http://www.w3.org/1999/xlink" x="0px" y="0px"
	 width="478.2px" height="498.8px" viewBox="0 0 478.2 498.8" enable-background="new 0 0 478.2 498.8" xml:space="preserve">
<polygon fill-rule="evenodd" clip-rule="evenodd" fill="#EFC825" points="141.1,341 203.4,297.8 203.4,80.8 233.8,97.4 233.8,307.3 
	141.1,371.7 "/>
<polygon fill-rule="evenodd" clip-rule="evenodd" fill="#343433" points="336.6,341 274.3,297.8 274.3,80.8 243.9,97.4 243.9,307.3 
	336.6,371.7 "/>
<polygon fill-rule="evenodd" clip-rule="evenodd" fill="#343433" points="234.8,47.8 135.3,114.9 135.3,451.8 86.8,426 86.8,100.1 
	234.8,0 "/>
<polygon fill-rule="evenodd" clip-rule="evenodd" fill="#EFC825" points="243.5,47.8 342.9,114.9 342.9,451.8 391.5,426 
	391.5,100.1 243.5,0 "/>
<polygon fill-rule="evenodd" clip-rule="evenodd" fill="#C7A81D" points="342.9,451.3 391.5,100.1 342.9,114.9 "/>
<polygon fill-rule="evenodd" clip-rule="evenodd" fill="#C7A81D" points="203.4,80.8 233.8,97.4 233.8,307.3 "/>
<polygon fill-rule="evenodd" clip-rule="evenodd" points="86.8,100.1 135.3,114.9 135.3,451.8 "/>
<polygon fill-rule="evenodd" clip-rule="evenodd" points="274.3,80.8 243.9,97.4 243.9,307.3 "/>
<polygon fill-rule="evenodd" clip-rule="evenodd" fill="#C7A81D" points="141.1,371.7 141.1,341 203.4,297.8 "/>
<polygon fill-rule="evenodd" clip-rule="evenodd" points="336.7,371.6 336.7,340.8 274.4,297.6 "/>
<polygon fill-rule="evenodd" clip-rule="evenodd" fill="#C7A81D" points="243.5,47.8 243.5,0 391.5,100.1 "/>
<polygon fill-rule="evenodd" clip-rule="evenodd" points="234.8,47.8 234.8,0 86.8,100.1 "/>
<path d="M256.6,443.3v-7.3h65.8c1.5,0,3-0.3,4.3-0.9c1.4-0.6,2.5-1.4,3.6-2.4c1-1,1.8-2.2,2.4-3.6c0.6-1.4,0.9-2.8,0.9-4.3
	c0-1.5-0.3-3-0.9-4.4c-0.6-1.4-1.4-2.6-2.4-3.6c-1-1-2.2-1.8-3.6-2.4c-1.4-0.6-2.9-0.9-4.4-0.9h-49c-2.5,0-4.9-0.5-7.1-1.4
	c-2.3-1-4.2-2.3-5.9-4c-1.7-1.7-3-3.6-4-5.9c-1-2.3-1.4-4.7-1.4-7.2c0-2.6,0.5-5,1.4-7.3c1-2.3,2.3-4.3,4-5.9c1.7-1.7,3.6-3,5.9-4
	c2.3-1,4.7-1.5,7.2-1.5h64.2v7.3h-64.2c-1.6,0-3.1,0.3-4.4,0.9c-1.3,0.6-2.5,1.4-3.5,2.4c-1,1-1.8,2.2-2.4,3.5
	c-0.6,1.4-0.9,2.8-1,4.3c0.3,3.2,1.4,5.9,3.5,8.1c2.1,2.2,4.6,3.3,7.7,3.3h49c2.6,0,5,0.5,7.2,1.4c2.3,1,4.2,2.3,5.9,4
	c1.7,1.7,3,3.6,4,5.9c1,2.3,1.4,4.7,1.4,7.2s-0.5,5-1.4,7.2c-1,2.3-2.3,4.2-4,5.9c-1.7,1.7-3.6,3-5.9,4c-2.3,1-4.7,1.4-7.2,1.4
	H256.6z M234.6,403.6c0-2.7-0.5-5.3-1.6-7.7c-1.1-2.4-2.5-4.5-4.3-6.3c-1.8-1.8-4-3.2-6.4-4.3c-2.4-1.1-5-1.6-7.7-1.6h-59.3v52.3
	h59.5c2.7,0,5.3-0.5,7.7-1.6c2.4-1.1,4.5-2.5,6.3-4.3c1.8-1.8,3.2-4,4.3-6.4c1.1-2.4,1.6-5,1.6-7.8V403.6z M147.8,376.3h66.7
	c3.8,0,7.4,0.7,10.7,2.2c3.3,1.4,6.2,3.4,8.7,5.9c2.5,2.5,4.4,5.4,5.9,8.7c1.4,3.3,2.2,6.8,2.2,10.6v12.1c0,3.8-0.7,7.4-2.2,10.7
	c-1.4,3.3-3.4,6.2-5.9,8.7c-2.5,2.5-5.4,4.4-8.7,5.9c-3.3,1.4-6.8,2.2-10.6,2.2h-66.7V376.3z"/>
<path d="M470,498.2c-0.4-0.2-0.7-0.3-1-0.5c-0.3-0.2-0.6-0.5-1-1l-19.7-23.2c-0.2-0.3-0.5-0.5-0.9-0.6c-0.3-0.1-0.7-0.2-1.1-0.2
	c-0.6,0-1.2,0.2-1.8,0.6c-0.6,0.4-0.8,0.9-0.9,1.7v23.6h-3.1v-23.9l0-0.1c0.1-0.8,0.3-1.5,0.6-2.1c0.4-0.6,0.8-1.1,1.3-1.6
	c0.5-0.4,1.1-0.8,1.8-1c0.7-0.2,1.4-0.3,2-0.3c0.8,0,1.6,0.2,2.3,0.5c0.8,0.3,1.4,0.8,2,1.5l19.7,23.2c0.2,0.3,0.5,0.5,0.9,0.7
	c0.3,0.1,0.7,0.2,1.1,0.2c0.6,0,1.2-0.2,1.7-0.6c0.5-0.4,0.8-1,0.9-1.7v-23.5h3.2v23.8c-0.1,0.8-0.3,1.5-0.7,2.1
	c-0.4,0.6-0.8,1.2-1.3,1.6c-0.5,0.5-1.1,0.8-1.8,1.1c-0.7,0.2-1.3,0.4-2,0.4C471.5,498.8,470.7,498.6,470,498.2 M392.2,486.8
	c0,1.2,0.2,2.3,0.7,3.3c0.5,1,1.1,1.9,1.9,2.7c0.8,0.8,1.7,1.4,2.7,1.9c1,0.5,2.1,0.7,3.3,0.7h21.2c1.2,0,2.3-0.2,3.3-0.7
	c1-0.5,2-1.1,2.7-1.9c0.8-0.8,1.4-1.7,1.9-2.7c0.5-1,0.7-2.1,0.7-3.3v-5.2c0-1.2-0.2-2.3-0.7-3.3c-0.5-1-1.1-1.9-1.9-2.7
	c-0.8-0.8-1.7-1.4-2.7-1.9c-1-0.5-2.2-0.7-3.3-0.7h-21.2c-1.2,0-2.3,0.2-3.3,0.7c-1,0.5-1.9,1.1-2.7,1.9c-0.8,0.8-1.4,1.7-1.9,2.7
	c-0.5,1-0.7,2.1-0.7,3.3V486.8z M400.8,498.5c-1.6,0-3.1-0.3-4.6-0.9c-1.4-0.6-2.7-1.5-3.7-2.5c-1.1-1.1-1.9-2.3-2.5-3.7
	c-0.6-1.4-0.9-2.9-0.9-4.6v-5.2c0-1.6,0.3-3.1,0.9-4.5c0.6-1.4,1.5-2.7,2.5-3.7c1.1-1.1,2.3-1.9,3.7-2.5c1.4-0.6,2.9-0.9,4.6-0.9
	h21.2c1.6,0,3.2,0.3,4.6,0.9c1.4,0.6,2.7,1.5,3.7,2.5c1.1,1.1,1.9,2.3,2.5,3.7c0.6,1.4,0.9,2.9,0.9,4.5v5.2c0,1.6-0.3,3.1-0.9,4.6
	c-0.6,1.4-1.5,2.7-2.5,3.7c-1.1,1.1-2.3,1.9-3.7,2.5c-1.4,0.6-3,0.9-4.6,0.9H400.8z M379.2,498.5v-28.6h3.1v28.6H379.2z M375.1,473
	h-16.3v25.5h-3.1V473h-16.3v-3.1h35.8V473z M305.7,495.1c-1.1-1.1-1.9-2.3-2.5-3.7c-0.6-1.4-0.9-2.9-0.9-4.6v-5.2
	c0-1.6,0.3-3.1,0.9-4.5c0.6-1.4,1.5-2.7,2.5-3.7c1.1-1.1,2.3-1.9,3.7-2.5c1.4-0.6,3-0.9,4.6-0.9h24.1v3.1H314
	c-1.2,0-2.3,0.2-3.3,0.7c-1,0.5-2,1.1-2.7,1.9c-0.8,0.8-1.4,1.7-1.9,2.7c-0.5,1-0.7,2.1-0.7,3.3v5.2c0,1.2,0.2,2.3,0.7,3.3
	c0.5,1,1.1,2,1.8,2.7c0.8,0.8,1.7,1.4,2.7,1.9c1,0.5,2.1,0.7,3.3,0.7h24.2v3.1H314c-1.6,0-3.2-0.3-4.6-0.9
	C308,496.9,306.7,496.1,305.7,495.1z M262.7,495.1c-1.1-1.1-1.9-2.3-2.5-3.7c-0.6-1.4-0.9-2.9-0.9-4.6v-16.9h3.1v16.9
	c0,1.2,0.2,2.3,0.7,3.3c0.5,1,1.1,2,1.8,2.7c0.8,0.8,1.7,1.4,2.7,1.9c1,0.5,2.1,0.7,3.3,0.7h11.8c1.2,0,2.3-0.2,3.3-0.7
	c1-0.5,2-1.1,2.7-1.8c0.8-0.8,1.4-1.7,1.9-2.7c0.5-1,0.7-2.1,0.7-3.3v-17h3.1v16.9c0,1.6-0.3,3.1-0.9,4.6c-0.6,1.4-1.5,2.7-2.5,3.7
	c-1,1-2.3,1.9-3.7,2.5c-1.4,0.6-2.9,0.9-4.6,0.9H271c-1.7,0-3.2-0.3-4.6-0.9C264.9,496.9,263.7,496.1,262.7,495.1z M216.7,484.2
	h26.8c0.8,0,1.5-0.1,2.2-0.4c0.7-0.3,1.3-0.7,1.9-1.2c0.5-0.5,1-1.1,1.3-1.8c0.3-0.7,0.5-1.4,0.5-2.2c0-0.8-0.2-1.5-0.5-2.2
	c-0.3-0.7-0.8-1.3-1.3-1.8c-0.6-0.5-1.2-0.9-1.9-1.2c-0.7-0.3-1.5-0.4-2.3-0.4h-26.7V484.2z M249.8,484.8c-1.4,1.3-3.1,2.1-5,2.4
	l8.4,11.2h-3.9l-8.3-11.1h-24.2v11.1h-3.1v-28.6h29.8c0.9,0,1.8,0.1,2.7,0.4c0.9,0.2,1.7,0.6,2.4,1.1c1.2,0.8,2.2,1.8,3,3.1
	c0.8,1.3,1.1,2.7,1.1,4.2c0,1.2-0.2,2.3-0.7,3.4C251.4,483.1,250.7,484,249.8,484.8z M209.6,473h-16.3v25.5h-3.1V473h-16.3v-3.1
	h35.8V473z M139.3,498.5v-3.1h28.1c0.7,0,1.3-0.1,1.9-0.4c0.6-0.2,1.1-0.6,1.5-1c0.4-0.4,0.8-0.9,1-1.5c0.2-0.6,0.4-1.2,0.4-1.9
	s-0.1-1.3-0.4-1.9c-0.2-0.6-0.6-1.1-1-1.5c-0.4-0.4-0.9-0.8-1.5-1c-0.6-0.2-1.2-0.4-1.9-0.4h-20.9c-1.1,0-2.1-0.2-3.1-0.6
	c-1-0.4-1.8-1-2.5-1.7c-0.7-0.7-1.3-1.6-1.7-2.5c-0.4-1-0.6-2-0.6-3.1c0-1.1,0.2-2.1,0.6-3.1c0.4-1,1-1.8,1.7-2.5
	c0.7-0.7,1.6-1.3,2.5-1.7c1-0.4,2-0.6,3.1-0.6h27.4v3.1h-27.4c-0.7,0-1.3,0.1-1.9,0.4c-0.6,0.3-1.1,0.6-1.5,1
	c-0.4,0.4-0.8,0.9-1,1.5c-0.2,0.6-0.4,1.2-0.4,1.9c0.1,1.4,0.6,2.5,1.5,3.5c0.9,0.9,2,1.4,3.3,1.4h20.9c1.1,0,2.1,0.2,3.1,0.6
	c1,0.4,1.8,1,2.5,1.7c0.7,0.7,1.3,1.6,1.7,2.5s0.6,2,0.6,3.1c0,1.1-0.2,2.1-0.6,3.1c-0.4,1-1,1.8-1.7,2.5c-0.7,0.7-1.6,1.3-2.5,1.7
	c-1,0.4-2,0.6-3.1,0.6H139.3z M123.6,498.2c-0.4-0.2-0.7-0.3-1-0.5c-0.3-0.2-0.6-0.5-1-1L102,473.5c-0.2-0.3-0.5-0.5-0.9-0.6
	c-0.3-0.1-0.7-0.2-1.1-0.2c-0.6,0-1.2,0.2-1.8,0.6c-0.6,0.4-0.8,0.9-0.9,1.7v23.6h-3.1v-23.9l0-0.1c0.1-0.8,0.3-1.5,0.6-2.1
	c0.4-0.6,0.8-1.1,1.3-1.6c0.5-0.4,1.1-0.8,1.8-1c0.7-0.2,1.4-0.3,2-0.3c0.8,0,1.6,0.2,2.3,0.5c0.8,0.3,1.4,0.8,2,1.5l19.7,23.2
	c0.2,0.3,0.5,0.5,0.9,0.7c0.3,0.1,0.7,0.2,1.1,0.2c0.6,0,1.2-0.2,1.7-0.6c0.5-0.4,0.8-1,0.9-1.7v-23.5h3.2v23.8
	c-0.1,0.8-0.3,1.5-0.7,2.1c-0.4,0.6-0.8,1.2-1.3,1.6c-0.5,0.5-1.1,0.8-1.8,1.1c-0.7,0.2-1.3,0.4-2,0.4
	C125.1,498.8,124.3,498.6,123.6,498.2z M45.8,486.8c0,1.2,0.2,2.3,0.7,3.3c0.5,1,1.1,1.9,1.9,2.7c0.8,0.8,1.7,1.4,2.7,1.9
	c1,0.5,2.1,0.7,3.3,0.7h21.2c1.2,0,2.3-0.2,3.3-0.7c1-0.5,2-1.1,2.7-1.9c0.8-0.8,1.4-1.7,1.9-2.7c0.5-1,0.7-2.1,0.7-3.3v-5.2
	c0-1.2-0.2-2.3-0.7-3.3c-0.5-1-1.1-1.9-1.9-2.7c-0.8-0.8-1.7-1.4-2.7-1.9c-1-0.5-2.2-0.7-3.3-0.7H54.4c-1.2,0-2.3,0.2-3.3,0.7
	c-1,0.5-1.9,1.1-2.7,1.9c-0.8,0.8-1.4,1.7-1.9,2.7c-0.5,1-0.7,2.1-0.7,3.3V486.8z M54.4,498.5c-1.6,0-3.1-0.3-4.6-0.9
	c-1.4-0.6-2.7-1.5-3.7-2.5c-1.1-1.1-1.9-2.3-2.5-3.7c-0.6-1.4-0.9-2.9-0.9-4.6v-5.2c0-1.6,0.3-3.1,0.9-4.5c0.6-1.4,1.5-2.7,2.5-3.7
	c1.1-1.1,2.3-1.9,3.7-2.5c1.4-0.6,2.9-0.9,4.6-0.9h21.2c1.6,0,3.2,0.3,4.6,0.9c1.4,0.6,2.7,1.5,3.7,2.5c1.1,1.1,1.9,2.3,2.5,3.7
	c0.6,1.4,0.9,2.9,0.9,4.5v5.2c0,1.6-0.3,3.1-0.9,4.6c-0.6,1.4-1.5,2.7-2.5,3.7c-1.1,1.1-2.3,1.9-3.7,2.5c-1.4,0.6-3,0.9-4.6,0.9
	H54.4z M3.5,495.1c-1.1-1.1-1.9-2.3-2.5-3.7c-0.6-1.4-0.9-2.9-0.9-4.6v-5.2c0-1.6,0.3-3.1,0.9-4.5c0.6-1.4,1.5-2.7,2.5-3.7
	c1.1-1.1,2.3-1.9,3.7-2.5c1.4-0.6,3-0.9,4.6-0.9h24.1v3.1H11.8c-1.2,0-2.3,0.2-3.3,0.7c-1,0.5-2,1.1-2.7,1.9
	c-0.8,0.8-1.4,1.7-1.9,2.7c-0.5,1-0.7,2.1-0.7,3.3v5.2c0,1.2,0.2,2.3,0.7,3.3c0.5,1,1.1,2,1.8,2.7c0.8,0.8,1.7,1.4,2.7,1.9
	c1,0.5,2.1,0.7,3.3,0.7h24.2v3.1H11.8c-1.6,0-3.2-0.3-4.6-0.9C5.8,496.9,4.5,496.1,3.5,495.1z"/>
</svg>
