<svg width="26" height="16" viewBox="0 0 26 16" fill="none" xmlns="http://www.w3.org/2000/svg">
<path d="M24.835 8.049C24.835 8.049 19.499 15.098 12.918 15.098C6.337 15.098 1 8.049 1 8.049C1 8.049 6.336 1 12.918 1C19.5 1 24.835 8.049 24.835 8.049Z" stroke="#858585" stroke-miterlimit="10"/>
<path d="M12.917 14.2076C16.3185 14.2076 19.076 11.4502 19.076 8.04865C19.076 4.64713 16.3185 1.88965 12.917 1.88965C9.51547 1.88965 6.758 4.64713 6.758 8.04865C6.758 11.4502 9.51547 14.2076 12.917 14.2076Z" stroke="#858585" stroke-miterlimit="10"/>
<path d="M12.917 9.53859C13.7399 9.53859 14.407 8.8715 14.407 8.04859C14.407 7.22569 13.7399 6.55859 12.917 6.55859C12.0941 6.55859 11.427 7.22569 11.427 8.04859C11.427 8.8715 12.0941 9.53859 12.917 9.53859Z" fill="#858585"/>
</svg>
