<svg width="15" height="15" viewBox="0 0 15 15" fill="none" xmlns="http://www.w3.org/2000/svg">
<path d="M7.226 0.421997H7.222C3.239 0.421997 0 3.662 0 7.646C0 9.226 0.509 10.691 1.375 11.88L0.475 14.564L3.252 13.676C4.394 14.433 5.757 14.87 7.226 14.87C11.209 14.87 14.448 11.629 14.448 7.646C14.448 3.663 11.209 0.421997 7.226 0.421997ZM11.43 10.623C11.256 11.115 10.564 11.523 10.012 11.643C9.635 11.723 9.141 11.787 7.482 11.099C5.359 10.219 3.992 8.062 3.885 7.922C3.783 7.782 3.027 6.78 3.027 5.743C3.027 4.706 3.553 4.202 3.766 3.985C3.94 3.807 4.228 3.726 4.504 3.726C4.593 3.726 4.674 3.731 4.746 3.734C4.958 3.743 5.065 3.756 5.205 4.091C5.379 4.511 5.804 5.548 5.854 5.654C5.905 5.761 5.957 5.905 5.885 6.045C5.817 6.19 5.758 6.254 5.651 6.376C5.545 6.499 5.443 6.593 5.337 6.725C5.239 6.84 5.129 6.963 5.252 7.175C5.375 7.383 5.799 8.075 6.424 8.632C7.23 9.35 7.884 9.579 8.118 9.677C8.293 9.748 8.5 9.731 8.628 9.596C8.79 9.422 8.989 9.133 9.192 8.848C9.336 8.644 9.519 8.619 9.71 8.691C9.905 8.759 10.937 9.269 11.149 9.375C11.361 9.482 11.501 9.532 11.553 9.622C11.604 9.71 11.604 10.13 11.43 10.623Z" fill="white"/>
</svg>
