<svg width="16" height="16" viewBox="0 0 16 16" fill="none" xmlns="http://www.w3.org/2000/svg">
<path d="M15.6951 4.496C15.6591 3.683 15.5281 3.125 15.3401 2.641C15.1461 2.127 14.8471 1.667 14.4561 1.285C14.0741 0.897 13.6111 0.595 13.1031 0.404C12.6161 0.216 12.0601 0.084 11.2481 0.049C10.4281 0.009 10.1681 0 8.09207 0C6.01607 0 5.75607 0.009 4.94007 0.045C4.12707 0.081 3.56907 0.212 3.08507 0.4C2.57107 0.594 2.11107 0.893 1.72907 1.284C1.34107 1.666 1.03907 2.129 0.848068 2.637C0.660068 3.124 0.528069 3.68 0.493069 4.492C0.454069 5.311 0.445068 5.57 0.445068 7.647C0.445068 9.724 0.45407 9.983 0.49007 10.799C0.52607 11.612 0.657069 12.17 0.846069 12.654C1.04007 13.168 1.34207 13.628 1.73007 14.01C2.11207 14.398 2.57507 14.7 3.08307 14.891C3.57007 15.079 4.12607 15.211 4.93807 15.246C5.75307 15.282 6.01307 15.291 8.09007 15.291C10.1661 15.291 10.4261 15.282 11.2421 15.246C12.0551 15.21 12.6131 15.079 13.0971 14.891C14.1251 14.494 14.9371 13.681 15.3351 12.654C15.5231 12.167 15.6551 11.611 15.6901 10.799C15.7261 9.983 15.7351 9.724 15.7351 7.647C15.7351 5.57 15.7311 5.312 15.6951 4.496ZM14.3181 10.74C14.2851 11.487 14.1601 11.89 14.0551 12.159C13.7981 12.825 13.2691 13.354 12.6031 13.611C12.3341 13.716 11.9281 13.841 11.1841 13.874C10.3771 13.91 10.1361 13.919 8.09507 13.919C6.05407 13.919 5.81007 13.91 5.00607 13.874C4.25907 13.841 3.85607 13.716 3.58707 13.611C3.25507 13.488 2.95407 13.294 2.70907 13.04C2.45507 12.792 2.26107 12.493 2.13807 12.162C2.03307 11.893 1.90807 11.487 1.87507 10.743C1.83907 9.936 1.83007 9.694 1.83007 7.654C1.83007 5.614 1.83907 5.369 1.87507 4.565C1.90807 3.818 2.03307 3.415 2.13807 3.146C2.26107 2.814 2.45507 2.513 2.71207 2.268C2.96007 2.014 3.25907 1.82 3.59007 1.697C3.85907 1.592 4.26507 1.467 5.00907 1.434C5.81607 1.398 6.05807 1.389 8.09807 1.389C10.1411 1.389 10.3831 1.398 11.1871 1.434C11.9341 1.467 12.3371 1.592 12.6061 1.697C12.9381 1.819 13.2391 2.014 13.4841 2.268C13.7381 2.516 13.9321 2.815 14.0551 3.146C14.1601 3.415 14.2851 3.821 14.3181 4.565C14.3541 5.372 14.3631 5.613 14.3631 7.654C14.3631 9.695 14.3541 9.933 14.3181 10.74Z" fill="white"/>
<path d="M8.09206 3.71899C5.92306 3.71899 4.16406 5.47899 4.16406 7.64699C4.16406 9.81499 5.92406 11.575 8.09206 11.575C10.2611 11.575 12.0201 9.81499 12.0201 7.64699C12.0201 5.47899 10.2611 3.71899 8.09206 3.71899ZM8.09206 10.196C6.68506 10.196 5.54406 9.05499 5.54406 7.64799C5.54406 6.24099 6.68506 5.09999 8.09206 5.09999C9.49906 5.09999 10.6401 6.24099 10.6401 7.64799C10.6401 9.05499 9.49906 10.196 8.09206 10.196Z" fill="white"/>
<path d="M13.093 3.56397C13.093 4.06997 12.682 4.48097 12.176 4.48097C11.67 4.48097 11.259 4.06997 11.259 3.56397C11.259 3.05697 11.67 2.64697 12.176 2.64697C12.682 2.64697 13.093 3.05697 13.093 3.56397Z" fill="white"/>
</svg>
