<svg width="17" height="28" viewBox="0 0 17 28" fill="none" xmlns="http://www.w3.org/2000/svg">
<path d="M9.45088 27.365L9.07588 27.078C8.84688 26.903 3.43188 22.713 1.23188 16.741C-0.967115 10.769 0.435885 4.068 0.496885 3.786L0.595885 3.325L7.02388 0L10.6109 9.739L6.79588 11.142C6.62688 11.656 6.39788 12.852 7.04188 14.601C7.67588 16.322 8.60588 17.086 9.08188 17.381L12.8509 15.819L16.4999 25.725L9.45088 27.365ZM2.36888 4.659C2.10888 6.211 1.42188 11.469 3.10888 16.05C4.79688 20.631 8.72888 24.187 9.93489 25.199L13.8389 24.291L11.6929 18.464L9.07488 19.549L8.71588 19.425C8.62088 19.392 6.37688 18.584 5.16488 15.292C3.95288 12.001 5.13588 9.93 5.18688 9.844L5.36788 9.536L8.04288 8.553L5.92988 2.817L2.36888 4.659Z" fill="white"/>
</svg>
