<svg width="513" height="17" viewBox="0 0 513 17" fill="none" xmlns="http://www.w3.org/2000/svg">
<path d="M513 2.54635V16.5H256V2.27099C282.907 10.1778 293.539 -5.81027 321.987 2.54635L319.671 1.85663C346.588 9.76342 357.21 -5.81027 385.658 2.54635L383.352 1.85663C410.259 9.76342 420.881 -5.81027 449.329 2.54635L447.023 1.85663C473.93 9.76342 484.552 -5.81027 513 2.54635Z" fill="#362633"/>
<path d="M257 2.54635V16.5H0V1.85663C26.9071 9.76342 37.5393 -5.81027 65.9872 2.54635L63.6709 1.85663C90.5882 9.76342 101.21 -5.81027 129.658 2.54635L127.352 1.85663C154.259 9.76342 164.881 -5.81027 193.329 2.54635L191.023 1.85663C217.93 9.76342 228.552 -5.81027 257 2.54635Z" fill="#362633"/>
</svg>
