<svg width="14" height="24" viewBox="0 0 14 24" fill="none" xmlns="http://www.w3.org/2000/svg">
<path d="M8.63496 4.162C9.78426 4.162 10.716 3.2303 10.716 2.081C10.716 0.931696 9.78426 0 8.63496 0C7.48565 0 6.55396 0.931696 6.55396 2.081C6.55396 3.2303 7.48565 4.162 8.63496 4.162Z" fill="#A59B9A"/>
<path d="M5.84 17.557L3.52 23.347L1.25 22.437L3.97 15.667L5.84 17.557Z" fill="#A59B9A"/>
<path d="M10.57 16.9371V23.3371H8.13V17.8971L7.04 16.7371L7.09 16.6871L4.5 14.0771L5.63 8.42706L4.1 9.22706L2.15 12.8371L0 11.6771L2.3 7.41706L6.25 5.34706L6.27 5.23706L6.4 5.26706L6.43 5.24706L6.44 5.26706L9.99 5.97706L9.89 6.50706L9.63 7.77706L9.64 7.78706L9.07 10.6871L9.06 10.6771L8.3 14.4971L10.57 16.9371Z" fill="#A59B9A"/>
<path d="M13.35 11.587L11.6 13.287L10.34 11.997L10.91 9.08704L13.35 11.587Z" fill="#A59B9A"/>
</svg>
