<svg width="26" height="19" viewBox="0 0 26 19" fill="none" xmlns="http://www.w3.org/2000/svg">
<path d="M25.91 3.90405V5.31405C25.91 5.31405 25.55 5.89405 23.93 6.00405L23.07 4.34405L23 3.90405H25.91Z" fill="#A59B9A"/>
<path d="M12.937 16.148H6.37399V18.058H2.83199V15.106C2.83199 15.106 1.85999 13.995 1.85999 10.8C1.85999 7.605 7.31199 0 7.31199 0H12.938H12.973H18.599C18.599 0 24.051 7.605 24.051 10.8C24.051 13.995 23.079 15.106 23.079 15.106V18.058H19.537V16.148H12.974H12.937ZM16.827 10.051H8.80499V11.946H16.827V10.051V10.051ZM20.508 8.96C19.683 8.96 19.015 9.629 19.015 10.453C19.015 11.277 19.684 11.946 20.508 11.946C21.333 11.946 22.001 11.277 22.001 10.453C22.001 9.629 21.333 8.96 20.508 8.96ZM12.972 6.286C16.861 6.286 19.917 5.696 19.917 5.696C19.604 4.515 17.833 1.529 17.833 1.529H12.971H12.936H8.07599C8.07599 1.529 6.30499 4.516 5.99199 5.696C5.99199 5.696 9.04799 6.286 12.937 6.286H12.972ZM3.90799 10.453C3.90799 11.278 4.57699 11.946 5.40099 11.946C6.22499 11.946 6.89399 11.277 6.89399 10.453C6.89399 9.629 6.22599 8.96 5.40199 8.96C4.57799 8.96 3.90799 9.628 3.90799 10.453Z" fill="#A59B9A"/>
<path d="M2.91 3.90405L2.89 4.01405L1.87 5.99405C0.34 5.86405 0 5.31405 0 5.31405V3.90405H2.91Z" fill="#A59B9A"/>
</svg>
