<svg width="91" height="91" viewBox="0 0 91 91" fill="none" xmlns="http://www.w3.org/2000/svg">
<path d="M90.076 0H0V90.076H90.076V0Z" fill="#362633"/>
<path d="M50.4899 51.438C45.7469 51.438 41.8879 47.58 41.8879 42.836C41.8879 38.092 45.7459 34.233 50.4899 34.233C55.2339 34.233 59.0919 38.092 59.0919 42.836C59.0919 47.58 55.2329 51.438 50.4899 51.438ZM50.4899 36.689C47.1009 36.689 44.3439 39.447 44.3439 42.836C44.3439 46.225 47.1009 48.982 50.4899 48.982C53.8789 48.982 56.6359 46.224 56.6359 42.836C56.6369 39.447 53.8789 36.689 50.4899 36.689Z" fill="white"/>
<path d="M45.069 53.839C43.557 53.839 41.9 53.635 39.998 53.066L40.6 51.058C44.45 52.21 47.141 51.677 49.991 51.113C53.086 50.497 56.288 49.864 60.995 51.274L60.393 53.282C56.185 52.021 53.374 52.578 50.398 53.169C48.724 53.5 47.017 53.839 45.069 53.839Z" fill="#362633"/>
<path d="M45.069 51.906C43.557 51.906 41.899 51.702 39.998 51.132L40.6 49.124C44.451 50.278 47.142 49.744 49.991 49.179C53.087 48.566 56.288 47.93 60.994 49.34L60.392 51.348C56.184 50.087 53.374 50.646 50.398 51.235C48.724 51.567 47.017 51.906 45.069 51.906Z" fill="white"/>
<path d="M45.07 55.927C43.557 55.927 41.899 55.723 39.998 55.153L40.6 53.145C44.451 54.299 47.142 53.766 49.992 53.2C53.087 52.587 56.288 51.951 60.995 53.361L60.393 55.369C56.187 54.108 53.376 54.665 50.399 55.257C48.725 55.588 47.018 55.927 45.07 55.927Z" fill="white"/>
<path d="M40.6439 48.212H38.8259V58.912H40.6439V48.212Z" fill="#362633"/>
<path d="M62.0438 48.212H60.2258V58.912H62.0438V48.212Z" fill="#362633"/>
<path d="M64.3161 51.841C63.5191 51.841 62.8261 51.841 62.0911 51.841C62.0911 46.491 62.0911 41.152 62.0911 35.752C62.7931 35.752 63.4841 35.732 64.1731 35.765C64.3521 35.774 64.5341 35.93 64.6951 36.047C67.2971 37.927 69.8951 39.812 72.4951 41.694C72.6431 41.801 72.7961 41.902 73.0191 42.056C73.0191 39.925 73.0191 37.867 73.0191 35.779C73.7821 35.779 74.4881 35.779 75.2331 35.779C75.2331 41.117 75.2331 46.457 75.2331 51.828C74.5271 51.828 73.8201 51.828 73.0311 51.828C73.0311 51.663 73.0311 51.485 73.0311 51.307C73.0311 49.336 73.0391 47.365 73.0191 45.394C73.0171 45.195 72.9041 44.924 72.7511 44.811C70.0291 42.808 67.2931 40.824 64.5591 38.837C64.5051 38.798 64.4441 38.769 64.3151 38.693C64.3161 43.093 64.3161 47.443 64.3161 51.841Z" fill="white"/>
<path d="M38.9489 49.714C38.9489 50.467 38.9489 51.138 38.9489 51.833C35.6639 51.833 32.4079 51.833 29.1189 51.833C29.1189 46.477 29.1189 41.135 29.1189 35.776C32.2719 35.776 35.3899 35.776 38.5389 35.776C38.5389 36.474 38.5389 37.145 38.5389 37.863C36.1989 37.863 33.8779 37.863 31.5199 37.863C31.5199 39.395 31.5199 40.881 31.5199 42.425C33.4559 42.425 35.3999 42.425 37.3799 42.425C37.3799 43.135 37.3799 43.788 37.3799 44.494C35.4449 44.494 33.5009 44.494 31.5199 44.494C31.5199 46.25 31.5199 47.956 31.5199 49.714C33.9749 49.714 36.4299 49.714 38.9489 49.714Z" fill="white"/>
<path d="M26.906 49.7211C26.906 50.458 26.906 51.1171 26.906 51.8171C23.572 51.8171 20.238 51.8171 16.875 51.8171C16.875 46.4821 16.875 41.154 16.875 35.787C17.64 35.787 18.392 35.787 19.209 35.787C19.209 40.417 19.209 45.0451 19.209 49.7201C21.795 49.7211 24.32 49.7211 26.906 49.7211Z" fill="white"/>
</svg>
