<svg width="137" height="33" viewBox="0 0 137 33" fill="none" xmlns="http://www.w3.org/2000/svg">
<path opacity="0.3" d="M40.7 12.636H42.382L44.462 18.904L46.557 12.636H48.207L49.725 21.632H48.076L47.102 15.942L45.205 21.632H43.686L41.806 15.942L40.832 21.632H39.168L40.7 12.636ZM58.929 12.636H60.663L64.111 21.632H62.345L61.636 19.78H57.972L57.246 21.632H55.464L58.929 12.636ZM59.805 15.015L58.617 18.109H60.993L59.805 15.015ZM78.794 14.222L77.608 15.364C76.799 14.506 75.874 14.075 74.869 14.075C73.995 14.075 73.284 14.373 72.692 14.95C72.097 15.546 71.816 16.258 71.816 17.117C71.816 17.729 71.933 18.258 72.197 18.721C72.46 19.185 72.824 19.547 73.302 19.813C73.78 20.077 74.308 20.209 74.887 20.209C75.38 20.209 75.843 20.127 76.255 19.928C76.669 19.746 77.113 19.417 77.609 18.92L78.763 20.127C78.102 20.789 77.477 21.236 76.882 21.482C76.289 21.73 75.63 21.863 74.87 21.863C73.468 21.863 72.327 21.417 71.438 20.524C70.548 19.648 70.1 18.505 70.1 17.117C70.1 16.223 70.316 15.431 70.712 14.72C71.124 14.025 71.703 13.479 72.46 13.049C73.203 12.619 74.029 12.404 74.887 12.404C75.629 12.404 76.336 12.568 77.03 12.882C77.707 13.198 78.3 13.645 78.794 14.222ZM85.295 12.636H86.979V21.632H85.295V12.636ZM91.318 12.636H93.017V21.632H91.318V12.636ZM97.357 12.636H99.038V21.632H97.357V12.636ZM105.193 12.636H110.159V14.322H108.527V21.632H106.793V14.322H105.193V12.636ZM119.168 12.636H120.901L124.365 21.632H122.584L121.89 19.78H118.228L117.486 21.632H115.72L119.168 12.636ZM120.06 15.015L118.856 18.109H121.248L120.06 15.015ZM130.783 21.632V12.636H135.485V14.306H132.5V16.025H132.879C133.621 16.025 134.248 16.107 134.726 16.291C135.204 16.456 135.602 16.771 135.932 17.234C136.245 17.695 136.41 18.242 136.41 18.871C136.41 19.498 136.277 19.996 136.047 20.377C135.799 20.74 135.468 21.054 135.057 21.285C134.627 21.517 134.049 21.632 133.308 21.632H130.783ZM132.5 17.563V19.994H132.929C133.703 19.994 134.199 19.895 134.414 19.696C134.611 19.481 134.726 19.216 134.726 18.869C134.726 17.994 134.1 17.563 132.862 17.563H132.5ZM0.012 20.003L8.616 1.928L8.658 1.858L8.672 1.872L8.84 1.955L18.074 6.653L18.411 6.823L30.647 0.028L30.705 0L30.747 0.042V0.057L33.216 3.181L33.231 3.193V3.221L32.22 18.145L36.121 30.075L36.149 30.187L36.037 30.174L24.249 28.964L7.899 32.509L7.844 32.523L7.815 32.48L0.012 20.073L0 20.03L0.012 20.003ZM24.809 11.295L26.326 20.677L31.925 18.048L24.809 11.295ZM26.284 20.944L22.958 24.461L35.629 29.82L26.284 20.944ZM22.859 24.588H22.845L22.832 24.435L22.003 19.187L18.228 23.281L24.29 28.809L35.629 29.977L22.859 24.588ZM18.129 23.393L18.074 23.323L14.355 19.186L13.541 24.434L13.513 24.587L8.068 32.325L24.094 28.836L18.129 23.393ZM13.4 24.475L10.146 21.002L8.026 32.113L13.4 24.475ZM10.076 20.509L11.59 11.071L11.604 11.014L8.757 2.138L8.503 15.262L10.076 20.509ZM11.788 11.099L15.394 14.615L18.102 17.232L18.327 6.964L8.94 2.168L11.788 11.099ZM18.285 17.246L24.642 11.028L24.74 10.93L30.493 0.295L23.757 4.037L18.481 6.962L18.285 17.246ZM7.844 32.24L10.019 20.847L8.377 15.375L0.181 20.058L7.844 32.24ZM0.253 19.848L8.349 15.221L8.602 2.321L0.253 19.848ZM26.382 20.819L35.883 29.835L32.064 18.188L32.037 18.16L26.382 20.819ZM33.061 3.404L24.837 11.127L32.079 17.978L33.061 3.404ZM25.034 10.733L33.047 3.208L30.705 0.239L25.034 10.733Z" fill="white"/>
</svg>
