<svg width="130" height="130" viewBox="0 0 130 130" fill="none" xmlns="http://www.w3.org/2000/svg">
<g clip-path="url(#clip0)">
<path d="M126.154 3H3V126.154H126.154V3Z" fill="#BAA9A8"/>
<path d="M129.154 129.154H0V0H129.154V129.154ZM3 126.154H126.154V3H3V126.154Z" fill="white"/>
<path d="M72.2131 49.45C65.5731 49.45 60.1631 54.85 60.1631 61.49C60.1631 65.5 62.1331 69.05 65.1431 71.25C66.5931 72.3 68.2831 73.03 70.1131 73.35C70.1231 73.35 70.1331 73.35 70.1331 73.35C70.4131 73.41 70.6731 73.45 70.9631 73.48C71.3431 73.41 71.7131 73.33 72.0831 73.26C73.7931 72.92 75.4531 72.59 77.2231 72.44C77.4131 72.36 77.6031 72.27 77.7931 72.16C79.0931 71.49 80.2531 70.58 81.2131 69.49C83.1131 67.37 84.2631 64.56 84.2631 61.49C84.2631 54.85 78.8531 49.45 72.2131 49.45ZM63.6031 61.49C63.6031 56.75 67.4631 52.89 72.2131 52.89C76.9631 52.89 80.8231 56.75 80.8231 61.49C80.8231 65.53 78.0231 68.93 74.2631 69.86C74.2331 69.87 74.2031 69.87 74.1731 69.88C73.9531 69.91 73.7431 69.95 73.5231 70C73.4631 70 73.4031 70.02 73.3331 70.03C72.9731 70.08 72.5931 70.1 72.2131 70.1C67.4631 70.1 63.6031 66.24 63.6031 61.49Z" fill="white"/>
<path d="M85.8531 70.3V73.35C82.4731 72.36 79.7331 72.22 77.2231 72.44C75.4531 72.59 73.7931 72.92 72.0831 73.26C71.7131 73.33 71.3431 73.41 70.9631 73.48C68.9731 73.86 66.9231 74.19 64.6231 74.19C62.7431 74.19 60.7131 73.97 58.4231 73.37V70.32C60.9631 71.07 63.1331 71.3 65.1431 71.25C67.3831 71.2 69.4131 70.8 71.5131 70.38C72.1131 70.26 72.7231 70.14 73.3331 70.03C73.4031 70.02 73.4631 70 73.5231 70C73.7431 69.95 73.9531 69.91 74.1731 69.88C74.2031 69.87 74.2331 69.87 74.2631 69.86C76.3831 69.51 78.6331 69.29 81.2131 69.49C82.6431 69.61 84.1831 69.87 85.8531 70.3Z" fill="white"/>
<path d="M85.853 75.93V78.99C80.083 77.3 76.193 78.07 72.083 78.89C69.743 79.35 67.353 79.83 64.623 79.83C62.743 79.83 60.713 79.6 58.423 79V76.08C58.393 76.07 58.363 76.06 58.323 76.05L58.363 75.93C58.383 75.94 58.403 75.94 58.423 75.95C61.023 76.72 63.233 76.94 65.293 76.87H65.453C65.543 76.86 65.633 76.86 65.723 76.86C65.973 76.85 66.223 76.83 66.473 76.81C68.203 76.66 69.843 76.34 71.513 76.01C71.983 75.91 72.463 75.82 72.943 75.73C73.183 75.68 73.423 75.64 73.673 75.6C73.763 75.58 73.853 75.56 73.953 75.55C74.343 75.48 74.743 75.42 75.153 75.36C75.403 75.32 75.653 75.29 75.903 75.26C76.153 75.23 76.413 75.2 76.673 75.18C76.933 75.15 77.193 75.13 77.463 75.12C77.723 75.09 78.003 75.08 78.273 75.07C78.833 75.04 79.393 75.04 79.983 75.06C81.753 75.11 83.683 75.37 85.853 75.93Z" fill="white"/>
<path d="M91.576 74.105C90.459 74.105 89.489 74.105 88.46 74.105C88.46 66.613 88.46 59.135 88.46 51.572C89.443 51.572 90.411 51.545 91.376 51.591C91.626 51.603 91.882 51.823 92.107 51.986C95.751 54.619 99.39 57.258 103.031 59.895C103.238 60.045 103.452 60.186 103.765 60.402C103.765 57.417 103.765 54.535 103.765 51.611C104.833 51.611 105.822 51.611 106.866 51.611C106.866 59.086 106.866 66.565 106.866 74.088C105.877 74.088 104.888 74.088 103.783 74.088C103.783 73.857 103.783 73.608 103.783 73.359C103.783 70.599 103.794 67.838 103.766 65.078C103.763 64.799 103.605 64.419 103.39 64.261C99.578 61.456 95.745 58.678 91.916 55.895C91.84 55.84 91.755 55.799 91.574 55.694C91.576 61.854 91.576 67.945 91.576 74.105Z" fill="white"/>
<path d="M56.05 71.127C56.05 72.182 56.05 73.121 56.05 74.095C51.449 74.095 46.889 74.095 42.283 74.095C42.283 66.594 42.283 59.112 42.283 51.606C46.699 51.606 51.066 51.606 55.475 51.606C55.475 52.584 55.475 53.523 55.475 54.529C52.198 54.529 48.948 54.529 45.645 54.529C45.645 56.675 45.645 58.756 45.645 60.919C48.356 60.919 51.078 60.919 53.852 60.919C53.852 61.913 53.852 62.828 53.852 63.817C51.143 63.817 48.419 63.817 45.644 63.817C45.644 66.277 45.644 68.665 45.644 71.127C49.083 71.127 52.521 71.127 56.05 71.127Z" fill="white"/>
<path d="M39.183 71.136C39.183 72.169 39.183 73.092 39.183 74.072C34.514 74.072 29.845 74.072 25.134 74.072C25.134 66.6 25.134 59.138 25.134 51.622C26.205 51.622 27.259 51.622 28.402 51.622C28.402 58.106 28.402 64.589 28.402 71.136C32.025 71.136 35.56 71.136 39.183 71.136Z" fill="white"/>
</g>
<defs>
<clipPath id="clip0">
<rect width="129.154" height="129.154" fill="white"/>
</clipPath>
</defs>
</svg>
