<svg width="130" height="130" viewBox="0 0 130 130" fill="none" xmlns="http://www.w3.org/2000/svg">
<path d="M127.654 1.5H1.5V127.654H127.654V1.5Z" fill="#2D202C"/>
<path d="M129.154 129.153H0V0H129.154V129.153ZM3 126.153H126.154V3H3V126.153Z" fill="#D2CDCC"/>
<path d="M72.213 73.5413C65.57 73.5413 60.165 68.1373 60.165 61.4933C60.165 54.8493 65.57 49.4453 72.213 49.4453C78.856 49.4453 84.261 54.8493 84.261 61.4933C84.261 68.1373 78.856 73.5413 72.213 73.5413ZM72.213 52.8853C67.466 52.8853 63.605 56.7463 63.605 61.4933C63.605 66.2403 67.467 70.1013 72.213 70.1013C76.959 70.1013 80.821 66.2403 80.821 61.4933C80.821 56.7463 76.96 52.8853 72.213 52.8853Z" fill="#D2CDCC"/>
<path d="M64.621 76.903C62.503 76.903 60.181 76.617 57.518 75.819L58.361 73.006C63.754 74.621 67.523 73.874 71.513 73.083C75.849 72.221 80.332 71.332 86.924 73.308L86.081 76.121C80.188 74.354 76.251 75.137 72.084 75.963C69.74 76.429 67.35 76.903 64.621 76.903Z" fill="#2D202C"/>
<path d="M64.621 74.195C62.503 74.195 60.181 73.909 57.518 73.111L58.361 70.298C63.754 71.914 67.523 71.166 71.513 70.375C75.849 69.513 80.332 68.624 86.924 70.6L86.081 73.413C80.188 71.647 76.251 72.43 72.084 73.255C69.74 73.721 67.35 74.195 64.621 74.195Z" fill="#D2CDCC"/>
<path d="M64.622 79.8259C62.503 79.8259 60.182 79.5399 57.518 78.7419L58.361 75.9289C63.754 77.5469 67.523 76.7989 71.513 76.0059C75.848 75.1449 80.331 74.2559 86.924 76.2319L86.081 79.0449C80.188 77.2759 76.252 78.0579 72.084 78.8869C69.74 79.3519 67.35 79.8259 64.622 79.8259Z" fill="#D2CDCC"/>
<path d="M58.425 69.0225H55.878V84.0075H58.425V69.0225Z" fill="#2D202C"/>
<path d="M88.395 69.0225H85.848V84.0075H88.395V69.0225Z" fill="#2D202C"/>
<path d="M91.576 74.1043C90.459 74.1043 89.489 74.1043 88.46 74.1043C88.46 66.6123 88.46 59.1343 88.46 51.5713C89.443 51.5713 90.411 51.5444 91.376 51.5904C91.626 51.6024 91.882 51.8224 92.107 51.9854C95.751 54.6184 99.39 57.2574 103.031 59.8944C103.238 60.0444 103.452 60.1854 103.765 60.4014C103.765 57.4164 103.765 54.5344 103.765 51.6104C104.833 51.6104 105.822 51.6104 106.866 51.6104C106.866 59.0854 106.866 66.5643 106.866 74.0873C105.877 74.0873 104.888 74.0873 103.783 74.0873C103.783 73.8563 103.783 73.6074 103.783 73.3584C103.783 70.5984 103.794 67.8374 103.766 65.0774C103.763 64.7984 103.605 64.4184 103.39 64.2604C99.578 61.4554 95.745 58.6774 91.916 55.8944C91.84 55.8394 91.755 55.7984 91.574 55.6934C91.576 61.8534 91.576 67.9443 91.576 74.1043Z" fill="#D2CDCC"/>
<path d="M56.05 71.1265C56.05 72.1815 56.05 73.1205 56.05 74.0945C51.449 74.0945 46.889 74.0945 42.283 74.0945C42.283 66.5935 42.283 59.1115 42.283 51.6055C46.699 51.6055 51.066 51.6055 55.475 51.6055C55.475 52.5835 55.475 53.5225 55.475 54.5285C52.198 54.5285 48.948 54.5285 45.645 54.5285C45.645 56.6745 45.645 58.7555 45.645 60.9185C48.356 60.9185 51.078 60.9185 53.852 60.9185C53.852 61.9125 53.852 62.8275 53.852 63.8165C51.143 63.8165 48.419 63.8165 45.644 63.8165C45.644 66.2765 45.644 68.6645 45.644 71.1265C49.083 71.1265 52.521 71.1265 56.05 71.1265Z" fill="#D2CDCC"/>
<path d="M39.183 71.1361C39.183 72.1691 39.183 73.0921 39.183 74.0721C34.514 74.0721 29.845 74.0721 25.134 74.0721C25.134 66.6001 25.134 59.1381 25.134 51.6221C26.205 51.6221 27.259 51.6221 28.402 51.6221C28.402 58.1061 28.402 64.5891 28.402 71.1361C32.025 71.1361 35.561 71.1361 39.183 71.1361Z" fill="#D2CDCC"/>
</svg>
