<svg width="257" height="7" viewBox="0 0 257 7" fill="none" xmlns="http://www.w3.org/2000/svg">
<path opacity="0.5" d="M255.87 4.99802C241.97 0.828016 231.84 2.73801 222.04 4.58801C216.6 5.61801 211.05 6.65801 204.87 6.65801C200.74 6.65801 196.34 6.19801 191.49 4.94801L191.47 4.99802C177.58 0.828016 167.96 2.73801 158.66 4.58801C153.49 5.60801 148.22 6.65801 142.22 6.65801C138.23 6.65801 133.91 6.19801 129.09 4.94801L129.07 4.99802C115.18 0.828016 105.56 2.73801 96.26 4.58801C91.09 5.60801 85.82 6.65801 79.82 6.65801C75.83 6.65801 71.51 6.19801 66.69 4.94801L66.67 4.99802C52.77 0.828016 42.63 2.73801 32.83 4.58801C27.39 5.61801 21.84 6.65801 15.66 6.65801C10.9 6.65801 5.76 6.03802 0 4.31802L0.58 2.39802C13.34 6.22802 22.63 4.47801 32.46 2.61801C41.96 0.828012 51.77 -1.01198 64.97 2.43802L64.98 2.39802C77.74 6.22802 86.55 4.47801 95.87 2.62801C104.9 0.828014 114.21 -1.01198 127.37 2.43802L127.38 2.39802C140.14 6.22802 148.95 4.47801 158.27 2.62801C167.3 0.828014 176.62 -1.01198 189.77 2.43802L189.78 2.39802C202.55 6.22802 211.84 4.47801 221.67 2.61801C231.7 0.728012 242.08 -1.22198 256.45 3.07802L255.87 4.99802Z" fill="white"/>
</svg>
