<svg width="44" height="44" viewBox="0 0 44 44" fill="none" xmlns="http://www.w3.org/2000/svg">
<path d="M43.622 0H0V43.622H43.622V0Z" fill="#BAA9A8"/>
<path d="M21.8111 35.022C29.1073 35.022 35.0221 29.1072 35.0221 21.811C35.0221 14.5147 29.1073 8.59998 21.8111 8.59998C14.5149 8.59998 8.6001 14.5147 8.6001 21.811C8.6001 29.1072 14.5149 35.022 21.8111 35.022Z" stroke="white" stroke-width="2" stroke-miterlimit="10"/>
<path d="M23.3931 16.15V20.229H27.4721V23.391H23.3931V27.47H20.2311V23.391H16.1521V20.229H20.2311V16.15H23.3931ZM25.3931 14.15H23.3931H20.2311H18.2311V16.15V18.229H16.1521H14.1521V20.229V23.391V25.391H16.1521H18.2311V27.47V29.47H20.2311H23.3931H25.3931V27.47V25.391H27.4721H29.4721V23.391V20.229V18.229H27.4721H25.3931V16.15V14.15Z" fill="white"/>
</svg>
