<svg width="44" height="44" viewBox="0 0 44 44" fill="none" xmlns="http://www.w3.org/2000/svg">
<path d="M43.622 0H0V43.622H43.622V0Z" fill="#BAA9A8"/>
<path d="M6.69287 10.287H11.6779L17.2888 27.937L32.6139 25.857L34.7569 14.952H13.1159" stroke="white" stroke-width="2" stroke-miterlimit="10"/>
<path d="M17.2888 27.937V31.278H33.1188" stroke="white" stroke-width="2" stroke-miterlimit="10"/>
<path d="M17.9029 36.915C18.8368 36.915 19.5939 36.1579 19.5939 35.224C19.5939 34.29 18.8368 33.533 17.9029 33.533C16.969 33.533 16.2119 34.29 16.2119 35.224C16.2119 36.1579 16.969 36.915 17.9029 36.915Z" fill="white"/>
<path d="M31.4268 36.915C32.3607 36.915 33.1179 36.1579 33.1179 35.224C33.1179 34.29 32.3607 33.533 31.4268 33.533C30.4929 33.533 29.7358 34.29 29.7358 35.224C29.7358 36.1579 30.4929 36.915 31.4268 36.915Z" fill="white"/>
</svg>
