<svg width="44" height="44" viewBox="0 0 44 44" fill="none" xmlns="http://www.w3.org/2000/svg">
<path d="M43.622 0H0V43.622H43.622V0Z" fill="#BAA9A8"/>
<path d="M32.9419 16.039C32.9419 20.013 32.0859 22.612 28.1969 22.612C24.6189 22.612 23.4519 20.013 23.4519 16.039C23.4519 12.065 25.5769 8.22101 28.1969 8.22101C30.8169 8.22101 32.9419 12.065 32.9419 16.039Z" stroke="white" stroke-width="2" stroke-miterlimit="10"/>
<path d="M10.6799 8.22101C10.6799 8.22101 10.6799 12.065 10.6799 16.039C10.6799 20.013 11.8469 22.612 15.4249 22.612C19.3149 22.612 20.1699 20.013 20.1699 16.039C20.1699 12.065 20.1699 8.22101 20.1699 8.22101" stroke="white" stroke-width="2" stroke-miterlimit="10" stroke-linejoin="round"/>
<path d="M13.8618 8.22101V15.416" stroke="white" stroke-width="2" stroke-miterlimit="10" stroke-linejoin="round"/>
<path d="M16.989 8.22101V15.416" stroke="white" stroke-width="2" stroke-miterlimit="10" stroke-linejoin="round"/>
<path d="M15.4248 22.612V36.776" stroke="white" stroke-width="2" stroke-miterlimit="10"/>
<path d="M28.1968 22.612V36.776" stroke="white" stroke-width="2" stroke-miterlimit="10"/>
</svg>
