<svg width="44" height="44" viewBox="0 0 44 44" fill="none" xmlns="http://www.w3.org/2000/svg">
<path d="M43.622 0H0V43.622H43.622V0Z" fill="#BAA9A8"/>
<path d="M31.8879 19.53C31.8879 25.834 31.8879 30.944 21.8109 30.944C11.7339 30.944 11.7339 25.834 11.7339 19.53C11.7339 13.226 16.2459 8.11597 21.8109 8.11597C27.3759 8.11597 31.8879 13.226 31.8879 19.53Z" stroke="white" stroke-width="2" stroke-miterlimit="10"/>
<path d="M26.8269 15.74C24.3629 18.248 21.8119 15.74 21.8119 15.74C19.3479 18.248 16.7969 15.74 16.7969 15.74" stroke="white" stroke-width="2" stroke-miterlimit="10"/>
<path d="M29.3338 22.318C26.8698 24.826 24.3188 22.318 24.3188 22.318C21.8548 24.826 19.3038 22.318 19.3038 22.318C16.8398 24.826 14.2888 22.318 14.2888 22.318" stroke="white" stroke-width="2" stroke-miterlimit="10"/>
<path d="M21.811 30.944V35.678" stroke="white" stroke-width="2" stroke-miterlimit="10"/>
<path d="M15.002 35.678H28.621" stroke="white" stroke-width="2" stroke-miterlimit="10"/>
</svg>
