<svg width="95" height="98" viewBox="0 0 95 98" fill="none" xmlns="http://www.w3.org/2000/svg">
<path d="M46.6895 77.2422C62.1534 77.2422 74.6895 64.7062 74.6895 49.2422C74.6895 33.7782 62.1534 21.2422 46.6895 21.2422C31.2255 21.2422 18.6895 33.7782 18.6895 49.2422C18.6895 64.7062 31.2255 77.2422 46.6895 77.2422Z" fill="white"/>
<path d="M46.7055 77.7494C44.1635 77.7494 41.6205 77.4044 39.1465 76.7264C31.8055 74.7114 25.6885 69.9574 21.9215 63.3424C18.1555 56.7264 17.1905 49.0404 19.2055 41.6984C22.5935 29.3554 33.8885 20.7344 46.6725 20.7344C49.2145 20.7344 51.7575 21.0794 54.2315 21.7574C61.5725 23.7724 67.6895 28.5264 71.4565 35.1414C75.2225 41.7574 76.1875 49.4434 74.1725 56.7854C70.7855 69.1284 59.4905 77.7494 46.7055 77.7494ZM46.6735 21.7344C34.3375 21.7344 23.4395 30.0524 20.1705 41.9634C18.2265 49.0464 19.1575 56.4634 22.7915 62.8464C26.4255 69.2304 32.3285 73.8174 39.4115 75.7604C41.7995 76.4154 44.2535 76.7484 46.7055 76.7484C59.0415 76.7484 69.9395 68.4304 73.2085 56.5194C75.1525 49.4364 74.2215 42.0194 70.5875 35.6364C66.9535 29.2524 61.0505 24.6654 53.9675 22.7224C51.5795 22.0674 49.1255 21.7344 46.6735 21.7344Z" fill="#858585"/>
<path d="M52.8775 45.7191L81.0195 58.6641L50.2125 55.4291L37.2675 83.5721L40.5025 52.7641L12.3595 39.8201L43.1675 43.0541L56.1115 14.9121L52.8775 45.7191Z" fill="white"/>
<path d="M36.4535 86.5393L39.9675 53.0693L9.39252 39.0053L42.8625 42.5203L56.9255 11.9453L53.4115 45.4153L83.9855 59.4793L50.5155 55.9653L36.4535 86.5393ZM15.3265 40.6343L41.0365 52.4603L38.0815 80.6063L49.9075 54.8953L50.2635 54.9333L78.0525 57.8503L52.3425 46.0233L55.2975 17.8773L43.4715 43.5903L43.1155 43.5523L15.3265 40.6343Z" fill="#858585"/>
<g opacity="0.5">
<g opacity="0.5">
<path opacity="0.5" d="M57.0898 15.2276L56.1257 14.9619L37.5267 82.4489L38.4908 82.7146L57.0898 15.2276Z" fill="#858585"/>
</g>
<g opacity="0.5">
<path opacity="0.5" d="M80.5726 57.9666L12.1073 39.1729L11.8426 40.1372L80.3079 58.9309L80.5726 57.9666Z" fill="#858585"/>
</g>
<g opacity="0.5">
<path opacity="0.5" d="M53.0019 45.9326L52.7549 45.499L40.3832 52.5492L40.6302 52.9828L53.0019 45.9326Z" fill="#858585"/>
</g>
<g opacity="0.5">
<path opacity="0.5" d="M50.4298 55.3023L43.3853 42.9277L42.9508 43.1751L49.9953 55.5496L50.4298 55.3023Z" fill="#858585"/>
</g>
</g>
<path d="M7.40249 36.6373L6.35049 36.3483C6.44149 35.9423 6.42049 35.5843 6.28849 35.2763C6.15549 34.9673 5.95249 34.7163 5.67549 34.5233C5.39949 34.3303 5.09149 34.1863 4.75149 34.0933C4.45949 34.0133 4.1615 33.9723 3.85549 33.9703C3.54949 33.9693 3.26649 34.0483 3.00349 34.2093C2.74149 34.3703 2.55749 34.6443 2.45149 35.0293C2.36349 35.3493 2.3875 35.6113 2.52349 35.8143C2.65849 36.0173 2.86549 36.1973 3.14649 36.3533L5.37049 37.5503C6.54649 38.1933 6.97149 39.1053 6.64549 40.2873C6.47949 40.9003 6.18149 41.3503 5.75549 41.6353C5.32649 41.9203 4.84649 42.0743 4.31149 42.0963C3.77749 42.1173 3.2425 42.0553 2.70749 41.9083C2.02749 41.7213 1.52549 41.5043 1.20149 41.2553C0.877495 41.0063 0.615495 40.7283 0.416495 40.4193C0.168495 40.0313 0.0304948 39.6553 0.0064948 39.2893C-0.0185052 38.9243 0.0284948 38.5213 0.150495 38.0833L1.20149 38.3713C1.07249 38.8413 1.07949 39.2513 1.22149 39.6023C1.36449 39.9553 1.59149 40.2393 1.90349 40.4563C2.21449 40.6733 2.56649 40.8363 2.96149 40.9443C3.51549 41.0963 4.04449 41.1323 4.54949 41.0513C5.05349 40.9713 5.37749 40.6673 5.52249 40.1403C5.60249 39.8483 5.61449 39.6013 5.55649 39.3993C5.49949 39.1973 5.36449 39.0053 5.14749 38.8233C4.93249 38.6413 4.60149 38.4293 4.15649 38.1853L2.56249 37.3253C1.45749 36.7263 1.04449 35.9133 1.32749 34.8843C1.45149 34.4313 1.66949 34.0363 1.98149 33.7023C2.29449 33.3663 2.69749 33.1393 3.19349 33.0173C3.68949 32.8953 4.25549 32.9223 4.89149 33.0983C5.77449 33.3403 6.41449 33.6703 6.81149 34.0903C7.20649 34.5103 7.42649 34.9313 7.47349 35.3543C7.52049 35.7773 7.49449 36.2043 7.40249 36.6373Z" fill="#858585"/>
<path d="M91.3355 64.2768L93.1775 57.5648L94.2655 57.8628L91.9855 66.1728L90.7255 65.8258L88.3445 57.9548L88.3195 57.9478L86.4765 64.6598L85.3885 64.3618L87.6685 56.0518L88.9985 56.4178L91.3125 64.2718L91.3355 64.2768Z" fill="#858585"/>
<path d="M58.9595 2.869L55.1475 9.226L53.9665 8.902L54.0855 0L55.3005 0.333L54.9945 7.517L55.0195 7.524L58.7365 1.277L59.9635 1.614L59.9745 8.884L59.9965 8.89L63.4025 2.558L64.6395 2.898L60.1715 10.607L58.9905 10.283L58.9805 2.877L58.9595 2.869Z" fill="#858585"/>
<path d="M37.1755 96.3798L36.9025 97.3748L30.7715 95.6908L33.0515 87.3818L39.1005 89.0418L38.8285 90.0358L33.9015 88.6838L33.2035 91.2288L37.7495 92.4768L37.4765 93.4708L32.9305 92.2228L32.1675 95.0028L37.1755 96.3798Z" fill="#858585"/>
</svg>
