<svg width="847" height="106" viewBox="0 0 847 106" fill="none" xmlns="http://www.w3.org/2000/svg">
<path d="M51.495 70.0352H16.978V87.2942H51.495V70.0352Z" stroke="#D2CDCC" stroke-width="2" stroke-miterlimit="10"/>
<path d="M86.012 70.0352H51.495V87.2942H86.012V70.0352Z" stroke="#D2CDCC" stroke-width="2" stroke-miterlimit="10"/>
<path d="M120.529 70.0352H86.012V87.2942H120.529V70.0352Z" stroke="#D2CDCC" stroke-width="2" stroke-miterlimit="10"/>
<path d="M155.046 70.0352H120.529V87.2942H155.046V70.0352Z" stroke="#D2CDCC" stroke-width="2" stroke-miterlimit="10"/>
<path d="M35.517 52.7764H1V70.0354H35.517V52.7764Z" stroke="#D2CDCC" stroke-width="2" stroke-miterlimit="10"/>
<path d="M70.034 52.7764H35.517V70.0354H70.034V52.7764Z" stroke="#D2CDCC" stroke-width="2" stroke-miterlimit="10"/>
<path d="M104.552 52.7764H70.035V70.0354H104.552V52.7764Z" stroke="#D2CDCC" stroke-width="2" stroke-miterlimit="10"/>
<path d="M139.069 52.7764H104.552V70.0354H139.069V52.7764Z" stroke="#D2CDCC" stroke-width="2" stroke-miterlimit="10"/>
<path d="M35.517 87.293H1V104.552H35.517V87.293Z" stroke="#D2CDCC" stroke-width="2" stroke-miterlimit="10"/>
<path d="M70.034 87.293H35.517V104.552H70.034V87.293Z" stroke="#D2CDCC" stroke-width="2" stroke-miterlimit="10"/>
<path d="M104.552 87.293H70.035V104.552H104.552V87.293Z" stroke="#D2CDCC" stroke-width="2" stroke-miterlimit="10"/>
<path d="M139.069 87.293H104.552V104.552H139.069V87.293Z" stroke="#D2CDCC" stroke-width="2" stroke-miterlimit="10"/>
<path d="M17.683 104.552V87.293" stroke="#D2CDCC" stroke-width="2" stroke-miterlimit="10"/>
<path d="M52.776 104.552V87.293" stroke="#D2CDCC" stroke-width="2" stroke-miterlimit="10"/>
<path d="M87.293 104.553V88.0527" stroke="#D2CDCC" stroke-width="2" stroke-miterlimit="10"/>
<path d="M121.81 104.552V87.293" stroke="#D2CDCC" stroke-width="2" stroke-miterlimit="10"/>
<path d="M139.069 18.2588H104.552V35.5178H139.069V18.2588Z" stroke="#D2CDCC" stroke-width="2" stroke-miterlimit="10"/>
<path d="M104.552 18.2588H70.035V35.5178H104.552V18.2588Z" stroke="#D2CDCC" stroke-width="2" stroke-miterlimit="10"/>
<path d="M70.034 18.2588H35.517V35.5178H70.034V18.2588Z" stroke="#D2CDCC" stroke-width="2" stroke-miterlimit="10"/>
<path d="M35.517 18.2588H1V35.5178H35.517V18.2588Z" stroke="#D2CDCC" stroke-width="2" stroke-miterlimit="10"/>
<path d="M155.046 35.5166H120.529V52.7756H155.046V35.5166Z" stroke="#D2CDCC" stroke-width="2" stroke-miterlimit="10"/>
<path d="M120.529 35.5166H86.012V52.7756H120.529V35.5166Z" stroke="#D2CDCC" stroke-width="2" stroke-miterlimit="10"/>
<path d="M86.012 35.5166H51.495V52.7756H86.012V35.5166Z" stroke="#D2CDCC" stroke-width="2" stroke-miterlimit="10"/>
<path d="M51.495 35.5166H16.978V52.7756H51.495V35.5166Z" stroke="#D2CDCC" stroke-width="2" stroke-miterlimit="10"/>
<path d="M155.046 1H120.529V18.259H155.046V1Z" stroke="#D2CDCC" stroke-width="2" stroke-miterlimit="10"/>
<path d="M120.529 1H86.012V18.259H120.529V1Z" stroke="#D2CDCC" stroke-width="2" stroke-miterlimit="10"/>
<path d="M86.012 1H51.495V18.259H86.012V1Z" stroke="#D2CDCC" stroke-width="2" stroke-miterlimit="10"/>
<path d="M51.495 1H16.978V18.259H51.495V1Z" stroke="#D2CDCC" stroke-width="2" stroke-miterlimit="10"/>
<path d="M138.363 1V18.259" stroke="#D2CDCC" stroke-width="2" stroke-miterlimit="10"/>
<path d="M103.271 1V18.259" stroke="#D2CDCC" stroke-width="2" stroke-miterlimit="10"/>
<path d="M68.754 1V17.5" stroke="#D2CDCC" stroke-width="2" stroke-miterlimit="10"/>
<path d="M34.236 1V18.259" stroke="#D2CDCC" stroke-width="2" stroke-miterlimit="10"/>
<path d="M189.564 70.0352H155.047V87.2942H189.564V70.0352Z" stroke="#D2CDCC" stroke-width="2" stroke-miterlimit="10"/>
<path d="M224.081 70.0352H189.564V87.2942H224.081V70.0352Z" stroke="#D2CDCC" stroke-width="2" stroke-miterlimit="10"/>
<path d="M258.598 70.0352H224.081V87.2942H258.598V70.0352Z" stroke="#D2CDCC" stroke-width="2" stroke-miterlimit="10"/>
<path d="M293.115 70.0352H258.598V87.2942H293.115V70.0352Z" stroke="#D2CDCC" stroke-width="2" stroke-miterlimit="10"/>
<path d="M173.586 52.7764H139.069V70.0354H173.586V52.7764Z" stroke="#D2CDCC" stroke-width="2" stroke-miterlimit="10"/>
<path d="M208.103 52.7764H173.586V70.0354H208.103V52.7764Z" stroke="#D2CDCC" stroke-width="2" stroke-miterlimit="10"/>
<path d="M242.62 52.7764H208.103V70.0354H242.62V52.7764Z" stroke="#D2CDCC" stroke-width="2" stroke-miterlimit="10"/>
<path d="M277.138 52.7764H242.621V70.0354H277.138V52.7764Z" stroke="#D2CDCC" stroke-width="2" stroke-miterlimit="10"/>
<path d="M173.586 87.293H139.069V104.552H173.586V87.293Z" stroke="#D2CDCC" stroke-width="2" stroke-miterlimit="10"/>
<path d="M208.103 87.293H173.586V104.552H208.103V87.293Z" stroke="#D2CDCC" stroke-width="2" stroke-miterlimit="10"/>
<path d="M242.62 87.293H208.103V104.552H242.62V87.293Z" stroke="#D2CDCC" stroke-width="2" stroke-miterlimit="10"/>
<path d="M277.138 87.293H242.621V104.552H277.138V87.293Z" stroke="#D2CDCC" stroke-width="2" stroke-miterlimit="10"/>
<path d="M155.752 104.552V87.293" stroke="#D2CDCC" stroke-width="2" stroke-miterlimit="10"/>
<path d="M190.845 104.552V87.293" stroke="#D2CDCC" stroke-width="2" stroke-miterlimit="10"/>
<path d="M225.362 104.553V88.0527" stroke="#D2CDCC" stroke-width="2" stroke-miterlimit="10"/>
<path d="M259.879 104.552V87.293" stroke="#D2CDCC" stroke-width="2" stroke-miterlimit="10"/>
<path d="M277.138 18.2588H242.621V35.5178H277.138V18.2588Z" stroke="#D2CDCC" stroke-width="2" stroke-miterlimit="10"/>
<path d="M242.62 18.2588H208.103V35.5178H242.62V18.2588Z" stroke="#D2CDCC" stroke-width="2" stroke-miterlimit="10"/>
<path d="M208.103 18.2588H173.586V35.5178H208.103V18.2588Z" stroke="#D2CDCC" stroke-width="2" stroke-miterlimit="10"/>
<path d="M173.586 18.2588H139.069V35.5178H173.586V18.2588Z" stroke="#D2CDCC" stroke-width="2" stroke-miterlimit="10"/>
<path d="M293.115 35.5166H258.598V52.7756H293.115V35.5166Z" stroke="#D2CDCC" stroke-width="2" stroke-miterlimit="10"/>
<path d="M258.598 35.5166H224.081V52.7756H258.598V35.5166Z" stroke="#D2CDCC" stroke-width="2" stroke-miterlimit="10"/>
<path d="M224.081 35.5166H189.564V52.7756H224.081V35.5166Z" stroke="#D2CDCC" stroke-width="2" stroke-miterlimit="10"/>
<path d="M189.564 35.5166H155.047V52.7756H189.564V35.5166Z" stroke="#D2CDCC" stroke-width="2" stroke-miterlimit="10"/>
<path d="M293.115 1H258.598V18.259H293.115V1Z" stroke="#D2CDCC" stroke-width="2" stroke-miterlimit="10"/>
<path d="M258.598 1H224.081V18.259H258.598V1Z" stroke="#D2CDCC" stroke-width="2" stroke-miterlimit="10"/>
<path d="M224.081 1H189.564V18.259H224.081V1Z" stroke="#D2CDCC" stroke-width="2" stroke-miterlimit="10"/>
<path d="M189.564 1H155.047V18.259H189.564V1Z" stroke="#D2CDCC" stroke-width="2" stroke-miterlimit="10"/>
<path d="M276.432 1V18.259" stroke="#D2CDCC" stroke-width="2" stroke-miterlimit="10"/>
<path d="M241.34 1V18.259" stroke="#D2CDCC" stroke-width="2" stroke-miterlimit="10"/>
<path d="M206.823 1V17.5" stroke="#D2CDCC" stroke-width="2" stroke-miterlimit="10"/>
<path d="M172.305 1V18.259" stroke="#D2CDCC" stroke-width="2" stroke-miterlimit="10"/>
<path d="M327.633 70.0352H293.116V87.2942H327.633V70.0352Z" stroke="#D2CDCC" stroke-width="2" stroke-miterlimit="10"/>
<path d="M362.15 70.0352H327.633V87.2942H362.15V70.0352Z" stroke="#D2CDCC" stroke-width="2" stroke-miterlimit="10"/>
<path d="M396.667 70.0352H362.15V87.2942H396.667V70.0352Z" stroke="#D2CDCC" stroke-width="2" stroke-miterlimit="10"/>
<path d="M431.184 70.0352H396.667V87.2942H431.184V70.0352Z" stroke="#D2CDCC" stroke-width="2" stroke-miterlimit="10"/>
<path d="M311.655 52.7764H277.138V70.0354H311.655V52.7764Z" stroke="#D2CDCC" stroke-width="2" stroke-miterlimit="10"/>
<path d="M346.172 52.7764H311.655V70.0354H346.172V52.7764Z" stroke="#D2CDCC" stroke-width="2" stroke-miterlimit="10"/>
<path d="M380.69 52.7764H346.173V70.0354H380.69V52.7764Z" stroke="#D2CDCC" stroke-width="2" stroke-miterlimit="10"/>
<path d="M415.207 52.7764H380.69V70.0354H415.207V52.7764Z" stroke="#D2CDCC" stroke-width="2" stroke-miterlimit="10"/>
<path d="M311.655 87.293H277.138V104.552H311.655V87.293Z" stroke="#D2CDCC" stroke-width="2" stroke-miterlimit="10"/>
<path d="M346.172 87.293H311.655V104.552H346.172V87.293Z" stroke="#D2CDCC" stroke-width="2" stroke-miterlimit="10"/>
<path d="M380.69 87.293H346.173V104.552H380.69V87.293Z" stroke="#D2CDCC" stroke-width="2" stroke-miterlimit="10"/>
<path d="M415.207 87.293H380.69V104.552H415.207V87.293Z" stroke="#D2CDCC" stroke-width="2" stroke-miterlimit="10"/>
<path d="M293.821 104.552V87.293" stroke="#D2CDCC" stroke-width="2" stroke-miterlimit="10"/>
<path d="M328.914 104.552V87.293" stroke="#D2CDCC" stroke-width="2" stroke-miterlimit="10"/>
<path d="M363.431 104.553V88.0527" stroke="#D2CDCC" stroke-width="2" stroke-miterlimit="10"/>
<path d="M397.948 104.552V87.293" stroke="#D2CDCC" stroke-width="2" stroke-miterlimit="10"/>
<path d="M415.207 18.2588H380.69V35.5178H415.207V18.2588Z" stroke="#D2CDCC" stroke-width="2" stroke-miterlimit="10"/>
<path d="M380.69 18.2588H346.173V35.5178H380.69V18.2588Z" stroke="#D2CDCC" stroke-width="2" stroke-miterlimit="10"/>
<path d="M346.172 18.2588H311.655V35.5178H346.172V18.2588Z" stroke="#D2CDCC" stroke-width="2" stroke-miterlimit="10"/>
<path d="M311.655 18.2588H277.138V35.5178H311.655V18.2588Z" stroke="#D2CDCC" stroke-width="2" stroke-miterlimit="10"/>
<path d="M431.184 35.5166H396.667V52.7756H431.184V35.5166Z" stroke="#D2CDCC" stroke-width="2" stroke-miterlimit="10"/>
<path d="M396.667 35.5166H362.15V52.7756H396.667V35.5166Z" stroke="#D2CDCC" stroke-width="2" stroke-miterlimit="10"/>
<path d="M362.15 35.5166H327.633V52.7756H362.15V35.5166Z" stroke="#D2CDCC" stroke-width="2" stroke-miterlimit="10"/>
<path d="M327.633 35.5166H293.116V52.7756H327.633V35.5166Z" stroke="#D2CDCC" stroke-width="2" stroke-miterlimit="10"/>
<path d="M431.184 1H396.667V18.259H431.184V1Z" stroke="#D2CDCC" stroke-width="2" stroke-miterlimit="10"/>
<path d="M396.667 1H362.15V18.259H396.667V1Z" stroke="#D2CDCC" stroke-width="2" stroke-miterlimit="10"/>
<path d="M362.15 1H327.633V18.259H362.15V1Z" stroke="#D2CDCC" stroke-width="2" stroke-miterlimit="10"/>
<path d="M327.633 1H293.116V18.259H327.633V1Z" stroke="#D2CDCC" stroke-width="2" stroke-miterlimit="10"/>
<path d="M414.501 1V18.259" stroke="#D2CDCC" stroke-width="2" stroke-miterlimit="10"/>
<path d="M379.409 1V18.259" stroke="#D2CDCC" stroke-width="2" stroke-miterlimit="10"/>
<path d="M344.892 1V17.5" stroke="#D2CDCC" stroke-width="2" stroke-miterlimit="10"/>
<path d="M310.374 1V18.259" stroke="#D2CDCC" stroke-width="2" stroke-miterlimit="10"/>
<path d="M465.702 70.0352H431.185V87.2942H465.702V70.0352Z" stroke="#D2CDCC" stroke-width="2" stroke-miterlimit="10"/>
<path d="M500.219 70.0352H465.702V87.2942H500.219V70.0352Z" stroke="#D2CDCC" stroke-width="2" stroke-miterlimit="10"/>
<path d="M534.736 70.0352H500.219V87.2942H534.736V70.0352Z" stroke="#D2CDCC" stroke-width="2" stroke-miterlimit="10"/>
<path d="M569.254 70.0352H534.737V87.2942H569.254V70.0352Z" stroke="#D2CDCC" stroke-width="2" stroke-miterlimit="10"/>
<path d="M449.724 52.7764H415.207V70.0354H449.724V52.7764Z" stroke="#D2CDCC" stroke-width="2" stroke-miterlimit="10"/>
<path d="M484.241 52.7764H449.724V70.0354H484.241V52.7764Z" stroke="#D2CDCC" stroke-width="2" stroke-miterlimit="10"/>
<path d="M518.758 52.7764H484.241V70.0354H518.758V52.7764Z" stroke="#D2CDCC" stroke-width="2" stroke-miterlimit="10"/>
<path d="M553.276 52.7764H518.759V70.0354H553.276V52.7764Z" stroke="#D2CDCC" stroke-width="2" stroke-miterlimit="10"/>
<path d="M449.724 87.293H415.207V104.552H449.724V87.293Z" stroke="#D2CDCC" stroke-width="2" stroke-miterlimit="10"/>
<path d="M484.241 87.293H449.724V104.552H484.241V87.293Z" stroke="#D2CDCC" stroke-width="2" stroke-miterlimit="10"/>
<path d="M518.758 87.293H484.241V104.552H518.758V87.293Z" stroke="#D2CDCC" stroke-width="2" stroke-miterlimit="10"/>
<path d="M553.276 87.293H518.759V104.552H553.276V87.293Z" stroke="#D2CDCC" stroke-width="2" stroke-miterlimit="10"/>
<path d="M431.89 104.552V87.293" stroke="#D2CDCC" stroke-width="2" stroke-miterlimit="10"/>
<path d="M466.983 104.552V87.293" stroke="#D2CDCC" stroke-width="2" stroke-miterlimit="10"/>
<path d="M501.5 104.553V88.0527" stroke="#D2CDCC" stroke-width="2" stroke-miterlimit="10"/>
<path d="M536.017 104.552V87.293" stroke="#D2CDCC" stroke-width="2" stroke-miterlimit="10"/>
<path d="M553.276 18.2588H518.759V35.5178H553.276V18.2588Z" stroke="#D2CDCC" stroke-width="2" stroke-miterlimit="10"/>
<path d="M518.758 18.2588H484.241V35.5178H518.758V18.2588Z" stroke="#D2CDCC" stroke-width="2" stroke-miterlimit="10"/>
<path d="M484.241 18.2588H449.724V35.5178H484.241V18.2588Z" stroke="#D2CDCC" stroke-width="2" stroke-miterlimit="10"/>
<path d="M449.724 18.2588H415.207V35.5178H449.724V18.2588Z" stroke="#D2CDCC" stroke-width="2" stroke-miterlimit="10"/>
<path d="M569.254 35.5166H534.737V52.7756H569.254V35.5166Z" stroke="#D2CDCC" stroke-width="2" stroke-miterlimit="10"/>
<path d="M534.736 35.5166H500.219V52.7756H534.736V35.5166Z" stroke="#D2CDCC" stroke-width="2" stroke-miterlimit="10"/>
<path d="M500.219 35.5166H465.702V52.7756H500.219V35.5166Z" stroke="#D2CDCC" stroke-width="2" stroke-miterlimit="10"/>
<path d="M465.702 35.5166H431.185V52.7756H465.702V35.5166Z" stroke="#D2CDCC" stroke-width="2" stroke-miterlimit="10"/>
<path d="M569.254 1H534.737V18.259H569.254V1Z" stroke="#D2CDCC" stroke-width="2" stroke-miterlimit="10"/>
<path d="M534.736 1H500.219V18.259H534.736V1Z" stroke="#D2CDCC" stroke-width="2" stroke-miterlimit="10"/>
<path d="M500.219 1H465.702V18.259H500.219V1Z" stroke="#D2CDCC" stroke-width="2" stroke-miterlimit="10"/>
<path d="M465.702 1H431.185V18.259H465.702V1Z" stroke="#D2CDCC" stroke-width="2" stroke-miterlimit="10"/>
<path d="M552.57 1V18.259" stroke="#D2CDCC" stroke-width="2" stroke-miterlimit="10"/>
<path d="M517.478 1V18.259" stroke="#D2CDCC" stroke-width="2" stroke-miterlimit="10"/>
<path d="M482.961 1V17.5" stroke="#D2CDCC" stroke-width="2" stroke-miterlimit="10"/>
<path d="M448.443 1V18.259" stroke="#D2CDCC" stroke-width="2" stroke-miterlimit="10"/>
<path d="M603.771 70.0352H569.254V87.2942H603.771V70.0352Z" stroke="#D2CDCC" stroke-width="2" stroke-miterlimit="10"/>
<path d="M638.288 70.0352H603.771V87.2942H638.288V70.0352Z" stroke="#D2CDCC" stroke-width="2" stroke-miterlimit="10"/>
<path d="M672.805 70.0352H638.288V87.2942H672.805V70.0352Z" stroke="#D2CDCC" stroke-width="2" stroke-miterlimit="10"/>
<path d="M707.322 70.0352H672.805V87.2942H707.322V70.0352Z" stroke="#D2CDCC" stroke-width="2" stroke-miterlimit="10"/>
<path d="M587.793 52.7764H553.276V70.0354H587.793V52.7764Z" stroke="#D2CDCC" stroke-width="2" stroke-miterlimit="10"/>
<path d="M622.31 52.7764H587.793V70.0354H622.31V52.7764Z" stroke="#D2CDCC" stroke-width="2" stroke-miterlimit="10"/>
<path d="M656.827 52.7764H622.31V70.0354H656.827V52.7764Z" stroke="#D2CDCC" stroke-width="2" stroke-miterlimit="10"/>
<path d="M691.345 52.7764H656.828V70.0354H691.345V52.7764Z" stroke="#D2CDCC" stroke-width="2" stroke-miterlimit="10"/>
<path d="M587.793 87.293H553.276V104.552H587.793V87.293Z" stroke="#D2CDCC" stroke-width="2" stroke-miterlimit="10"/>
<path d="M622.31 87.293H587.793V104.552H622.31V87.293Z" stroke="#D2CDCC" stroke-width="2" stroke-miterlimit="10"/>
<path d="M656.827 87.293H622.31V104.552H656.827V87.293Z" stroke="#D2CDCC" stroke-width="2" stroke-miterlimit="10"/>
<path d="M691.345 87.293H656.828V104.552H691.345V87.293Z" stroke="#D2CDCC" stroke-width="2" stroke-miterlimit="10"/>
<path d="M569.959 104.552V87.293" stroke="#D2CDCC" stroke-width="2" stroke-miterlimit="10"/>
<path d="M605.052 104.552V87.293" stroke="#D2CDCC" stroke-width="2" stroke-miterlimit="10"/>
<path d="M639.569 104.553V88.0527" stroke="#D2CDCC" stroke-width="2" stroke-miterlimit="10"/>
<path d="M674.086 104.552V87.293" stroke="#D2CDCC" stroke-width="2" stroke-miterlimit="10"/>
<path d="M691.345 18.2588H656.828V35.5178H691.345V18.2588Z" stroke="#D2CDCC" stroke-width="2" stroke-miterlimit="10"/>
<path d="M656.827 18.2588H622.31V35.5178H656.827V18.2588Z" stroke="#D2CDCC" stroke-width="2" stroke-miterlimit="10"/>
<path d="M622.31 18.2588H587.793V35.5178H622.31V18.2588Z" stroke="#D2CDCC" stroke-width="2" stroke-miterlimit="10"/>
<path d="M587.793 18.2588H553.276V35.5178H587.793V18.2588Z" stroke="#D2CDCC" stroke-width="2" stroke-miterlimit="10"/>
<path d="M707.322 35.5166H672.805V52.7756H707.322V35.5166Z" stroke="#D2CDCC" stroke-width="2" stroke-miterlimit="10"/>
<path d="M672.805 35.5166H638.288V52.7756H672.805V35.5166Z" stroke="#D2CDCC" stroke-width="2" stroke-miterlimit="10"/>
<path d="M638.288 35.5166H603.771V52.7756H638.288V35.5166Z" stroke="#D2CDCC" stroke-width="2" stroke-miterlimit="10"/>
<path d="M603.771 35.5166H569.254V52.7756H603.771V35.5166Z" stroke="#D2CDCC" stroke-width="2" stroke-miterlimit="10"/>
<path d="M707.322 1H672.805V18.259H707.322V1Z" stroke="#D2CDCC" stroke-width="2" stroke-miterlimit="10"/>
<path d="M672.805 1H638.288V18.259H672.805V1Z" stroke="#D2CDCC" stroke-width="2" stroke-miterlimit="10"/>
<path d="M638.288 1H603.771V18.259H638.288V1Z" stroke="#D2CDCC" stroke-width="2" stroke-miterlimit="10"/>
<path d="M603.771 1H569.254V18.259H603.771V1Z" stroke="#D2CDCC" stroke-width="2" stroke-miterlimit="10"/>
<path d="M690.639 1V18.259" stroke="#D2CDCC" stroke-width="2" stroke-miterlimit="10"/>
<path d="M655.547 1V18.259" stroke="#D2CDCC" stroke-width="2" stroke-miterlimit="10"/>
<path d="M621.03 1V17.5" stroke="#D2CDCC" stroke-width="2" stroke-miterlimit="10"/>
<path d="M586.512 1V18.259" stroke="#D2CDCC" stroke-width="2" stroke-miterlimit="10"/>
<path d="M741.84 70.0352H707.323V87.2942H741.84V70.0352Z" stroke="#D2CDCC" stroke-width="2" stroke-miterlimit="10"/>
<path d="M776.357 70.0352H741.84V87.2942H776.357V70.0352Z" stroke="#D2CDCC" stroke-width="2" stroke-miterlimit="10"/>
<path d="M810.874 70.0352H776.357V87.2942H810.874V70.0352Z" stroke="#D2CDCC" stroke-width="2" stroke-miterlimit="10"/>
<path d="M845.391 70.0352H810.874V87.2942H845.391V70.0352Z" stroke="#D2CDCC" stroke-width="2" stroke-miterlimit="10"/>
<path d="M725.862 52.7764H691.345V70.0354H725.862V52.7764Z" stroke="#D2CDCC" stroke-width="2" stroke-miterlimit="10"/>
<path d="M760.379 52.7764H725.862V70.0354H760.379V52.7764Z" stroke="#D2CDCC" stroke-width="2" stroke-miterlimit="10"/>
<path d="M794.897 52.7764H760.38V70.0354H794.897V52.7764Z" stroke="#D2CDCC" stroke-width="2" stroke-miterlimit="10"/>
<path d="M829.414 52.7764H794.897V70.0354H829.414V52.7764Z" stroke="#D2CDCC" stroke-width="2" stroke-miterlimit="10"/>
<path d="M725.862 87.293H691.345V104.552H725.862V87.293Z" stroke="#D2CDCC" stroke-width="2" stroke-miterlimit="10"/>
<path d="M760.379 87.293H725.862V104.552H760.379V87.293Z" stroke="#D2CDCC" stroke-width="2" stroke-miterlimit="10"/>
<path d="M794.897 87.293H760.38V104.552H794.897V87.293Z" stroke="#D2CDCC" stroke-width="2" stroke-miterlimit="10"/>
<path d="M829.414 87.293H794.897V104.552H829.414V87.293Z" stroke="#D2CDCC" stroke-width="2" stroke-miterlimit="10"/>
<path d="M708.028 104.552V87.293" stroke="#D2CDCC" stroke-width="2" stroke-miterlimit="10"/>
<path d="M743.121 104.552V87.293" stroke="#D2CDCC" stroke-width="2" stroke-miterlimit="10"/>
<path d="M777.638 104.553V88.0527" stroke="#D2CDCC" stroke-width="2" stroke-miterlimit="10"/>
<path d="M812.155 104.552V87.293" stroke="#D2CDCC" stroke-width="2" stroke-miterlimit="10"/>
<path d="M829.414 18.2588H794.897V35.5178H829.414V18.2588Z" stroke="#D2CDCC" stroke-width="2" stroke-miterlimit="10"/>
<path d="M794.897 18.2588H760.38V35.5178H794.897V18.2588Z" stroke="#D2CDCC" stroke-width="2" stroke-miterlimit="10"/>
<path d="M760.379 18.2588H725.862V35.5178H760.379V18.2588Z" stroke="#D2CDCC" stroke-width="2" stroke-miterlimit="10"/>
<path d="M725.862 18.2588H691.345V35.5178H725.862V18.2588Z" stroke="#D2CDCC" stroke-width="2" stroke-miterlimit="10"/>
<path d="M845.391 35.5166H810.874V52.7756H845.391V35.5166Z" stroke="#D2CDCC" stroke-width="2" stroke-miterlimit="10"/>
<path d="M810.874 35.5166H776.357V52.7756H810.874V35.5166Z" stroke="#D2CDCC" stroke-width="2" stroke-miterlimit="10"/>
<path d="M776.357 35.5166H741.84V52.7756H776.357V35.5166Z" stroke="#D2CDCC" stroke-width="2" stroke-miterlimit="10"/>
<path d="M741.84 35.5166H707.323V52.7756H741.84V35.5166Z" stroke="#D2CDCC" stroke-width="2" stroke-miterlimit="10"/>
<path d="M845.391 1H810.874V18.259H845.391V1Z" stroke="#D2CDCC" stroke-width="2" stroke-miterlimit="10"/>
<path d="M810.874 1H776.357V18.259H810.874V1Z" stroke="#D2CDCC" stroke-width="2" stroke-miterlimit="10"/>
<path d="M776.357 1H741.84V18.259H776.357V1Z" stroke="#D2CDCC" stroke-width="2" stroke-miterlimit="10"/>
<path d="M741.84 1H707.323V18.259H741.84V1Z" stroke="#D2CDCC" stroke-width="2" stroke-miterlimit="10"/>
<path d="M828.708 1V18.259" stroke="#D2CDCC" stroke-width="2" stroke-miterlimit="10"/>
<path d="M793.616 1V18.259" stroke="#D2CDCC" stroke-width="2" stroke-miterlimit="10"/>
<path d="M759.099 1V17.5" stroke="#D2CDCC" stroke-width="2" stroke-miterlimit="10"/>
<path d="M724.581 1V18.259" stroke="#D2CDCC" stroke-width="2" stroke-miterlimit="10"/>
</svg>
