<svg width="550" height="89" viewBox="0 0 550 89" fill="none" xmlns="http://www.w3.org/2000/svg">
<path d="M287.167 33.82C296.23 33.82 303.577 26.473 303.577 17.41C303.577 8.34701 296.23 1 287.167 1C278.104 1 270.757 8.34701 270.757 17.41C270.757 26.473 278.104 33.82 287.167 33.82Z" stroke="#D2CDCC" stroke-width="2" stroke-miterlimit="10"/>
<path d="M238.835 33.82C246.692 33.82 253.062 26.473 253.062 17.41C253.062 8.34701 246.692 1 238.835 1C230.978 1 224.608 8.34701 224.608 17.41C224.608 26.473 230.978 33.82 238.835 33.82Z" stroke="#D2CDCC" stroke-width="2" stroke-miterlimit="10"/>
<path d="M238.835 1H243.1C250.957 1 257.327 8.347 257.327 17.41C257.327 26.473 250.957 33.82 243.1 33.82H238.835" stroke="#D2CDCC" stroke-width="2" stroke-miterlimit="10"/>
<path d="M192.367 33.82C198.696 33.82 203.826 26.473 203.826 17.41C203.826 8.34701 198.696 1 192.367 1C186.038 1 180.908 8.34701 180.908 17.41C180.908 26.473 186.038 33.82 192.367 33.82Z" stroke="#D2CDCC" stroke-width="2" stroke-miterlimit="10"/>
<path d="M192.367 1H197.29C203.618 1 208.749 8.347 208.749 17.41C208.749 26.473 203.619 33.82 197.29 33.82H192.367" stroke="#D2CDCC" stroke-width="2" stroke-miterlimit="10"/>
<path d="M145.703 33.82C150.1 33.82 153.665 26.473 153.665 17.41C153.665 8.34701 150.1 1 145.703 1C141.306 1 137.741 8.34701 137.741 17.41C137.741 26.473 141.306 33.82 145.703 33.82Z" stroke="#D2CDCC" stroke-width="2" stroke-miterlimit="10"/>
<path d="M145.703 1H150.856C155.253 1 158.818 8.347 158.818 17.41C158.818 26.473 155.253 33.82 150.856 33.82H145.703" stroke="#D2CDCC" stroke-width="2" stroke-miterlimit="10"/>
<path d="M99.562 33.82C102.742 33.82 105.32 26.473 105.32 17.41C105.32 8.34701 102.742 1 99.562 1C96.3819 1 93.804 8.34701 93.804 17.41C93.804 26.473 96.3819 33.82 99.562 33.82Z" stroke="#D2CDCC" stroke-width="2" stroke-miterlimit="10"/>
<path d="M99.562 1H105.32C108.5 1 111.078 8.347 111.078 17.41C111.078 26.473 108.5 33.82 105.32 33.82H99.562" stroke="#D2CDCC" stroke-width="2" stroke-miterlimit="10"/>
<path d="M53.3981 33.82C54.9881 33.82 56.277 26.473 56.277 17.41C56.277 8.34701 54.9881 1 53.3981 1C51.808 1 50.519 8.34701 50.519 17.41C50.519 26.473 51.808 33.82 53.3981 33.82Z" stroke="#D2CDCC" stroke-width="2" stroke-miterlimit="10"/>
<path d="M53.3979 1H59.655C61.245 1 62.5339 8.347 62.5339 17.41C62.5339 26.473 61.245 33.82 59.655 33.82H53.3979" stroke="#D2CDCC" stroke-width="2" stroke-miterlimit="10"/>
<path d="M13.976 1H6.17896V33.821H13.976V1Z" stroke="#D2CDCC" stroke-width="2" stroke-miterlimit="10"/>
<path d="M335.5 33.82C343.357 33.82 349.727 26.473 349.727 17.41C349.727 8.34701 343.357 1 335.5 1C327.643 1 321.273 8.34701 321.273 17.41C321.273 26.473 327.643 33.82 335.5 33.82Z" stroke="#D2CDCC" stroke-width="2" stroke-miterlimit="10"/>
<path d="M335.5 1H331.235C323.378 1 317.008 8.347 317.008 17.41C317.008 26.473 323.378 33.82 331.235 33.82H335.5" stroke="#D2CDCC" stroke-width="2" stroke-miterlimit="10"/>
<path d="M381.967 33.82C388.296 33.82 393.426 26.473 393.426 17.41C393.426 8.34701 388.296 1 381.967 1C375.638 1 370.508 8.34701 370.508 17.41C370.508 26.473 375.638 33.82 381.967 33.82Z" stroke="#D2CDCC" stroke-width="2" stroke-miterlimit="10"/>
<path d="M381.967 1H377.044C370.716 1 365.585 8.347 365.585 17.41C365.585 26.473 370.715 33.82 377.044 33.82H381.967" stroke="#D2CDCC" stroke-width="2" stroke-miterlimit="10"/>
<path d="M428.631 33.82C433.028 33.82 436.593 26.473 436.593 17.41C436.593 8.34701 433.028 1 428.631 1C424.234 1 420.669 8.34701 420.669 17.41C420.669 26.473 424.234 33.82 428.631 33.82Z" stroke="#D2CDCC" stroke-width="2" stroke-miterlimit="10"/>
<path d="M428.631 1H423.478C419.081 1 415.516 8.347 415.516 17.41C415.516 26.473 419.081 33.82 423.478 33.82H428.631" stroke="#D2CDCC" stroke-width="2" stroke-miterlimit="10"/>
<path d="M474.773 33.82C477.953 33.82 480.531 26.473 480.531 17.41C480.531 8.34701 477.953 1 474.773 1C471.593 1 469.015 8.34701 469.015 17.41C469.015 26.473 471.593 33.82 474.773 33.82Z" stroke="#D2CDCC" stroke-width="2" stroke-miterlimit="10"/>
<path d="M474.773 1H469.015C465.835 1 463.257 8.347 463.257 17.41C463.257 26.473 465.835 33.82 469.015 33.82H474.773" stroke="#D2CDCC" stroke-width="2" stroke-miterlimit="10"/>
<path d="M520.937 33.82C522.527 33.82 523.816 26.473 523.816 17.41C523.816 8.34701 522.527 1 520.937 1C519.347 1 518.058 8.34701 518.058 17.41C518.058 26.473 519.347 33.82 520.937 33.82Z" stroke="#D2CDCC" stroke-width="2" stroke-miterlimit="10"/>
<path d="M520.937 1H514.68C513.09 1 511.801 8.347 511.801 17.41C511.801 26.473 513.09 33.82 514.68 33.82H520.937" stroke="#D2CDCC" stroke-width="2" stroke-miterlimit="10"/>
<path d="M427.167 87.82C436.23 87.82 443.577 80.473 443.577 71.41C443.577 62.347 436.23 55 427.167 55C418.104 55 410.757 62.347 410.757 71.41C410.757 80.473 418.104 87.82 427.167 87.82Z" stroke="#D2CDCC" stroke-width="2" stroke-miterlimit="10"/>
<path d="M378.835 87.82C386.692 87.82 393.062 80.473 393.062 71.41C393.062 62.347 386.692 55 378.835 55C370.978 55 364.608 62.347 364.608 71.41C364.608 80.473 370.978 87.82 378.835 87.82Z" stroke="#D2CDCC" stroke-width="2" stroke-miterlimit="10"/>
<path d="M378.835 55H383.1C390.957 55 397.327 62.347 397.327 71.41C397.327 80.473 390.957 87.82 383.1 87.82H378.835" stroke="#D2CDCC" stroke-width="2" stroke-miterlimit="10"/>
<path d="M332.367 87.82C338.696 87.82 343.826 80.473 343.826 71.41C343.826 62.347 338.696 55 332.367 55C326.038 55 320.908 62.347 320.908 71.41C320.908 80.473 326.038 87.82 332.367 87.82Z" stroke="#D2CDCC" stroke-width="2" stroke-miterlimit="10"/>
<path d="M332.367 55H337.29C343.618 55 348.749 62.347 348.749 71.41C348.749 80.473 343.619 87.82 337.29 87.82H332.367" stroke="#D2CDCC" stroke-width="2" stroke-miterlimit="10"/>
<path d="M285.703 87.82C290.1 87.82 293.665 80.473 293.665 71.41C293.665 62.347 290.1 55 285.703 55C281.306 55 277.741 62.347 277.741 71.41C277.741 80.473 281.306 87.82 285.703 87.82Z" stroke="#D2CDCC" stroke-width="2" stroke-miterlimit="10"/>
<path d="M285.703 55H290.856C295.253 55 298.818 62.347 298.818 71.41C298.818 80.473 295.253 87.82 290.856 87.82H285.703" stroke="#D2CDCC" stroke-width="2" stroke-miterlimit="10"/>
<path d="M239.562 87.82C242.742 87.82 245.32 80.473 245.32 71.41C245.32 62.347 242.742 55 239.562 55C236.382 55 233.804 62.347 233.804 71.41C233.804 80.473 236.382 87.82 239.562 87.82Z" stroke="#D2CDCC" stroke-width="2" stroke-miterlimit="10"/>
<path d="M239.562 55H245.32C248.5 55 251.078 62.347 251.078 71.41C251.078 80.473 248.5 87.82 245.32 87.82H239.562" stroke="#D2CDCC" stroke-width="2" stroke-miterlimit="10"/>
<path d="M193.398 87.82C194.988 87.82 196.277 80.473 196.277 71.41C196.277 62.347 194.988 55 193.398 55C191.808 55 190.519 62.347 190.519 71.41C190.519 80.473 191.808 87.82 193.398 87.82Z" stroke="#D2CDCC" stroke-width="2" stroke-miterlimit="10"/>
<path d="M193.398 55H199.655C201.245 55 202.534 62.347 202.534 71.41C202.534 80.473 201.245 87.82 199.655 87.82H193.398" stroke="#D2CDCC" stroke-width="2" stroke-miterlimit="10"/>
<path d="M153.976 55H146.179V87.821H153.976V55Z" stroke="#D2CDCC" stroke-width="2" stroke-miterlimit="10"/>
<path d="M14.452 87.82C18.8493 87.82 22.414 80.473 22.414 71.41C22.414 62.347 18.8493 55 14.452 55C10.0547 55 6.48999 62.347 6.48999 71.41C6.48999 80.473 10.0547 87.82 14.452 87.82Z" stroke="#D2CDCC" stroke-width="2" stroke-miterlimit="10"/>
<path d="M14.4519 55H9.29892C4.90192 55 1.33691 62.347 1.33691 71.41C1.33691 80.473 4.90192 87.82 9.29892 87.82H14.4519" stroke="#D2CDCC" stroke-width="2" stroke-miterlimit="10"/>
<path d="M60.5939 87.82C63.774 87.82 66.3519 80.473 66.3519 71.41C66.3519 62.347 63.774 55 60.5939 55C57.4139 55 54.8359 62.347 54.8359 71.41C54.8359 80.473 57.4139 87.82 60.5939 87.82Z" stroke="#D2CDCC" stroke-width="2" stroke-miterlimit="10"/>
<path d="M60.5941 55H54.8361C51.6561 55 49.0781 62.347 49.0781 71.41C49.0781 80.473 51.6561 87.82 54.8361 87.82H60.5941" stroke="#D2CDCC" stroke-width="2" stroke-miterlimit="10"/>
<path d="M106.758 87.82C108.348 87.82 109.637 80.473 109.637 71.41C109.637 62.347 108.348 55 106.758 55C105.168 55 103.879 62.347 103.879 71.41C103.879 80.473 105.168 87.82 106.758 87.82Z" stroke="#D2CDCC" stroke-width="2" stroke-miterlimit="10"/>
<path d="M106.758 55H100.5C98.9101 55 97.6211 62.347 97.6211 71.41C97.6211 80.473 98.9101 87.82 100.5 87.82H106.757" stroke="#D2CDCC" stroke-width="2" stroke-miterlimit="10"/>
<path d="M475.5 87.82C483.357 87.82 489.727 80.473 489.727 71.41C489.727 62.347 483.357 55 475.5 55C467.643 55 461.273 62.347 461.273 71.41C461.273 80.473 467.643 87.82 475.5 87.82Z" stroke="#D2CDCC" stroke-width="2" stroke-miterlimit="10"/>
<path d="M475.5 55H471.235C463.378 55 457.008 62.347 457.008 71.41C457.008 80.473 463.378 87.82 471.235 87.82H475.5" stroke="#D2CDCC" stroke-width="2" stroke-miterlimit="10"/>
<path d="M521.967 87.82C528.296 87.82 533.426 80.473 533.426 71.41C533.426 62.347 528.296 55 521.967 55C515.638 55 510.508 62.347 510.508 71.41C510.508 80.473 515.638 87.82 521.967 87.82Z" stroke="#D2CDCC" stroke-width="2" stroke-miterlimit="10"/>
<path d="M521.967 55H517.044C510.716 55 505.585 62.347 505.585 71.41C505.585 80.473 510.715 87.82 517.044 87.82H521.967" stroke="#D2CDCC" stroke-width="2" stroke-miterlimit="10"/>
</svg>
