<svg width="701" height="96" viewBox="0 0 701 96" fill="none" xmlns="http://www.w3.org/2000/svg">
<path d="M102.921 28.831H61.8201V10.71H82.3701H102.921V28.831Z" stroke="#D2CDCC" stroke-width="2" stroke-miterlimit="10"/>
<path d="M82.3701 10.71V28.831" stroke="#D2CDCC" stroke-width="2" stroke-miterlimit="10"/>
<path d="M82.3701 19.771H61.9021" stroke="#D2CDCC" stroke-width="2" stroke-miterlimit="10"/>
<path d="M64.609 28.8311L62.968 35.4851" stroke="#D2CDCC" stroke-width="2" stroke-miterlimit="10"/>
<path d="M100.511 28.8311L102.152 35.4851" stroke="#D2CDCC" stroke-width="2" stroke-miterlimit="10"/>
<path d="M42.0191 24.5918H1.98511V37.1438H42.0191V24.5918Z" stroke="#D2CDCC" stroke-width="2" stroke-miterlimit="10"/>
<path d="M31.929 31.0405H12.4041" stroke="#D2CDCC" stroke-width="2" stroke-miterlimit="10"/>
<path d="M4.44707 37.1436L2.56006 42.1626" stroke="#D2CDCC" stroke-width="2" stroke-miterlimit="10"/>
<path d="M39.646 37.1436L41.533 42.1626" stroke="#D2CDCC" stroke-width="2" stroke-miterlimit="10"/>
<path d="M31.929 37.1438V24.5918V11.7938C31.929 6.40176 27.5581 2.03076 22.1671 2.03076C16.7751 2.03076 12.4041 6.40176 12.4041 11.7938V24.5918V37.1438" stroke="#D2CDCC" stroke-width="2" stroke-miterlimit="10"/>
<path d="M200.336 12.157H181.054L183.516 1H197.873L200.336 12.157Z" stroke="#D2CDCC" stroke-width="2" stroke-miterlimit="10"/>
<path d="M190.695 12.1572V36.9332" stroke="#D2CDCC" stroke-width="2" stroke-miterlimit="10"/>
<path d="M184.091 40.5421L190.695 36.9331L197.381 40.5421" stroke="#D2CDCC" stroke-width="2" stroke-miterlimit="10"/>
<path d="M195.494 12.1572V19.3762" stroke="#D2CDCC" stroke-width="2" stroke-miterlimit="10"/>
<path d="M257.153 25.585H217.283V34.76H257.153V25.585Z" stroke="#D2CDCC" stroke-width="2" stroke-miterlimit="10"/>
<path d="M237.218 26.374V34.761" stroke="#D2CDCC" stroke-width="2" stroke-miterlimit="10"/>
<path d="M255.349 34.7612L256.661 39.1912" stroke="#D2CDCC" stroke-width="2" stroke-miterlimit="10"/>
<path d="M219.288 34.7612L217.975 39.1912" stroke="#D2CDCC" stroke-width="2" stroke-miterlimit="10"/>
<path d="M250.754 7.18018H223.682V21.5372H250.754V7.18018Z" stroke="#D2CDCC" stroke-width="2" stroke-miterlimit="10"/>
<path d="M227.292 21.5361L226.389 25.5731" stroke="#D2CDCC" stroke-width="2" stroke-miterlimit="10"/>
<path d="M247.233 21.5361L248.135 25.5731" stroke="#D2CDCC" stroke-width="2" stroke-miterlimit="10"/>
<path d="M142.321 27.0784H126.734V21.1714C126.734 19.6764 125.522 18.4644 124.027 18.4644C122.532 18.4644 121.32 19.6764 121.32 21.1714V32.4924H142.322" stroke="#D2CDCC" stroke-width="2" stroke-miterlimit="10"/>
<path d="M125.421 32.4932L122.96 38.2352" stroke="#D2CDCC" stroke-width="2" stroke-miterlimit="10"/>
<path d="M122.96 18.6832V8.94824H142.321" stroke="#D2CDCC" stroke-width="2" stroke-miterlimit="10"/>
<path d="M142.321 22.894H126.733" stroke="#D2CDCC" stroke-width="2" stroke-miterlimit="10"/>
<path d="M138.629 17.9722H130.343V22.8942H138.629V17.9722Z" stroke="#D2CDCC" stroke-width="2" stroke-miterlimit="10"/>
<path d="M142.321 27.0784H157.908V21.1714C157.908 19.6764 159.12 18.4644 160.615 18.4644C162.11 18.4644 163.322 19.6764 163.322 21.1714V32.4924H142.32" stroke="#D2CDCC" stroke-width="2" stroke-miterlimit="10"/>
<path d="M159.22 32.4932L161.681 38.2352" stroke="#D2CDCC" stroke-width="2" stroke-miterlimit="10"/>
<path d="M161.681 18.6832V8.94824H142.321" stroke="#D2CDCC" stroke-width="2" stroke-miterlimit="10"/>
<path d="M142.321 22.894H157.908" stroke="#D2CDCC" stroke-width="2" stroke-miterlimit="10"/>
<path d="M154.298 17.9722H146.012V22.8942H154.298V17.9722Z" stroke="#D2CDCC" stroke-width="2" stroke-miterlimit="10"/>
<path d="M142.321 8.94824V22.8942" stroke="#D2CDCC" stroke-width="2" stroke-miterlimit="10"/>
<path d="M312.614 28.252H274.302V36.538H312.614V28.252Z" stroke="#D2CDCC" stroke-width="2" stroke-miterlimit="10"/>
<path d="M276.517 40.7541V36.5381" stroke="#D2CDCC" stroke-width="2" stroke-miterlimit="10"/>
<path d="M310.563 36.5381V40.7541" stroke="#D2CDCC" stroke-width="2" stroke-miterlimit="10"/>
<path d="M294.595 16.9312H292.297" stroke="#D2CDCC" stroke-width="2" stroke-miterlimit="10"/>
<path d="M282.43 16.9312H279.884L274.302 28.2522H312.614L307.032 16.9312H304.461" stroke="#D2CDCC" stroke-width="2" stroke-miterlimit="10"/>
<path d="M279.799 16.931V8.89198C279.799 7.98598 280.534 7.25098 281.44 7.25098H305.231C306.137 7.25098 306.872 7.98598 306.872 8.89198V16.931" stroke="#D2CDCC" stroke-width="2" stroke-miterlimit="10"/>
<path d="M282.561 15.2898C282.561 15.2898 287.811 13.1018 292.296 15.2898V19.3918C292.296 19.3918 288.03 20.7048 282.233 19.3918L282.561 15.2898Z" stroke="#D2CDCC" stroke-width="2" stroke-miterlimit="10"/>
<path d="M304.33 15.2898C304.33 15.2898 299.08 13.1018 294.595 15.2898V19.3918C294.595 19.3918 298.861 20.7048 304.658 19.3918L304.33 15.2898Z" stroke="#D2CDCC" stroke-width="2" stroke-miterlimit="10"/>
<path d="M369.097 10.771H330.867" stroke="#D2CDCC" stroke-width="2" stroke-miterlimit="10"/>
<path d="M367.046 10.771H333.164V33.84H367.046V10.771Z" stroke="#D2CDCC" stroke-width="2" stroke-miterlimit="10"/>
<path d="M333.164 17.7441H367.046" stroke="#D2CDCC" stroke-width="2" stroke-miterlimit="10"/>
<path d="M367.046 26.374H333.164" stroke="#D2CDCC" stroke-width="2" stroke-miterlimit="10"/>
<path d="M333.164 33.8398V38.6798" stroke="#D2CDCC" stroke-width="2" stroke-miterlimit="10"/>
<path d="M367.046 33.8398V38.6798" stroke="#D2CDCC" stroke-width="2" stroke-miterlimit="10"/>
<path d="M388.64 12.2031C388.64 12.2031 388.23 16.3811 392.496 16.3811H419.815C419.815 16.3811 423.179 16.3101 423.179 12.2031H388.64Z" stroke="#D2CDCC" stroke-width="2" stroke-miterlimit="10"/>
<path d="M392.496 16.3823L388.63 37.4653" stroke="#D2CDCC" stroke-width="2" stroke-miterlimit="10"/>
<path d="M419.312 16.3823L423.178 37.4653" stroke="#D2CDCC" stroke-width="2" stroke-miterlimit="10"/>
<path d="M405.904 16.3823V37.4653" stroke="#D2CDCC" stroke-width="2" stroke-miterlimit="10"/>
<path d="M461.332 25.1524H444.268L442.791 19.5194C442.791 19.5194 442.135 17.0034 440.056 17.6594C437.978 18.3154 438.689 20.4484 438.689 20.4484L440.111 26.0814C440.111 26.0814 441.478 29.1984 444.486 29.1984C447.494 29.1984 461.331 29.1984 461.331 29.1984" stroke="#D2CDCC" stroke-width="2" stroke-miterlimit="10"/>
<path d="M443.995 29.1992L442.026 34.2312" stroke="#D2CDCC" stroke-width="2" stroke-miterlimit="10"/>
<path d="M442.351 18.5512L441.534 14.6522C441.534 14.6522 440.932 12.1362 444.433 12.1362C447.933 12.1362 461.333 12.1362 461.333 12.1362" stroke="#D2CDCC" stroke-width="2" stroke-miterlimit="10"/>
<path d="M457.558 20.2852H447.276V25.1532H457.558V20.2852Z" stroke="#D2CDCC" stroke-width="2" stroke-miterlimit="10"/>
<path d="M461.383 25.1524H478.447L479.924 19.5194C479.924 19.5194 480.58 17.0034 482.659 17.6594C484.738 18.3154 484.026 20.4484 484.026 20.4484L482.604 26.0814C482.604 26.0814 481.237 29.1984 478.229 29.1984C475.221 29.1984 461.384 29.1984 461.384 29.1984" stroke="#D2CDCC" stroke-width="2" stroke-miterlimit="10"/>
<path d="M478.72 29.1992L480.689 34.2312" stroke="#D2CDCC" stroke-width="2" stroke-miterlimit="10"/>
<path d="M480.364 18.5512L481.181 14.6522C481.181 14.6522 481.783 12.1362 478.282 12.1362C474.782 12.1362 461.382 12.1362 461.382 12.1362" stroke="#D2CDCC" stroke-width="2" stroke-miterlimit="10"/>
<path d="M475.439 20.2852H465.157V25.1532H475.439V20.2852Z" stroke="#D2CDCC" stroke-width="2" stroke-miterlimit="10"/>
<path d="M530.777 4.5249H501.79V37.6679H530.777V4.5249Z" stroke="#D2CDCC" stroke-width="2" stroke-miterlimit="10"/>
<path d="M516.284 4.5249V37.6679" stroke="#D2CDCC" stroke-width="2" stroke-miterlimit="10"/>
<path d="M504.388 41.004V37.668" stroke="#D2CDCC" stroke-width="2" stroke-miterlimit="10"/>
<path d="M528.754 41.004V37.668" stroke="#D2CDCC" stroke-width="2" stroke-miterlimit="10"/>
<path d="M568.002 28.8628H560.619L559.604 21.6258C558.916 19.6308 557.023 18.1978 554.794 18.1978C551.985 18.1978 549.708 20.4748 549.708 23.2838C549.708 25.7898 551.52 27.8728 553.906 28.2928L555.287 34.9328H568.003" stroke="#D2CDCC" stroke-width="2" stroke-miterlimit="10"/>
<path d="M554.794 18.1979L552.251 4.16895H568.002" stroke="#D2CDCC" stroke-width="2" stroke-miterlimit="10"/>
<path d="M559.974 24.2671H568.002" stroke="#D2CDCC" stroke-width="2" stroke-miterlimit="10"/>
<path d="M557.829 34.9341L555.696 40.1841" stroke="#D2CDCC" stroke-width="2" stroke-miterlimit="10"/>
<path d="M567.896 28.8628H575.279L576.294 21.6258C576.982 19.6308 578.875 18.1978 581.104 18.1978C583.913 18.1978 586.19 20.4748 586.19 23.2838C586.19 25.7898 584.378 27.8728 581.992 28.2928L580.611 34.9328H567.895" stroke="#D2CDCC" stroke-width="2" stroke-miterlimit="10"/>
<path d="M581.104 18.1979L583.648 4.16895H567.896" stroke="#D2CDCC" stroke-width="2" stroke-miterlimit="10"/>
<path d="M575.924 24.2671H567.896" stroke="#D2CDCC" stroke-width="2" stroke-miterlimit="10"/>
<path d="M578.069 34.9341L580.202 40.1841" stroke="#D2CDCC" stroke-width="2" stroke-miterlimit="10"/>
<path d="M624.758 4.91504H605.479V15.498H624.758V4.91504Z" stroke="#D2CDCC" stroke-width="2" stroke-miterlimit="10"/>
<path d="M628.525 25.7249C628.525 25.7249 622.953 26.0949 615.378 26.0949C607.803 26.0949 601.957 25.6699 601.957 25.6699" stroke="#D2CDCC" stroke-width="2" stroke-miterlimit="10"/>
<path d="M608.733 15.498L610.211 25.95" stroke="#D2CDCC" stroke-width="2" stroke-miterlimit="10"/>
<path d="M607.039 25.8643L605.479 39.3983" stroke="#D2CDCC" stroke-width="2" stroke-miterlimit="10"/>
<path d="M621.668 15.498L620.189 25.95" stroke="#D2CDCC" stroke-width="2" stroke-miterlimit="10"/>
<path d="M623.361 25.8643L624.922 39.3983" stroke="#D2CDCC" stroke-width="2" stroke-miterlimit="10"/>
<path d="M690.11 8.59424H642.71" stroke="#D2CDCC" stroke-width="2" stroke-miterlimit="10"/>
<path d="M668.01 8.59424H646.27V28.2012H668.01V8.59424Z" stroke="#D2CDCC" stroke-width="2" stroke-miterlimit="10"/>
<path d="M668.01 15.0752H646.27" stroke="#D2CDCC" stroke-width="2" stroke-miterlimit="10"/>
<path d="M657.14 15.0752V28.2012" stroke="#D2CDCC" stroke-width="2" stroke-miterlimit="10"/>
<path d="M646.27 28.2012V38.1432" stroke="#D2CDCC" stroke-width="2" stroke-miterlimit="10"/>
<path d="M686.468 8.59424V38.1432" stroke="#D2CDCC" stroke-width="2" stroke-miterlimit="10"/>
<path d="M32.336 65.157H13.054L15.516 54H29.873L32.336 65.157Z" stroke="#D2CDCC" stroke-width="2" stroke-miterlimit="10"/>
<path d="M22.6951 65.1572V89.9332" stroke="#D2CDCC" stroke-width="2" stroke-miterlimit="10"/>
<path d="M16.0911 93.5421L22.6951 89.9331L29.3811 93.5421" stroke="#D2CDCC" stroke-width="2" stroke-miterlimit="10"/>
<path d="M27.4939 65.1572V72.3762" stroke="#D2CDCC" stroke-width="2" stroke-miterlimit="10"/>
<path d="M89.153 78.585H49.283V87.76H89.153V78.585Z" stroke="#D2CDCC" stroke-width="2" stroke-miterlimit="10"/>
<path d="M69.218 79.374V87.761" stroke="#D2CDCC" stroke-width="2" stroke-miterlimit="10"/>
<path d="M87.3489 87.7612L88.6609 92.1912" stroke="#D2CDCC" stroke-width="2" stroke-miterlimit="10"/>
<path d="M51.2881 87.7612L49.9751 92.1912" stroke="#D2CDCC" stroke-width="2" stroke-miterlimit="10"/>
<path d="M82.7539 60.1802H55.6819V74.5372H82.7539V60.1802Z" stroke="#D2CDCC" stroke-width="2" stroke-miterlimit="10"/>
<path d="M59.2919 74.5361L58.3889 78.5731" stroke="#D2CDCC" stroke-width="2" stroke-miterlimit="10"/>
<path d="M79.2329 74.5361L80.1349 78.5731" stroke="#D2CDCC" stroke-width="2" stroke-miterlimit="10"/>
<path d="M144.614 81.252H106.302V89.538H144.614V81.252Z" stroke="#D2CDCC" stroke-width="2" stroke-miterlimit="10"/>
<path d="M108.517 93.7541V89.5381" stroke="#D2CDCC" stroke-width="2" stroke-miterlimit="10"/>
<path d="M142.563 89.5381V93.7541" stroke="#D2CDCC" stroke-width="2" stroke-miterlimit="10"/>
<path d="M126.595 69.9312H124.297" stroke="#D2CDCC" stroke-width="2" stroke-miterlimit="10"/>
<path d="M114.43 69.9312H111.884L106.302 81.2522H144.614L139.032 69.9312H136.461" stroke="#D2CDCC" stroke-width="2" stroke-miterlimit="10"/>
<path d="M111.799 69.931V61.892C111.799 60.986 112.534 60.251 113.44 60.251H137.231C138.137 60.251 138.872 60.986 138.872 61.892V69.931" stroke="#D2CDCC" stroke-width="2" stroke-miterlimit="10"/>
<path d="M114.561 68.2898C114.561 68.2898 119.811 66.1018 124.296 68.2898V72.3918C124.296 72.3918 120.03 73.7048 114.233 72.3918L114.561 68.2898Z" stroke="#D2CDCC" stroke-width="2" stroke-miterlimit="10"/>
<path d="M136.33 68.2898C136.33 68.2898 131.08 66.1018 126.595 68.2898V72.3918C126.595 72.3918 130.861 73.7048 136.658 72.3918L136.33 68.2898Z" stroke="#D2CDCC" stroke-width="2" stroke-miterlimit="10"/>
<path d="M201.097 63.771H162.867" stroke="#D2CDCC" stroke-width="2" stroke-miterlimit="10"/>
<path d="M199.046 63.771H165.164V86.84H199.046V63.771Z" stroke="#D2CDCC" stroke-width="2" stroke-miterlimit="10"/>
<path d="M165.164 70.7441H199.046" stroke="#D2CDCC" stroke-width="2" stroke-miterlimit="10"/>
<path d="M199.046 79.374H165.164" stroke="#D2CDCC" stroke-width="2" stroke-miterlimit="10"/>
<path d="M165.164 86.8398V91.6798" stroke="#D2CDCC" stroke-width="2" stroke-miterlimit="10"/>
<path d="M199.046 86.8398V91.6798" stroke="#D2CDCC" stroke-width="2" stroke-miterlimit="10"/>
<path d="M220.64 65.2031C220.64 65.2031 220.23 69.3811 224.496 69.3811H251.815C251.815 69.3811 255.179 69.3101 255.179 65.2031H220.64Z" stroke="#D2CDCC" stroke-width="2" stroke-miterlimit="10"/>
<path d="M224.496 69.3823L220.63 90.4653" stroke="#D2CDCC" stroke-width="2" stroke-miterlimit="10"/>
<path d="M251.312 69.3823L255.178 90.4653" stroke="#D2CDCC" stroke-width="2" stroke-miterlimit="10"/>
<path d="M237.904 69.3823V90.4653" stroke="#D2CDCC" stroke-width="2" stroke-miterlimit="10"/>
<path d="M293.332 78.1524H276.268L274.791 72.5194C274.791 72.5194 274.135 70.0034 272.056 70.6594C269.978 71.3154 270.689 73.4484 270.689 73.4484L272.111 79.0814C272.111 79.0814 273.478 82.1984 276.486 82.1984C279.494 82.1984 293.331 82.1984 293.331 82.1984" stroke="#D2CDCC" stroke-width="2" stroke-miterlimit="10"/>
<path d="M275.995 82.1992L274.026 87.2312" stroke="#D2CDCC" stroke-width="2" stroke-miterlimit="10"/>
<path d="M274.351 71.5512L273.534 67.6522C273.534 67.6522 272.932 65.1362 276.433 65.1362C279.933 65.1362 293.333 65.1362 293.333 65.1362" stroke="#D2CDCC" stroke-width="2" stroke-miterlimit="10"/>
<path d="M289.558 73.2852H279.276V78.1532H289.558V73.2852Z" stroke="#D2CDCC" stroke-width="2" stroke-miterlimit="10"/>
<path d="M293.383 78.1524H310.447L311.924 72.5194C311.924 72.5194 312.58 70.0034 314.659 70.6594C316.738 71.3154 316.026 73.4484 316.026 73.4484L314.604 79.0814C314.604 79.0814 313.237 82.1984 310.229 82.1984C307.221 82.1984 293.384 82.1984 293.384 82.1984" stroke="#D2CDCC" stroke-width="2" stroke-miterlimit="10"/>
<path d="M310.72 82.1992L312.689 87.2312" stroke="#D2CDCC" stroke-width="2" stroke-miterlimit="10"/>
<path d="M312.364 71.5512L313.181 67.6522C313.181 67.6522 313.783 65.1362 310.282 65.1362C306.782 65.1362 293.382 65.1362 293.382 65.1362" stroke="#D2CDCC" stroke-width="2" stroke-miterlimit="10"/>
<path d="M307.439 73.2852H297.157V78.1532H307.439V73.2852Z" stroke="#D2CDCC" stroke-width="2" stroke-miterlimit="10"/>
<path d="M362.777 57.5249H333.79V90.6679H362.777V57.5249Z" stroke="#D2CDCC" stroke-width="2" stroke-miterlimit="10"/>
<path d="M348.284 57.5249V90.6679" stroke="#D2CDCC" stroke-width="2" stroke-miterlimit="10"/>
<path d="M336.388 94.004V90.668" stroke="#D2CDCC" stroke-width="2" stroke-miterlimit="10"/>
<path d="M360.754 94.004V90.668" stroke="#D2CDCC" stroke-width="2" stroke-miterlimit="10"/>
<path d="M400.002 81.8628H392.619L391.604 74.6258C390.916 72.6308 389.023 71.1978 386.794 71.1978C383.985 71.1978 381.708 73.4748 381.708 76.2838C381.708 78.7898 383.52 80.8728 385.906 81.2928L387.287 87.9328H400.003" stroke="#D2CDCC" stroke-width="2" stroke-miterlimit="10"/>
<path d="M386.794 71.1979L384.251 57.1689H400.002" stroke="#D2CDCC" stroke-width="2" stroke-miterlimit="10"/>
<path d="M391.974 77.2671H400.002" stroke="#D2CDCC" stroke-width="2" stroke-miterlimit="10"/>
<path d="M389.829 87.9341L387.696 93.1841" stroke="#D2CDCC" stroke-width="2" stroke-miterlimit="10"/>
<path d="M399.896 81.8628H407.279L408.294 74.6258C408.982 72.6308 410.875 71.1978 413.104 71.1978C415.913 71.1978 418.19 73.4748 418.19 76.2838C418.19 78.7898 416.378 80.8728 413.992 81.2928L412.611 87.9328H399.895" stroke="#D2CDCC" stroke-width="2" stroke-miterlimit="10"/>
<path d="M413.104 71.1979L415.648 57.1689H399.896" stroke="#D2CDCC" stroke-width="2" stroke-miterlimit="10"/>
<path d="M407.924 77.2671H399.896" stroke="#D2CDCC" stroke-width="2" stroke-miterlimit="10"/>
<path d="M410.069 87.9341L412.202 93.1841" stroke="#D2CDCC" stroke-width="2" stroke-miterlimit="10"/>
<path d="M456.758 57.915H437.479V68.498H456.758V57.915Z" stroke="#D2CDCC" stroke-width="2" stroke-miterlimit="10"/>
<path d="M460.525 78.7249C460.525 78.7249 454.953 79.0949 447.378 79.0949C439.803 79.0949 433.957 78.6699 433.957 78.6699" stroke="#D2CDCC" stroke-width="2" stroke-miterlimit="10"/>
<path d="M440.733 68.498L442.211 78.95" stroke="#D2CDCC" stroke-width="2" stroke-miterlimit="10"/>
<path d="M439.039 78.8643L437.479 92.3983" stroke="#D2CDCC" stroke-width="2" stroke-miterlimit="10"/>
<path d="M453.668 68.498L452.189 78.95" stroke="#D2CDCC" stroke-width="2" stroke-miterlimit="10"/>
<path d="M455.361 78.8643L456.922 92.3983" stroke="#D2CDCC" stroke-width="2" stroke-miterlimit="10"/>
<path d="M522.11 61.5942H474.71" stroke="#D2CDCC" stroke-width="2" stroke-miterlimit="10"/>
<path d="M500.01 61.5942H478.27V81.2012H500.01V61.5942Z" stroke="#D2CDCC" stroke-width="2" stroke-miterlimit="10"/>
<path d="M500.01 68.0752H478.27" stroke="#D2CDCC" stroke-width="2" stroke-miterlimit="10"/>
<path d="M489.14 68.0752V81.2012" stroke="#D2CDCC" stroke-width="2" stroke-miterlimit="10"/>
<path d="M478.27 81.2012V91.1432" stroke="#D2CDCC" stroke-width="2" stroke-miterlimit="10"/>
<path d="M518.468 61.5942V91.1432" stroke="#D2CDCC" stroke-width="2" stroke-miterlimit="10"/>
<path d="M638.711 81.831H597.61V63.71H618.161H638.711V81.831Z" stroke="#D2CDCC" stroke-width="2" stroke-miterlimit="10"/>
<path d="M618.161 63.71V81.831" stroke="#D2CDCC" stroke-width="2" stroke-miterlimit="10"/>
<path d="M618.161 72.771H597.693" stroke="#D2CDCC" stroke-width="2" stroke-miterlimit="10"/>
<path d="M600.4 81.8311L598.759 88.4851" stroke="#D2CDCC" stroke-width="2" stroke-miterlimit="10"/>
<path d="M636.302 81.8311L637.942 88.4851" stroke="#D2CDCC" stroke-width="2" stroke-miterlimit="10"/>
<path d="M577.81 77.5918H537.776V90.1438H577.81V77.5918Z" stroke="#D2CDCC" stroke-width="2" stroke-miterlimit="10"/>
<path d="M567.72 84.0405H548.195" stroke="#D2CDCC" stroke-width="2" stroke-miterlimit="10"/>
<path d="M540.237 90.1436L538.35 95.1626" stroke="#D2CDCC" stroke-width="2" stroke-miterlimit="10"/>
<path d="M575.436 90.1436L577.323 95.1626" stroke="#D2CDCC" stroke-width="2" stroke-miterlimit="10"/>
<path d="M567.72 90.1438V77.5918V64.7938C567.72 59.4018 563.349 55.0308 557.957 55.0308C552.565 55.0308 548.194 59.4018 548.194 64.7938V77.5918V90.1438" stroke="#D2CDCC" stroke-width="2" stroke-miterlimit="10"/>
<path d="M678.111 80.0784H662.524V74.1714C662.524 72.6764 661.312 71.4644 659.817 71.4644C658.322 71.4644 657.11 72.6764 657.11 74.1714V85.4924H678.112" stroke="#D2CDCC" stroke-width="2" stroke-miterlimit="10"/>
<path d="M661.211 85.4932L658.75 91.2352" stroke="#D2CDCC" stroke-width="2" stroke-miterlimit="10"/>
<path d="M658.75 71.6832V61.9482H678.111" stroke="#D2CDCC" stroke-width="2" stroke-miterlimit="10"/>
<path d="M678.111 75.894H662.524" stroke="#D2CDCC" stroke-width="2" stroke-miterlimit="10"/>
<path d="M674.42 70.9722H666.134V75.8942H674.42V70.9722Z" stroke="#D2CDCC" stroke-width="2" stroke-miterlimit="10"/>
<path d="M678.111 80.0784H693.698V74.1714C693.698 72.6764 694.91 71.4644 696.405 71.4644C697.9 71.4644 699.112 72.6764 699.112 74.1714V85.4924H678.11" stroke="#D2CDCC" stroke-width="2" stroke-miterlimit="10"/>
<path d="M695.011 85.4932L697.472 91.2352" stroke="#D2CDCC" stroke-width="2" stroke-miterlimit="10"/>
<path d="M697.472 71.6832V61.9482H678.111" stroke="#D2CDCC" stroke-width="2" stroke-miterlimit="10"/>
<path d="M678.111 75.894H693.698" stroke="#D2CDCC" stroke-width="2" stroke-miterlimit="10"/>
<path d="M690.089 70.9722H681.803V75.8942H690.089V70.9722Z" stroke="#D2CDCC" stroke-width="2" stroke-miterlimit="10"/>
<path d="M678.111 61.9482V75.8942" stroke="#D2CDCC" stroke-width="2" stroke-miterlimit="10"/>
</svg>
